<?xml version="1.0" standalone="no"?>
<!DOCTYPE svg PUBLIC "-//W3C//DTD SVG 20010904//EN"
 "http://www.w3.org/TR/2001/REC-SVG-20010904/DTD/svg10.dtd">
<svg version="1.0" xmlns="http://www.w3.org/2000/svg"
 width="3520.000000pt" height="664.000000pt" viewBox="0 0 3520.000000 664.000000"
 preserveAspectRatio="xMidYMid meet">

<g transform="translate(0.000000,664.000000) scale(0.100000,-0.100000)"
fill="#000000" stroke="none">
<path d="M2742 3138 c-17 -17 -15 -43 3 -58 18 -15 62 0 71 25 14 35 -46 61
-74 33z"/>
<path d="M3063 3134 c-10 -27 11 -49 48 -49 28 0 35 4 37 24 2 13 -2 28 -10
32 -23 15 -68 10 -75 -7z"/>
<path d="M2906 3121 c-14 -15 -15 -24 -6 -40 19 -37 83 -21 77 19 -7 43 -42
53 -71 21z"/>
</g>
</svg>
