<?xml version="1.0" standalone="no"?>
<!DOCTYPE svg PUBLIC "-//W3C//DTD SVG 20010904//EN"
 "http://www.w3.org/TR/2001/REC-SVG-20010904/DTD/svg10.dtd">
<svg version="1.0" xmlns="http://www.w3.org/2000/svg"
 width="1456.000000pt" height="576.000000pt" viewBox="0 0 1456.000000 576.000000"
 preserveAspectRatio="xMidYMid meet">

<g transform="translate(0.000000,576.000000) scale(0.100000,-0.100000)"
fill="#000000" stroke="none">
<path d="M6317 3063 c-4 -3 -7 -89 -7 -190 l0 -183 25 0 25 0 0 190 c0 178 -1
190 -18 190 -10 0 -22 -3 -25 -7z"/>
<path d="M4475 2990 c-9 -15 4 -30 26 -30 12 0 19 7 19 20 0 21 -33 29 -45 10z"/>
<path d="M8322 2983 c4 -22 43 -25 43 -3 0 8 -11 16 -23 18 -19 3 -23 0 -20
-15z"/>
<path d="M8704 2989 c-9 -15 12 -33 30 -26 9 4 16 13 16 22 0 17 -35 21 -46 4z"/>
<path d="M3597 2979 c-44 -26 -62 -123 -30 -169 27 -40 45 -49 91 -50 32 0 49
6 67 25 14 13 25 31 25 40 0 21 -32 19 -53 -5 -21 -25 -59 -26 -80 -2 -23 26
-22 94 1 115 26 23 69 22 84 -3 18 -28 58 -27 51 0 -13 49 -105 78 -156 49z"/>
<path d="M4750 2875 l0 -115 25 0 c23 0 24 4 27 61 2 45 8 65 20 73 29 18 42
-6 39 -74 -2 -58 -1 -60 23 -60 25 0 26 2 26 66 0 83 -11 104 -53 104 -18 0
-38 -5 -45 -12 -9 -9 -12 -3 -12 30 0 38 -2 42 -25 42 l-25 0 0 -115z"/>
<path d="M5122 2974 c-26 -18 -52 -65 -52 -94 0 -36 31 -90 61 -105 123 -64
237 89 139 187 -23 23 -37 28 -77 28 -28 0 -58 -7 -71 -16z m123 -39 c44 -43
31 -112 -25 -135 -35 -15 -84 0 -100 31 -30 55 10 129 70 129 19 0 40 -9 55
-25z"/>
<path d="M5152 2924 c-46 -32 -20 -107 38 -107 37 0 75 35 45 41 -9 2 -22 -2
-30 -8 -19 -16 -45 3 -45 32 0 25 26 34 56 18 33 -18 44 -3 15 21 -28 23 -49
24 -79 3z"/>
<path d="M5437 2972 c-21 -24 -22 -52 -1 -52 9 0 24 10 33 21 12 16 23 20 39
15 38 -12 27 -47 -33 -106 -79 -78 -75 -90 25 -90 73 0 80 2 80 20 0 17 -7 20
-47 20 l-47 0 36 38 c62 64 72 98 38 132 -27 27 -100 28 -123 2z"/>
<path d="M5639 2964 c-20 -22 -24 -36 -24 -89 0 -53 4 -67 24 -89 29 -30 83
-35 118 -11 48 34 52 147 7 192 -33 33 -92 32 -125 -3z m81 -14 c38 -20 38
-130 0 -150 -48 -26 -83 83 -44 138 17 25 19 26 44 12z"/>
<path d="M5847 2972 c-21 -24 -22 -52 -1 -52 9 0 24 10 33 21 12 16 23 20 39
15 38 -12 27 -47 -33 -106 -79 -78 -75 -90 25 -90 73 0 80 2 80 20 0 17 -7 20
-47 20 l-47 0 36 38 c62 64 72 98 38 132 -27 27 -100 28 -123 2z"/>
<path d="M6047 2972 c-10 -10 -17 -24 -17 -30 0 -17 30 -15 51 4 23 20 59 10
59 -18 0 -13 -10 -24 -30 -31 -36 -14 -40 -37 -6 -37 29 0 49 -22 40 -44 -7
-18 -54 -22 -71 -5 -6 6 -21 9 -33 7 l-22 -3 22 -27 c30 -38 99 -40 135 -3 31
30 31 50 1 78 -24 22 -24 23 -5 35 25 16 24 47 -1 72 -27 27 -100 28 -123 2z"/>
<path d="M6680 2970 c0 -16 7 -20 35 -20 l35 0 0 -95 c0 -95 0 -95 25 -95 25
0 25 0 25 95 l0 95 35 0 c28 0 35 4 35 20 0 19 -7 20 -95 20 -88 0 -95 -1 -95
-20z"/>
<path d="M7180 2948 c0 -33 -3 -39 -12 -30 -18 18 -73 14 -91 -6 -25 -27 -23
-106 3 -132 22 -22 51 -26 81 -10 13 7 19 7 19 0 0 -5 9 -10 20 -10 19 0 20 7
20 115 0 108 -1 115 -20 115 -17 0 -20 -7 -20 -42z m-10 -67 c24 -46 -3 -101
-40 -81 -25 13 -33 42 -21 74 12 31 46 35 61 7z"/>
<path d="M8240 2948 c0 -33 -3 -39 -12 -30 -7 7 -27 12 -44 12 -42 0 -64 -30
-64 -87 0 -67 47 -101 101 -73 13 7 19 7 19 0 0 -5 9 -10 20 -10 19 0 20 7 20
115 0 108 -1 115 -20 115 -17 0 -20 -7 -20 -42z m-12 -60 c32 -32 -1 -108 -38
-88 -25 13 -33 42 -21 74 11 28 39 34 59 14z"/>
<path d="M10600 2948 c0 -33 -3 -39 -12 -30 -7 7 -26 12 -43 12 -45 0 -68 -30
-68 -85 0 -29 6 -52 18 -65 20 -22 64 -26 84 -7 11 10 14 10 18 0 3 -7 13 -13
24 -13 18 0 19 8 19 115 0 108 -1 115 -20 115 -17 0 -20 -7 -20 -42z m-16 -64
c21 -20 20 -47 -2 -74 -34 -42 -78 11 -53 66 12 28 33 31 55 8z"/>
<path d="M4960 2955 c0 -9 -7 -18 -15 -21 -8 -4 -15 -12 -15 -20 0 -8 7 -14
15 -14 12 0 15 -13 15 -58 0 -65 11 -82 52 -82 33 0 36 15 8 32 -15 10 -20 24
-20 60 0 41 3 48 20 48 11 0 20 6 20 14 0 7 -9 16 -20 19 -11 3 -20 12 -20 21
0 9 -8 16 -20 16 -11 0 -20 -7 -20 -15z"/>
<path d="M8800 2955 c0 -9 -7 -18 -15 -21 -8 -4 -15 -12 -15 -20 0 -8 7 -14
15 -14 12 0 15 -13 15 -58 0 -65 11 -82 53 -82 22 0 28 4 23 16 -3 9 -6 18 -6
20 0 2 -7 4 -15 4 -11 0 -15 12 -15 50 0 43 3 50 20 50 11 0 20 6 20 14 0 7
-9 16 -20 19 -11 3 -20 12 -20 21 0 9 -8 16 -20 16 -11 0 -20 -7 -20 -15z"/>
<path d="M4412 2924 c-12 -8 -22 -10 -22 -5 0 6 -9 11 -20 11 -18 0 -20 -7
-20 -85 0 -84 0 -85 25 -85 23 0 24 4 27 63 3 53 6 63 26 72 12 5 22 18 22 27
0 22 -9 23 -38 2z"/>
<path d="M8480 2932 c-8 -3 -18 -10 -22 -16 -5 -8 -8 -7 -8 2 0 6 -11 12 -25
12 -25 0 -25 -1 -25 -85 0 -84 0 -85 25 -85 24 0 25 3 25 61 0 58 1 61 30 72
17 6 30 17 30 24 0 16 -11 22 -30 15z"/>
<path d="M9410 2932 c-8 -3 -18 -10 -22 -16 -5 -8 -8 -7 -8 2 0 6 -11 12 -25
12 -25 0 -25 -1 -25 -85 0 -84 0 -85 25 -85 24 0 25 3 25 61 0 58 1 61 30 72
17 6 30 17 30 24 0 16 -11 22 -30 15z"/>
<path d="M10062 2924 c-13 -9 -22 -11 -22 -5 0 6 -11 11 -25 11 -25 0 -25 -1
-25 -85 0 -84 0 -85 25 -85 24 0 25 3 25 61 0 58 1 61 30 72 29 11 39 30 22
41 -5 3 -18 -2 -30 -10z"/>
<path d="M3801 2904 c-47 -60 -10 -144 64 -144 74 0 111 84 64 144 -16 21 -29
26 -64 26 -35 0 -48 -5 -64 -26z m88 -18 c17 -20 10 -77 -11 -89 -24 -16 -48
8 -48 47 0 49 34 73 59 42z"/>
<path d="M3980 2815 c0 -108 1 -115 20 -115 17 0 20 7 20 40 0 38 12 52 25 30
10 -17 54 -11 75 10 27 27 28 110 2 133 -22 20 -73 22 -90 5 -9 -9 -12 -9 -12
0 0 7 -9 12 -20 12 -19 0 -20 -7 -20 -115z m110 66 c15 -30 12 -56 -9 -75 -18
-17 -20 -17 -40 3 -12 12 -21 28 -21 37 0 27 20 54 40 54 11 0 24 -9 30 -19z"/>
<path d="M4160 2927 c0 -2 13 -42 29 -89 29 -87 29 -100 -1 -111 -10 -3 -18
-11 -18 -17 0 -12 50 -13 68 -1 8 4 31 56 52 115 l38 107 -26 -3 c-22 -3 -28
-11 -42 -63 -18 -65 -21 -64 -41 13 -11 44 -16 52 -36 52 -13 0 -23 -1 -23 -3z"/>
<path d="M4470 2845 c0 -84 0 -85 25 -85 25 0 25 1 25 85 0 84 0 85 -25 85
-25 0 -25 -1 -25 -85z"/>
<path d="M4566 2908 c-41 -59 2 -158 62 -143 15 4 30 12 34 18 5 7 8 1 8 -14
0 -39 -19 -51 -63 -37 -46 14 -60 3 -27 -24 19 -15 34 -19 65 -15 63 9 75 32
75 143 0 94 0 94 -25 94 -14 0 -25 -5 -25 -12 0 -9 -3 -9 -12 0 -21 21 -75 15
-92 -10z m92 -20 c14 -14 16 -57 3 -76 -4 -8 -19 -12 -32 -10 -19 2 -25 10
-27 36 -5 50 27 79 56 50z"/>
<path d="M6890 2910 c-14 -14 -20 -33 -20 -63 0 -55 30 -87 81 -87 49 0 79 33
79 88 0 55 -26 82 -80 82 -27 0 -47 -7 -60 -20z m91 -34 c21 -46 -7 -95 -46
-80 -21 8 -30 51 -16 80 14 31 48 31 62 0z"/>
<path d="M7278 2913 c-25 -28 -30 -60 -18 -98 13 -41 35 -55 84 -55 67 0 103
97 56 148 -27 28 -99 31 -122 5z m93 -40 c19 -51 -28 -107 -57 -68 -8 10 -14
31 -14 45 0 53 53 70 71 23z"/>
<path d="M7462 2918 c-32 -32 -3 -77 61 -92 15 -4 27 -11 27 -17 0 -17 -30
-22 -54 -9 -13 6 -32 10 -42 8 -18 -3 -17 -5 4 -26 42 -42 142 -19 142 32 0
18 -38 46 -60 46 -9 0 -25 6 -36 14 -18 14 -18 15 0 22 10 4 27 2 37 -4 18
-11 49 -7 49 7 0 29 -103 44 -128 19z"/>
<path d="M7717 2918 c-22 -18 -37 -61 -30 -89 16 -67 97 -93 141 -46 29 31 30
99 2 127 -23 23 -87 27 -113 8z m83 -39 c14 -25 4 -75 -16 -83 -38 -15 -66 34
-45 80 13 30 46 32 61 3z"/>
<path d="M7892 2918 c-17 -17 -15 -53 3 -68 8 -7 29 -15 47 -19 17 -4 33 -12
36 -19 6 -18 -28 -27 -49 -14 -26 16 -49 15 -49 -3 0 -37 97 -48 130 -15 36
36 19 66 -47 85 -19 6 -34 15 -34 20 1 14 51 19 51 6 0 -13 10 -14 29 -2 12 8
12 12 2 25 -16 19 -101 22 -119 4z"/>
<path d="M8320 2845 c0 -84 0 -85 25 -85 25 0 25 1 25 85 0 84 0 85 -25 85
-25 0 -25 -1 -25 -85z"/>
<path d="M8530 2903 c-28 -35 -22 -99 10 -125 29 -24 92 -23 113 0 10 10 17
22 17 25 0 11 -29 8 -50 -5 -23 -15 -53 -2 -58 26 -3 13 6 16 57 16 l61 0 -6
28 c-11 45 -33 62 -80 62 -35 0 -47 -5 -64 -27z m98 -25 c3 -15 -4 -18 -32
-18 -34 0 -47 15 -29 34 13 13 58 1 61 -16z"/>
<path d="M8700 2845 c0 -84 0 -85 25 -85 25 0 25 1 25 85 0 84 0 85 -25 85
-25 0 -25 -1 -25 -85z"/>
<path d="M8928 2920 c-42 -25 -42 -114 0 -146 28 -22 86 -17 110 9 29 31 30
99 2 127 -22 22 -82 27 -112 10z m82 -41 c14 -25 4 -75 -16 -83 -38 -15 -66
34 -45 80 13 30 46 32 61 3z"/>
<path d="M9102 2918 c-17 -17 -15 -53 3 -68 8 -7 29 -15 47 -19 17 -4 33 -12
36 -19 6 -18 -26 -26 -52 -12 -13 6 -32 10 -42 8 -18 -3 -17 -5 4 -26 29 -29
94 -30 122 -2 36 36 19 66 -47 85 -19 6 -34 15 -34 20 1 14 51 19 51 6 0 -13
10 -14 29 -2 12 8 12 12 2 25 -16 19 -101 22 -119 4z"/>
<path d="M9467 2913 c-36 -41 -29 -121 14 -143 42 -23 119 -3 119 31 0 13 -27
11 -50 -3 -23 -15 -53 -2 -58 26 -3 13 6 16 58 16 l62 0 -7 28 c-11 44 -34 62
-80 62 -27 0 -47 -6 -58 -17z m91 -35 c3 -15 -4 -18 -32 -18 -24 0 -36 5 -36
14 0 30 63 33 68 4z"/>
<path d="M9645 2910 c-24 -27 -7 -67 32 -76 48 -10 53 -13 53 -29 0 -9 -9 -15
-25 -15 -14 0 -25 5 -25 10 0 6 -11 10 -25 10 -30 0 -32 -11 -7 -33 26 -24 94
-22 116 2 31 34 17 64 -36 80 -51 15 -65 41 -24 41 14 0 27 -4 30 -9 3 -5 15
-7 26 -4 20 5 20 7 4 24 -24 27 -95 26 -119 -1z"/>
<path d="M9824 2909 c-29 -32 -26 -105 5 -130 30 -25 92 -25 114 -1 10 10 17
22 17 25 0 11 -29 8 -50 -5 -23 -15 -53 -2 -58 26 -3 13 6 16 57 16 l61 0 -6
28 c-11 45 -33 62 -79 62 -30 0 -47 -6 -61 -21z m94 -31 c3 -15 -4 -18 -32
-18 -34 0 -47 15 -29 34 13 13 58 1 61 -16z"/>
<path d="M10140 2849 c17 -44 30 -83 30 -85 0 -3 12 -4 28 -2 24 3 30 12 54
78 33 93 33 90 5 90 -20 0 -26 -9 -42 -62 l-18 -63 -19 63 c-16 54 -22 62 -43
62 l-24 0 29 -81z"/>
<path d="M10316 2911 c-15 -17 -15 -19 -1 -25 9 -3 24 -1 34 6 22 13 54 3 49
-14 -3 -7 -21 -16 -41 -19 -63 -10 -86 -48 -51 -83 18 -19 65 -21 82 -4 9 9
12 9 12 0 0 -7 11 -12 25 -12 24 0 25 2 25 63 0 83 -16 107 -74 107 -29 0 -48
-6 -60 -19z m82 -93 c-4 -31 -58 -40 -58 -9 0 18 14 27 48 30 8 1 12 -8 10
-21z"/>
<path d="M10690 2903 c-17 -22 -21 -37 -17 -68 7 -48 36 -75 84 -75 72 0 109
85 62 144 -16 21 -29 26 -64 26 -36 0 -48 -5 -65 -27z m89 -17 c17 -20 10 -77
-11 -89 -24 -16 -48 8 -48 47 0 49 34 73 59 42z"/>
<path d="M10876 2909 c-23 -34 -6 -62 48 -77 25 -7 46 -18 46 -23 0 -17 -30
-22 -54 -9 -13 6 -31 10 -40 8 -15 -3 -15 -5 -1 -25 13 -18 26 -23 60 -23 51
0 77 21 73 59 -2 22 -11 28 -50 40 -27 8 -48 18 -48 23 0 16 32 21 52 9 11 -7
25 -8 34 -3 14 8 14 11 -1 25 -25 26 -100 23 -119 -4z"/>
<path d="M6480 2875 c0 -11 12 -15 50 -15 38 0 50 4 50 15 0 11 -12 15 -50 15
-38 0 -50 -4 -50 -15z"/>
</g>
</svg>
