<?xml version="1.0" standalone="no"?>
<!DOCTYPE svg PUBLIC "-//W3C//DTD SVG 20010904//EN"
 "http://www.w3.org/TR/2001/REC-SVG-20010904/DTD/svg10.dtd">
<svg version="1.0" xmlns="http://www.w3.org/2000/svg"
 width="1067.000000pt" height="1416.000000pt" viewBox="0 0 1067.000000 1416.000000"
 preserveAspectRatio="xMidYMid meet">

<g transform="translate(0.000000,1416.000000) scale(0.100000,-0.100000)"
fill="#000000" stroke="none">
<path d="M2885 11335 l-25 -24 0 -4184 c0 -4105 0 -4185 19 -4208 l19 -24
2440 -3 2439 -2 27 21 26 20 0 470 c0 409 -2 470 -15 474 -47 15 -50 19 -20
23 30 5 30 5 5 12 -30 8 -29 27 6 81 l24 39 1 3642 1 3642 -27 23 -26 23 -677
0 -677 -1 3 -59 c4 -66 -4 -73 -39 -35 -13 13 -28 25 -32 25 -26 0 -77 34 -77
51 0 18 -13 19 -310 19 l-310 0 0 -40 0 -40 -55 0 -55 0 0 40 0 40 -1320 0
-1321 0 -24 -25z m3332 -223 c7 -4 16 -26 21 -47 7 -33 12 -40 30 -38 38 4 52
-32 47 -122 -2 -44 -6 -100 -10 -125 -4 -25 -3 -75 2 -112 9 -64 8 -69 -18
-112 -29 -46 -34 -84 -18 -148 7 -27 5 -48 -6 -82 -9 -26 -15 -71 -13 -105 1
-32 -3 -65 -9 -72 -6 -8 -14 -42 -18 -76 -6 -53 -4 -64 9 -69 23 -9 20 -50 -5
-75 -18 -18 -20 -30 -17 -106 3 -64 1 -86 -9 -90 -7 -3 -13 -13 -13 -23 0 -11
-4 -22 -10 -25 -6 -3 -7 -30 -3 -65 3 -34 1 -79 -6 -107 -12 -44 -11 -49 9
-65 18 -14 19 -19 8 -23 -8 -3 -21 -5 -29 -3 -19 4 -21 -89 -3 -119 16 -25 18
-34 7 -31 -5 2 -22 -3 -40 -10 l-31 -14 -6 -96 c-4 -53 -9 -146 -12 -207 -4
-77 -10 -118 -22 -135 -12 -19 -16 -52 -16 -140 -1 -101 -4 -121 -25 -161
l-23 -47 21 -21 c11 -11 25 -21 29 -21 11 0 82 76 82 88 0 12 75 26 90 17 6
-4 16 -2 23 3 22 18 101 42 142 42 32 1 37 3 23 11 -10 5 -18 14 -18 19 0 13
147 13 155 0 3 -5 41 -26 83 -46 42 -20 79 -40 80 -45 2 -5 14 -9 27 -9 14 0
29 -9 35 -19 9 -18 6 -19 -48 -17 -32 2 -68 8 -79 15 -27 14 -120 15 -128 1
-3 -5 -14 -10 -23 -10 -9 0 -29 -6 -44 -14 -15 -8 -36 -12 -47 -9 -31 8 -82
-4 -121 -29 -19 -12 -47 -20 -63 -19 -19 2 -29 -3 -34 -16 -10 -27 -51 -63
-72 -63 -13 0 -18 -7 -18 -25 0 -31 3 -31 66 1 86 45 115 2 39 -57 -48 -37
-58 -48 -58 -66 0 -21 21 -15 27 7 11 42 56 13 72 -47 6 -19 17 -43 26 -53 15
-16 15 -19 0 -34 -15 -15 -61 -22 -110 -17 -36 3 -96 52 -93 75 3 18 11 21 56
24 30 2 50 7 47 13 -4 5 -13 9 -22 9 -9 0 -26 12 -39 28 l-24 27 0 -27 c0 -18
-5 -28 -15 -28 -9 0 -20 -12 -26 -26 -8 -23 -5 -33 16 -64 22 -32 24 -40 14
-68 -12 -35 -51 -47 -42 -13 7 28 -22 33 -52 9 -14 -11 -24 -23 -21 -26 11
-10 -16 -32 -39 -32 -33 0 -156 -148 -148 -178 7 -28 21 -28 25 0 3 22 28 39
28 18 0 -6 9 -21 21 -33 37 -39 53 -107 25 -107 -18 0 -26 -31 -26 -100 l0
-55 -19 24 c-20 26 -36 111 -23 120 10 7 9 87 -1 98 -5 4 -12 1 -16 -6 -13
-20 -118 -5 -131 18 -11 21 15 51 43 51 23 0 29 16 12 33 -8 9 -15 32 -15 51
0 35 -1 36 -39 36 -56 0 -93 32 -86 73 7 39 -2 53 -38 62 -22 6 -27 4 -27 -11
0 -16 -3 -15 -13 5 -6 14 -28 33 -47 44 -28 15 -38 17 -53 7 -14 -8 -22 -9
-30 -1 -6 6 -27 11 -47 11 -19 0 -46 8 -60 17 -17 12 -25 13 -28 5 -5 -17 -32
-15 -54 4 -16 16 -18 16 -24 0 -3 -9 -1 -23 5 -30 10 -12 8 -15 -11 -18 -22
-3 -21 -5 12 -26 20 -12 43 -19 55 -16 24 6 39 -9 48 -45 7 -27 -8 -66 -37
-99 -15 -17 -17 -25 -8 -34 15 -15 15 -51 0 -66 -10 -10 -9 -18 5 -41 11 -18
17 -53 18 -95 2 -66 2 -67 43 -95 22 -16 51 -41 64 -55 24 -28 47 -28 104 0
l26 14 -2 -41 c-1 -22 -8 -44 -17 -49 -21 -14 1 -44 34 -48 15 -2 33 -12 40
-23 15 -20 27 -16 27 11 0 9 9 25 20 35 11 10 20 24 20 31 0 14 38 30 48 20 3
-4 0 -21 -6 -39 -14 -40 -16 -123 -2 -132 5 -3 21 -3 35 1 24 6 25 9 19 53 -7
52 3 67 48 72 15 3 34 -4 47 -15 24 -22 28 -66 6 -66 -12 0 -15 -13 -15 -59 0
-33 -4 -63 -10 -66 -5 -3 -10 -19 -10 -34 0 -15 -11 -50 -25 -77 -14 -27 -25
-64 -25 -82 0 -50 24 -51 68 -4 32 34 41 39 70 34 40 -5 49 -23 33 -60 -11
-22 -10 -28 5 -39 30 -22 39 -16 75 47 19 33 42 62 52 65 9 4 17 11 17 16 0
23 76 79 108 79 14 0 21 9 26 30 3 17 23 48 45 70 30 31 47 40 73 40 36 0 58
15 58 39 0 11 -5 9 -20 -7 -28 -30 -44 -28 -91 10 -38 30 -42 31 -53 15 -27
-36 -69 -8 -93 61 -18 53 -16 96 8 126 19 25 20 27 3 58 -35 68 -36 70 -25 81
7 7 27 5 64 -7 33 -10 65 -14 82 -10 21 5 31 2 42 -12 13 -18 14 -18 19 4 4
12 13 22 20 22 19 0 18 19 -6 68 -25 52 -25 52 4 52 17 0 36 -14 60 -44 20
-23 36 -46 36 -50 0 -23 83 -75 122 -76 8 0 38 59 38 75 0 7 -9 22 -20 35 -11
13 -20 29 -20 37 0 7 -7 13 -15 13 -10 0 -15 10 -15 31 0 18 -4 28 -10 24 -6
-4 -8 -11 -4 -16 3 -6 3 -17 0 -26 -6 -14 -8 -14 -26 2 -11 10 -17 22 -14 26
3 5 -2 6 -10 3 -9 -3 -16 -1 -16 5 0 6 9 11 19 11 22 0 36 16 22 24 -5 3 -26
8 -46 11 -46 5 -50 9 -32 26 12 12 12 15 -1 25 -25 19 -3 34 49 34 43 0 49 -2
49 -21 0 -19 3 -18 30 11 19 21 36 30 47 26 10 -3 35 -1 57 4 33 7 39 6 43
-11 8 -29 23 -23 23 9 0 27 -2 29 -47 29 -35 0 -58 7 -86 26 -34 23 -36 26
-17 32 11 3 47 5 80 4 36 -2 65 2 72 9 7 7 19 12 28 12 14 0 16 -11 14 -62 -1
-35 -5 -78 -9 -95 -10 -44 3 -41 44 9 34 41 35 41 18 71 -19 33 -19 34 40 94
18 18 37 33 42 33 16 0 25 -49 12 -64 -20 -24 26 -65 79 -71 43 -5 46 -4 69
32 21 34 23 42 12 81 -14 52 -14 82 -1 82 5 0 14 10 21 21 11 21 10 22 -30 16
-27 -3 -44 -1 -49 7 -4 7 -17 18 -29 25 -30 16 -29 27 5 39 53 21 56 26 36 61
-36 60 21 63 84 4 17 -15 49 -41 72 -57 38 -26 41 -32 39 -70 -4 -77 -3 -78
37 -70 27 5 35 4 30 -5 -4 -6 -2 -11 3 -11 6 0 11 -7 11 -15 0 -8 2 -15 4 -15
2 0 12 -3 22 -7 13 -5 16 -3 11 10 -4 11 -1 17 8 17 10 0 14 -9 11 -30 -3 -26
-12 -43 -51 -96 -7 -10 -5 -22 7 -41 18 -30 30 -32 106 -18 38 7 42 6 42 -13
0 -24 -27 -42 -64 -42 -24 0 -26 -4 -26 -40 0 -37 2 -40 40 -50 22 -5 58 -15
81 -21 48 -12 47 -32 -2 -40 -50 -8 -59 -16 -59 -54 0 -28 6 -37 30 -50 30
-15 39 -38 20 -50 -18 -11 -11 -25 13 -25 19 0 22 -5 23 -39 1 -38 0 -40 -30
-43 -20 -2 -34 -10 -40 -24 -5 -11 -19 -25 -30 -30 -25 -11 -23 -37 5 -77 15
-21 17 -31 9 -47 -6 -11 -18 -20 -28 -20 -9 -1 -29 -17 -44 -37 -25 -32 -26
-38 -14 -62 8 -14 28 -36 45 -49 45 -33 42 -56 -7 -48 -33 5 -42 2 -61 -20
-21 -24 -21 -27 -6 -44 20 -23 12 -40 -19 -40 -28 0 -69 -37 -62 -57 3 -8 -3
-26 -14 -40 -11 -14 -20 -31 -20 -37 0 -13 -46 -36 -71 -36 -21 0 -40 22 -38
46 5 50 -1 63 -37 74 l-36 12 34 35 c30 31 31 35 16 44 -10 6 -18 17 -18 24 0
8 -4 15 -10 15 -5 0 -10 -5 -10 -11 0 -6 -12 -20 -26 -31 -14 -12 -30 -31 -34
-44 -5 -13 -16 -24 -25 -24 -8 0 -23 -17 -33 -38 l-19 -39 26 5 c14 3 35 11
46 18 11 8 23 14 27 14 15 0 8 -27 -12 -45 -16 -14 -29 -16 -74 -11 -33 5 -57
3 -60 -3 -4 -5 -32 -22 -64 -38 -31 -15 -59 -29 -61 -31 -3 -1 1 -8 7 -14 9
-9 18 -9 37 0 25 11 26 11 19 -10 -3 -12 -15 -30 -24 -41 -20 -20 -30 -19
-157 16 -29 7 -55 12 -58 9 -10 -10 -5 -82 6 -82 6 0 9 -7 6 -14 -7 -17 5 -22
81 -31 31 -4 56 -13 59 -21 3 -8 13 -14 23 -14 10 0 20 -7 24 -15 8 -21 19
-19 62 10 20 14 49 25 63 25 15 0 31 4 37 10 13 13 84 16 92 3 4 -6 22 -14 41
-18 28 -6 31 -9 18 -17 -11 -5 -24 -5 -37 2 -16 8 -22 8 -26 -4 -3 -8 -12 -12
-19 -10 -30 12 -26 -20 8 -54 30 -30 38 -33 51 -23 13 11 16 11 16 -2 0 -9 14
-25 30 -37 17 -12 30 -30 30 -41 0 -18 55 -51 90 -53 22 -1 24 -49 3 -75 -12
-14 -31 -24 -53 -25 -19 -2 -41 -5 -49 -7 -9 -2 -19 7 -25 23 -8 23 -7 30 9
42 17 12 17 13 -8 20 -17 4 -29 15 -33 31 -3 14 -10 25 -15 25 -5 0 -9 7 -9
15 0 18 -12 19 -28 3 -18 -18 -30 0 -36 56 -5 54 -20 79 -30 50 -3 -11 -27
-28 -52 -39 -26 -11 -57 -28 -70 -38 -17 -13 -37 -17 -76 -15 l-53 3 3 -30 c3
-36 0 -39 -61 -88 -63 -51 -77 -45 -77 33 0 59 1 60 28 60 34 1 69 29 74 61 2
14 17 32 35 44 42 26 41 35 -2 35 -19 0 -35 5 -35 10 0 16 -27 12 -34 -5 -3
-9 0 -24 6 -35 11 -17 8 -24 -22 -55 -38 -39 -69 -49 -48 -15 16 25 5 35 -23
19 -13 -6 -39 -12 -58 -13 -34 -1 -43 -11 -56 -63 0 -1 -13 -5 -29 -9 -20 -5
-27 -3 -22 4 3 6 -3 13 -14 17 -11 3 -20 12 -20 19 0 9 -15 11 -52 8 -47 -4
-56 -1 -82 23 -28 26 -30 26 -43 9 -17 -23 -16 -33 2 -40 8 -4 15 -16 15 -28
0 -12 18 -41 40 -65 22 -23 40 -46 40 -49 0 -4 -9 -13 -19 -19 -16 -10 -27 -9
-55 2 -47 20 -61 19 -91 -7 -31 -27 -31 -33 -1 -73 31 -40 49 -106 41 -148 -6
-30 -3 -34 30 -50 43 -20 37 -41 -8 -32 -44 8 -16 -11 36 -25 43 -12 48 -25
11 -34 -19 -5 -33 0 -55 19 -17 14 -40 25 -51 25 -26 0 -98 73 -98 100 0 12 9
24 20 28 20 8 20 8 -4 31 -16 15 -33 21 -52 19 -26 -3 -30 -8 -35 -45 -5 -40
-4 -42 26 -47 33 -7 62 -50 64 -98 1 -25 -1 -26 -34 -21 -34 5 -35 4 -35 -26
0 -17 4 -31 8 -31 12 0 53 -80 46 -91 -3 -5 -12 -9 -20 -9 -30 0 -17 -16 58
-73 42 -32 41 -57 -1 -57 -15 0 -36 -6 -46 -14 -18 -13 -18 -15 -2 -30 9 -9
14 -22 11 -30 -3 -7 2 -19 11 -26 21 -17 19 -40 -4 -40 -11 0 -26 -9 -34 -20
-8 -11 -17 -17 -20 -13 -11 10 -8 41 4 45 9 3 8 11 -2 28 l-14 25 -3 -22 c-6
-43 -81 -69 -122 -43 -9 6 -17 5 -22 -3 -6 -9 -10 -8 -18 3 -8 13 -12 11 -27
-10 -10 -14 -18 -34 -18 -45 0 -17 -6 -20 -47 -18 -44 1 -48 -1 -48 -23 0 -28
13 -30 64 -9 39 16 56 13 56 -10 0 -21 67 -30 107 -16 30 11 36 11 48 -6 17
-22 19 -33 5 -33 -5 0 -10 -11 -10 -25 0 -18 -7 -26 -25 -31 l-25 -6 23 -18
c12 -10 27 -15 32 -10 19 14 75 17 75 4 0 -7 -5 -16 -11 -20 -8 -5 -6 -10 5
-16 9 -5 16 -17 16 -27 0 -14 -6 -17 -29 -13 -16 2 -39 -1 -51 -8 l-22 -12 21
-15 c13 -8 38 -13 62 -12 30 3 43 -1 50 -14 6 -9 17 -17 24 -17 9 0 15 -10 15
-24 0 -13 5 -26 12 -28 9 -3 6 -15 -9 -39 -11 -20 -23 -61 -27 -92 -8 -58 -30
-87 -66 -87 -10 0 -15 -10 -16 -32 -1 -18 -9 -37 -20 -45 -23 -17 -88 -35
-131 -37 -18 -1 -38 -7 -45 -14 -23 -23 -39 -14 -36 23 1 24 6 33 18 32 16 -2
20 3 20 29 0 13 -7 15 -30 11 -30 -6 -51 7 -28 17 7 3 1 3 -14 0 -18 -4 -40 1
-63 15 -20 12 -37 21 -39 21 -2 0 -3 -17 -2 -37 1 -37 2 -38 34 -35 26 3 34
-1 41 -21 5 -13 15 -27 23 -29 8 -4 13 -23 13 -54 l0 -49 -55 -3 -55 -2 -31
57 c-19 37 -41 63 -61 73 -16 8 -38 23 -47 33 -23 23 -46 22 -46 -3 0 -29 -30
-38 -46 -14 -7 10 -20 26 -29 35 -8 9 -13 23 -10 32 4 10 -1 17 -14 22 -12 3
-21 11 -21 17 0 7 -16 9 -45 5 -38 -6 -46 -3 -60 15 -8 13 -15 17 -15 10 0
-23 -30 -12 -36 13 -5 19 -13 25 -34 25 -25 0 -40 15 -40 40 0 5 14 16 32 24
30 15 33 15 53 -4 12 -11 25 -20 30 -20 4 0 14 -8 21 -17 10 -14 15 -15 25 -6
18 17 -10 88 -35 88 -10 0 -26 10 -36 23 -10 12 -29 22 -43 22 -19 0 -26 -6
-31 -30 -7 -36 -28 -47 -62 -32 -32 15 -31 43 4 83 22 27 27 42 25 82 0 27 -6
54 -12 60 -16 16 -14 37 4 37 11 0 15 11 15 35 0 22 -6 38 -15 41 -8 4 -15 18
-15 34 0 31 -21 45 -39 27 -10 -9 -16 -7 -27 8 -18 24 -12 70 13 97 15 16 18
17 33 3 16 -14 18 -14 23 7 9 33 -39 57 -70 34 -19 -13 -40 9 -47 50 -8 42 0
74 19 74 25 0 84 -34 85 -49 0 -7 6 -11 14 -8 8 3 17 1 20 -6 2 -7 4 -1 3 12
-1 13 4 26 12 29 10 3 13 -2 9 -23 -5 -22 -3 -26 13 -22 11 3 19 0 19 -7 0 -7
18 -27 39 -44 63 -51 93 -40 66 24 -20 48 -12 72 41 123 24 24 41 47 38 52 -3
5 -2 14 1 19 8 13 46 -7 44 -23 -4 -35 12 -60 34 -51 9 3 17 12 17 20 0 8 4
14 9 14 12 0 -14 52 -36 73 -16 13 -23 14 -56 2 -32 -11 -43 -11 -64 0 -36 19
-46 9 -39 -34 4 -27 0 -45 -15 -70 -14 -24 -17 -37 -10 -44 17 -17 13 -31 -14
-43 -20 -10 -27 -9 -41 7 -9 11 -13 19 -9 19 4 0 0 9 -9 19 -17 18 -17 21 -1
45 11 16 13 26 6 26 -15 0 -14 37 2 43 9 3 9 9 0 24 -6 12 -8 25 -3 34 7 11
10 10 16 -4 9 -24 23 -21 36 8 9 19 14 22 29 15 22 -12 70 -13 51 -1 -7 4 -12
14 -10 22 2 8 -18 24 -51 40 -33 16 -50 29 -43 33 16 10 15 26 -2 26 -7 0 -16
11 -18 25 -6 27 6 34 16 10 5 -13 9 -13 26 -3 11 7 20 19 20 26 0 8 7 11 18 8
12 -4 26 2 40 17 31 33 20 57 -25 57 -29 0 -42 -8 -73 -42 l-38 -43 -21 25
c-17 21 -20 22 -21 7 0 -11 -6 -17 -12 -14 -7 2 -12 16 -10 31 1 14 -2 26 -8
26 -5 0 -10 6 -10 14 0 23 -60 47 -85 33 -23 -13 -97 -19 -90 -7 6 9 -60 -23
-78 -39 -7 -5 -22 -10 -32 -10 -35 -1 -85 -13 -85 -21 0 -23 -178 -98 -201
-84 -6 3 -29 0 -52 -7 -31 -10 -41 -11 -45 -1 -5 17 -67 15 -82 -3 -7 -9 -21
-13 -34 -9 -15 3 -28 -3 -44 -21 -17 -20 -30 -25 -47 -21 -18 5 -24 1 -29 -18
-10 -39 -45 -44 -72 -11 -21 27 -22 30 -6 51 19 26 60 32 68 9 13 -34 19 -11
14 55 -5 64 -3 70 17 81 17 9 26 9 37 0 10 -9 16 -9 21 -1 4 6 13 9 20 6 8 -3
19 2 26 10 11 14 13 13 21 0 5 -9 6 -21 3 -26 -9 -15 0 -12 40 10 20 11 47 20
60 20 16 0 25 6 25 15 0 10 -10 15 -30 15 -17 0 -30 5 -30 13 0 9 -2 9 -8 0
-5 -8 -28 -11 -67 -8 -77 5 -86 7 -119 29 -27 17 -28 17 -50 -3 -26 -24 -48
-28 -40 -6 4 8 2 15 -4 15 -22 0 -42 -13 -42 -26 0 -19 -36 -18 -44 1 -3 8 -3
22 1 31 5 15 3 15 -25 0 -38 -20 -68 -20 -79 -2 -4 8 -19 16 -33 18 -20 2 -24
8 -22 28 2 24 22 44 32 33 3 -3 -1 -8 -7 -10 -25 -9 -13 -23 20 -23 21 0 42 9
60 25 15 14 27 21 27 15 0 -7 17 -8 50 -4 42 6 50 4 50 -10 0 -18 8 -20 29 -7
7 5 11 15 9 22 -8 22 11 51 29 45 19 -8 53 2 53 15 0 5 -9 9 -21 9 -12 0 -23
8 -26 19 -6 22 -43 17 -43 -5 0 -8 -4 -14 -10 -14 -5 0 -10 -7 -10 -16 0 -11
-5 -14 -16 -10 -11 4 -22 -1 -31 -14 -18 -25 -30 -25 -87 0 -30 13 -48 16 -52
8 -5 -7 -9 -7 -13 1 -5 7 -14 6 -29 -5 -12 -8 -20 -20 -17 -25 4 -5 1 -9 -4
-9 -6 0 -11 15 -12 33 l-1 32 -8 -28 c-15 -49 -28 -59 -51 -36 -24 24 -24 35
-1 48 15 9 15 12 2 21 -13 9 -13 11 0 20 20 13 44 12 58 -2 16 -16 28 -2 12
16 -6 9 -10 21 -7 28 2 7 0 21 -5 32 -8 15 -17 17 -49 12 -34 -6 -39 -4 -39
14 0 23 -18 27 -26 5 -4 -8 -12 -15 -19 -15 -18 0 -26 25 -12 39 22 22 -3 23
-40 1 -23 -14 -39 -18 -41 -11 -2 6 -10 11 -18 11 -8 0 -14 5 -14 11 0 7 12 9
34 5 24 -5 35 -2 39 7 4 10 -1 13 -19 9 -26 -5 -31 7 -12 26 7 7 10 12 7 13
-34 6 -109 5 -119 -1 -11 -7 -11 -11 0 -24 15 -19 16 -18 -31 -34 -43 -15 -52
-15 -44 -2 4 6 -5 20 -19 31 -14 11 -26 26 -26 33 0 7 -9 21 -21 32 -16 15
-19 25 -14 54 7 39 25 63 32 43 3 -7 10 -13 18 -13 10 0 10 10 3 47 -8 33 -7
52 1 65 6 10 11 43 11 73 0 37 4 54 11 50 10 -7 49 30 49 47 0 16 33 4 36 -12
3 -21 23 -70 28 -70 2 0 3 8 2 18 -1 11 5 16 17 14 19 -3 23 19 7 49 -8 14 -7
25 3 39 17 24 27 16 27 -22 0 -15 4 -28 10 -28 12 0 22 37 18 65 -2 11 0 20 3
20 3 0 14 6 23 14 21 17 35 6 42 -35 9 -53 15 -65 32 -62 12 3 16 12 14 28 -7
61 0 176 12 188 11 11 49 21 101 25 29 3 31 -43 5 -97 -11 -24 -18 -50 -15
-58 8 -19 53 -44 62 -34 4 4 8 36 8 72 1 71 6 79 50 88 23 5 36 2 52 -13 11
-11 24 -17 27 -14 3 4 6 -3 6 -15 0 -12 4 -21 10 -19 5 1 27 -18 48 -42 32
-37 41 -43 57 -34 15 9 22 7 31 -5 10 -14 17 -15 42 -6 17 7 43 10 60 8 23 -3
31 2 40 21 6 14 9 32 6 40 -4 9 0 15 7 16 8 1 23 2 34 3 25 1 32 52 12 80 -14
18 -16 19 -31 3 -9 -9 -23 -14 -31 -11 -9 4 -15 0 -15 -10 0 -8 -14 -23 -31
-31 -46 -24 -85 -11 -122 41 -17 24 -38 44 -47 44 -9 0 -30 11 -46 25 -16 14
-32 25 -35 25 -4 0 -9 7 -12 15 -5 11 -1 12 20 4 14 -5 51 -8 83 -5 51 3 59 1
63 -15 3 -11 14 -19 25 -19 24 0 37 16 22 25 -5 3 -10 18 -10 32 0 15 -12 36
-30 53 -19 17 -32 40 -33 58 -2 24 -6 29 -30 29 -16 0 -32 4 -35 9 -4 6 -34
10 -67 11 -35 0 -61 5 -63 12 -2 6 -14 11 -26 11 -15 0 -27 9 -35 26 -15 33
-10 38 42 40 23 0 52 4 65 9 19 6 24 4 29 -14 6 -25 44 -29 63 -6 11 13 10 14
-5 9 -13 -5 -16 -2 -13 12 2 11 17 23 35 29 42 14 55 27 23 25 -54 -5 -70 0
-70 19 0 25 -18 37 -33 22 -13 -13 -70 -15 -95 -2 -9 5 -29 14 -44 20 -27 10
-27 11 -14 48 8 21 18 37 24 36 5 -1 13 18 17 42 7 49 23 57 59 30 29 -22 56
-19 56 5 0 13 -7 20 -18 20 -22 0 -52 31 -81 83 -25 44 -27 70 -6 87 8 7 15
21 15 31 0 11 5 19 10 19 6 0 10 9 10 20 0 13 5 18 15 14 11 -5 15 1 15 23 0
28 15 53 32 53 4 0 8 -9 8 -21 0 -11 5 -29 10 -39 6 -11 12 -42 14 -69 5 -66
11 -74 53 -66 24 4 42 1 60 -10 16 -11 34 -14 51 -10 24 6 25 8 9 17 -25 13
-4 38 32 38 39 0 106 -26 109 -43 3 -17 -43 -27 -128 -27 -51 -1 -53 -2 -35
-15 109 -80 109 -125 -1 -125 -69 0 -86 -14 -28 -23 49 -8 94 -29 94 -44 0
-16 -66 -59 -102 -67 -17 -4 -32 -1 -42 10 -9 8 -20 12 -26 9 -5 -3 -10 3 -10
14 0 12 5 21 10 21 6 0 10 7 10 15 0 8 -5 15 -11 15 -7 0 -9 9 -6 21 5 18 2
20 -26 13 -40 -8 -44 -11 -29 -26 21 -21 14 -46 -16 -53 -16 -3 -29 -12 -29
-20 0 -9 5 -11 15 -6 14 8 56 -1 94 -20 10 -5 27 -9 38 -9 11 0 25 -9 32 -20
7 -11 21 -20 30 -20 13 0 18 -8 18 -30 0 -20 5 -30 15 -30 19 0 41 -36 49 -81
7 -42 0 -69 -20 -69 -8 0 -14 -4 -14 -10 0 -5 -7 -10 -15 -10 -8 0 -15 -7 -15
-15 0 -20 20 -19 35 1 9 13 21 15 53 9 35 -6 43 -11 48 -33 4 -15 17 -44 31
-64 14 -20 22 -42 18 -47 -3 -6 2 -14 12 -18 31 -11 53 -35 53 -59 0 -13 5
-26 10 -29 6 -3 10 3 10 14 0 11 11 33 25 49 22 26 23 33 14 67 -10 34 -8 40
17 67 38 39 79 59 93 45 22 -22 12 -48 -23 -62 -33 -14 -56 -35 -39 -35 11 0
34 -51 27 -61 -3 -5 2 -9 10 -9 20 0 20 -29 1 -54 -23 -30 -18 -45 26 -88 31
-30 38 -42 28 -49 -10 -6 -6 -11 14 -18 16 -6 34 -11 41 -11 24 0 53 -44 53
-82 1 -36 -1 -38 -40 -49 -31 -9 -53 -9 -85 0 -23 6 -51 11 -62 11 -11 0 -20
4 -20 8 0 5 -12 12 -27 18 -21 7 -37 4 -69 -11 -24 -11 -43 -24 -44 -28 0 -10
53 -57 84 -74 21 -11 21 -12 1 -20 -11 -4 -47 -8 -81 -8 -56 0 -60 -1 -56 -21
2 -12 -1 -25 -7 -28 -6 -4 -11 -18 -11 -32 0 -22 -4 -24 -43 -24 -42 0 -43 0
-57 -47 -8 -27 -14 -55 -15 -64 0 -9 -5 -23 -11 -30 -14 -18 -25 -49 -18 -49
3 0 20 11 37 24 23 18 37 22 47 16 8 -5 25 -10 36 -10 12 0 27 -7 34 -15 7 -8
28 -17 49 -21 20 -3 41 -12 46 -19 6 -7 28 -15 50 -18 69 -9 99 -19 120 -38
20 -18 21 -18 48 7 34 31 29 57 -19 97 -19 16 -34 37 -34 48 0 21 10 25 27 8
11 -11 93 7 104 24 10 14 -1 45 -17 51 -9 4 -12 15 -8 35 l6 30 -56 -6 c-46
-5 -56 -3 -56 9 0 21 18 34 57 41 25 5 41 1 69 -18 43 -29 66 -32 63 -7 -3 34
1 41 19 35 21 -7 49 -40 62 -70 11 -27 36 -30 44 -5 8 23 67 62 95 62 12 0 31
-9 43 -20 12 -11 30 -20 40 -20 10 0 18 -7 18 -15 0 -16 42 -30 65 -21 21 8
19 33 -4 45 -10 6 -21 19 -24 30 -4 17 2 19 64 23 57 3 73 8 96 30 15 14 39
28 53 30 14 2 24 9 22 16 -1 7 4 23 13 35 19 27 19 63 0 71 -29 11 -16 28 15
21 17 -4 30 -4 30 -1 0 3 -13 12 -30 21 -34 18 -39 41 -11 50 24 7 113 -13
123 -28 5 -9 10 -9 20 1 20 20 -16 36 -84 39 -61 2 -118 30 -118 58 0 8 -21
24 -47 36 -73 32 -77 38 -47 61 21 17 34 19 76 14 27 -4 55 -3 61 2 24 19 92
19 157 0 44 -14 65 -17 68 -9 2 7 16 1 34 -14 30 -26 58 -33 58 -15 0 6 -7 13
-15 16 -13 5 -13 9 0 34 20 39 20 40 -15 40 -27 0 -30 2 -24 25 7 28 -2 31
-31 12 -32 -22 -66 -27 -72 -11 -3 8 -11 14 -18 14 -7 0 -18 7 -25 15 -11 13
-16 11 -39 -14 -33 -36 -91 -52 -159 -47 -59 5 -72 11 -72 32 0 8 -4 14 -10
14 -11 0 -1 -32 14 -42 12 -8 -11 -38 -30 -38 -8 0 -14 -7 -14 -15 0 -16 -42
-31 -59 -21 -11 7 -51 -40 -51 -60 0 -17 -52 -19 -83 -3 -12 6 -33 22 -47 34
-14 13 -36 25 -50 27 -20 2 -25 9 -26 32 -1 20 -11 38 -33 56 -17 15 -31 36
-31 48 0 25 -37 44 -78 40 -20 -2 -27 3 -36 27 -7 19 -17 29 -26 28 -8 -2 -20
6 -25 18 -6 12 -17 26 -25 30 -8 3 -27 12 -42 20 -16 7 -28 20 -28 31 0 25 57
50 82 37 14 -7 18 -6 18 5 0 8 6 19 13 23 8 4 16 15 20 25 3 9 18 22 34 30 17
8 29 23 31 38 2 13 11 30 20 37 10 7 13 13 8 13 -6 0 -21 -10 -34 -22 -14 -13
-22 -17 -17 -10 10 18 -13 59 -36 65 -21 6 -25 37 -8 54 13 13 -35 86 -67 101
-17 8 -20 17 -16 42 5 32 4 32 -32 28 -25 -3 -36 0 -36 9 0 7 -7 13 -15 13
-23 0 -18 26 9 44 64 41 139 51 175 22 11 -9 13 -7 7 11 -5 16 -2 25 13 32 27
15 41 14 35 -3 -5 -14 23 -26 64 -26 15 0 26 -7 29 -19 5 -19 36 -34 47 -23 3
3 6 13 6 23 0 16 9 18 100 15 65 -3 106 -9 117 -17 13 -11 17 -11 20 -1 3 6
19 12 37 12 30 0 33 3 29 24 -3 14 -16 34 -28 46 -21 20 -28 21 -56 11 -18 -6
-48 -8 -66 -5 -25 5 -39 2 -53 -11 -10 -9 -27 -15 -37 -12 -10 3 -30 8 -45 11
-16 4 -28 13 -28 20 0 8 -9 24 -20 37 -19 23 -21 23 -34 7 -31 -41 -120 -8
-136 52 -12 44 -12 81 -1 99 8 12 14 13 36 3 21 -10 26 -10 23 0 -3 7 -22 19
-44 26 -21 7 -45 19 -53 27 -18 18 -8 43 20 47 35 5 34 27 -3 43 -31 14 -32
15 -10 21 21 6 41 48 28 61 -8 8 -36 -17 -36 -33 0 -22 -37 -54 -62 -54 -31
-1 -58 -23 -58 -48 0 -11 -5 -24 -11 -27 -5 -4 -14 -18 -19 -31 -13 -33 -46
-31 -80 6 -15 17 -32 30 -37 30 -6 0 -15 -19 -22 -41 -12 -41 -13 -41 -49 -34
-92 17 -126 -2 -135 -75 -3 -28 -2 -61 3 -74 10 -28 5 -36 -24 -36 -48 1 -103
86 -92 142 9 46 66 99 124 113 39 10 50 18 65 48 16 34 30 42 65 38 8 -1 20 3
27 9 7 6 19 10 27 9 40 -7 96 31 122 82 6 12 25 27 41 32 17 5 40 19 53 30 12
12 35 22 50 23 15 1 36 2 48 3 12 0 38 13 59 27 40 27 41 27 135 0 30 -8 67
-18 83 -21 16 -3 27 -12 27 -21 0 -11 -5 -14 -17 -10 -10 4 -25 -2 -39 -15
-22 -21 -25 -21 -42 -6 -27 24 -93 22 -115 -3 -17 -20 -17 -22 3 -50 11 -15
20 -33 20 -39 0 -6 6 -11 13 -11 17 1 47 25 47 39 0 6 17 11 40 11 38 0 54
-13 28 -23 -9 -3 -5 -13 12 -30 37 -38 119 -51 380 -60 63 -2 105 -9 125 -19
77 -42 100 -49 117 -39 23 14 28 14 28 -3 0 -16 77 -76 97 -76 16 0 17 16 2
25 -6 4 -8 13 -5 21 3 7 1 16 -4 19 -15 9 -12 25 4 25 17 0 70 -49 79 -72 7
-20 27 -24 27 -7 0 6 6 9 14 6 20 -8 26 38 9 63 -8 11 -10 20 -4 20 6 0 8 12
5 29 -4 16 -1 32 5 36 8 4 9 24 5 57 l-7 51 28 -7 c24 -6 27 -5 20 11 -15 37
-17 64 -5 79 10 11 13 48 11 129 -2 86 1 119 12 137 23 35 32 109 16 119 -11
7 -11 13 4 38 9 16 17 47 17 70 0 22 6 44 13 48 9 5 13 34 14 88 1 100 13 206
24 221 5 6 11 39 14 74 3 35 9 68 13 74 3 6 7 39 8 73 1 34 6 68 11 75 17 27
45 217 50 336 4 94 8 125 19 129 9 3 14 19 14 42 0 21 3 41 8 45 4 4 8 27 9
49 2 50 13 108 23 122 4 6 13 26 19 47 7 20 18 39 26 42 21 8 19 38 -2 34 -15
-3 -18 5 -18 52 1 70 41 162 68 156 10 -2 17 2 17 9 0 8 4 16 9 19 12 8 63
-79 59 -100 -2 -10 3 -19 11 -22 24 -8 6 86 -31 158 -18 36 -36 66 -40 68 -4
2 -3 11 2 20 5 9 11 29 15 45 5 27 27 35 52 19z m223 -170 c0 -9 -5 -24 -10
-32 -7 -11 -10 -5 -10 23 0 23 4 36 10 32 6 -3 10 -14 10 -23z m-760 -572 c0
-5 -2 -10 -4 -10 -3 0 -8 5 -11 10 -3 6 -1 10 4 10 6 0 11 -4 11 -10z m2027
-262 c-3 -7 -5 -2 -5 12 0 14 2 19 5 13 2 -7 2 -19 0 -25z m-2181 -745 c-7 -7
-26 7 -26 19 0 6 6 6 15 -2 9 -7 13 -15 11 -17z m1229 -832 c3 -5 1 -13 -5
-16 -15 -9 -43 3 -35 15 8 13 32 13 40 1z m-1097 -120 c3 -8 -1 -12 -9 -9 -7
2 -15 10 -17 17 -3 8 1 12 9 9 7 -2 15 -10 17 -17z m1559 -197 c-3 -3 -12 -4
-19 -1 -8 3 -5 6 6 6 11 1 17 -2 13 -5z m-3111 -95 c19 -21 19 -21 -6 -18 -14
2 -26 12 -28 22 -5 23 11 22 34 -4z m269 -19 c25 -10 25 -10 9 -41 -18 -35
-29 -30 -39 19 -7 36 -7 36 30 22z m-307 -12 c7 -7 12 -20 12 -30 0 -14 -4
-13 -25 8 -14 14 -25 27 -25 29 0 10 26 5 38 -7z m82 -24 c0 -9 -5 -14 -12
-12 -18 6 -21 28 -4 28 9 0 16 -7 16 -16z m1925 -334 c3 -5 1 -10 -4 -10 -6 0
-11 5 -11 10 0 6 2 10 4 10 3 0 8 -4 11 -10z m-105 -23 c0 -12 8 -27 19 -34
10 -6 21 -23 23 -38 4 -20 1 -28 -15 -34 -20 -8 -20 -9 9 -26 16 -11 30 -20
32 -20 5 -3 -20 -65 -26 -65 -4 0 -15 7 -25 15 -11 7 -25 11 -32 9 -7 -3 -24
5 -38 18 -34 31 -27 75 12 80 20 2 25 8 23 23 -2 11 -7 21 -10 23 -31 12 -36
21 -24 46 15 34 52 36 52 3z m-1739 -129 c7 -13 11 -23 10 -23 -1 0 1 -8 4
-17 7 -19 -10 -58 -27 -58 -6 0 -8 11 -5 30 5 22 1 35 -14 49 -22 20 -18 41 6
41 8 0 20 -10 26 -22z m1485 -80 c34 -32 31 -54 -8 -62 -26 -5 -30 -9 -18 -16
21 -13 6 -12 -25 2 -30 14 -32 29 -5 53 11 10 20 24 20 32 0 19 9 16 36 -9z
m-1292 -67 c26 -27 27 -30 10 -39 -23 -12 -44 -5 -44 14 0 9 -11 14 -29 14
-53 0 -83 23 -43 33 48 13 79 6 106 -22z m-1407 -17 c-3 -3 -12 -4 -19 -1 -8
3 -5 6 6 6 11 1 17 -2 13 -5z m927 -4 c31 -11 34 -35 6 -50 -25 -14 -60 3 -60
29 0 32 13 37 54 21z m-834 -10 c0 -5 -11 -10 -25 -10 -14 0 -25 5 -25 10 0 6
11 10 25 10 14 0 25 -4 25 -10z m2790 -11 c0 -5 -4 -9 -10 -9 -5 0 -10 7 -10
16 0 8 5 12 10 9 6 -3 10 -10 10 -16z m-1196 -215 c9 -8 16 -20 16 -25 0 -5 6
-9 13 -9 6 0 23 -9 37 -20 20 -15 22 -22 13 -31 -10 -10 -21 -10 -54 0 -30 9
-44 10 -49 2 -4 -8 -17 -7 -43 4 -20 8 -46 15 -58 15 -18 0 -20 4 -14 27 9 36
19 42 66 36 25 -4 39 -2 39 6 0 16 16 14 34 -5z m1286 -44 c0 -5 -4 -10 -9
-10 -6 0 -13 5 -16 10 -3 6 1 10 9 10 9 0 16 -4 16 -10z m-90 -21 c0 -5 -4 -9
-10 -9 -5 0 -10 7 -10 16 0 8 5 12 10 9 6 -3 10 -10 10 -16z m-1210 -59 c0
-21 -10 -24 -47 -14 -41 11 -25 26 35 33 6 0 12 -8 12 -19z m75 -40 c-3 -5
-28 -10 -56 -10 -27 0 -49 5 -49 10 0 6 25 10 56 10 34 0 53 -4 49 -10z m45
-140 l25 -7 -27 -11 c-16 -6 -28 -18 -28 -26 0 -21 -50 -58 -64 -48 -6 5 -29
10 -51 11 -21 1 -40 3 -42 4 -1 2 -4 19 -5 38 -3 33 -2 34 42 40 64 8 121 8
150 -1z m2163 -17 c12 -11 -14 -33 -39 -33 -28 0 -31 15 -6 29 20 12 36 14 45
4z m22 -92 c9 -15 -23 -28 -56 -23 -24 3 -27 7 -18 18 13 16 65 19 74 5z m179
-136 c3 -8 11 -15 19 -15 7 0 18 -5 25 -12 7 -7 29 -13 49 -14 20 0 41 -7 47
-16 6 -8 37 -29 68 -48 58 -35 67 -50 68 -110 0 -19 7 -46 15 -60 8 -14 14
-37 15 -52 0 -15 4 -29 9 -32 4 -3 9 -35 9 -71 1 -51 6 -72 22 -93 16 -20 21
-38 19 -73 -2 -27 3 -54 10 -62 10 -13 8 -18 -10 -31 -20 -14 -21 -21 -16 -84
6 -74 -2 -97 -50 -135 -13 -10 -23 -25 -23 -32 0 -8 -8 -18 -17 -24 -16 -8
-15 -11 6 -28 31 -25 20 -66 -25 -94 -39 -24 -37 -20 -24 -54 10 -25 9 -26
-25 -19 -35 6 -35 6 -29 -25 9 -44 -18 -52 -55 -17 -32 31 -41 33 -41 7 0 -11
12 -28 27 -39 34 -25 25 -38 -15 -24 -21 7 -33 7 -41 -1 -6 -6 -28 -12 -48
-14 -21 -1 -43 -9 -49 -18 -14 -19 -38 -19 -53 -2 -13 16 -5 27 21 27 10 0 18
5 18 11 0 7 -10 9 -27 5 -87 -21 -142 -25 -168 -12 -24 13 -25 15 -9 24 24 13
8 32 -27 32 -41 0 -119 20 -119 31 0 5 5 9 11 9 7 0 9 10 5 24 -7 27 11 46 24
26 5 -7 15 -10 25 -6 32 12 6 20 -73 22 -111 3 -114 3 -107 14 3 6 3 20 0 31
-5 15 -13 19 -27 16 -24 -7 -75 10 -107 35 l-24 18 44 20 44 20 -42 0 c-32 0
-43 4 -43 15 0 8 -7 15 -15 15 -8 0 -15 -7 -15 -17 0 -15 -2 -15 -17 -1 -10 9
-37 19 -60 23 -42 7 -63 29 -37 39 8 3 14 15 14 26 0 25 0 25 72 -1 32 -11 66
-19 76 -16 10 2 -2 9 -29 16 -31 9 -54 23 -68 42 l-22 29 26 10 c13 5 32 7 40
4 19 -8 19 0 0 35 -16 33 -12 41 23 41 20 0 22 -2 12 -15 -15 -18 -4 -53 18
-57 22 -5 72 11 72 23 0 5 -8 9 -19 9 -21 0 -45 23 -34 33 3 4 1 7 -5 7 -21 0
-13 16 13 28 14 7 36 12 48 12 13 0 28 5 35 12 6 6 35 12 64 13 62 2 98 18 98
45 0 25 6 28 81 35 74 8 103 -5 93 -42 -4 -13 -12 -23 -19 -23 -7 0 -15 -6
-17 -12 -4 -10 -11 -10 -34 0 -19 9 -25 9 -18 2 9 -9 5 -23 -13 -56 l-24 -43
33 -21 c42 -25 42 -25 62 5 9 14 32 31 50 39 19 8 39 24 46 35 12 23 1 28 -18
9 -9 -9 -11 -5 -11 18 1 16 -4 51 -10 79 -8 34 -8 51 -1 53 6 2 8 8 5 12 -3 5
-3 21 1 35 6 23 10 26 33 20 14 -3 31 -13 37 -21 6 -8 26 -19 43 -25 26 -9 35
-8 49 4 42 38 127 58 149 36 13 -13 -2 -56 -25 -75 -12 -8 -12 -20 -2 -67 6
-32 18 -63 26 -70 9 -7 23 -20 32 -29 19 -20 42 -24 42 -6 0 6 7 19 16 29 8 9
19 45 24 79 9 65 22 90 49 90 13 1 13 3 -3 15 -11 8 -28 15 -38 15 -24 0 -23
32 1 54 25 22 45 71 37 91 -7 19 -30 19 -45 1 -16 -19 -51 -8 -51 15 0 11 -4
19 -9 19 -14 0 -18 32 -8 62 14 45 5 49 -41 20 -30 -20 -51 -27 -72 -24 -29 4
-29 5 -24 53 6 52 -1 89 -17 89 -5 0 -9 -8 -9 -18 0 -11 -8 -25 -17 -33 -23
-18 -64 -41 -67 -37 -1 2 -7 27 -13 56 -8 46 -8 55 6 59 38 12 64 29 69 46 5
21 18 22 26 2z m-2899 -17 c-3 -13 -12 -27 -22 -33 -9 -5 -27 -20 -40 -32 -29
-28 -29 -28 -36 -3 -3 13 0 20 10 20 9 0 13 8 11 22 -2 18 4 25 32 35 48 16
49 16 45 -9z m-1076 -86 c-19 -7 -7 -42 29 -82 37 -42 47 -67 25 -62 -7 1 -13
-7 -13 -18 0 -17 4 -19 26 -14 22 6 25 4 22 -12 -5 -29 -64 -31 -94 -3 -26 24
-31 54 -11 63 6 3 2 3 -10 1 -20 -6 -21 -3 -19 74 1 63 5 83 21 101 l20 22 7
-34 c4 -18 2 -34 -3 -36z m221 -69 c17 -29 18 -38 8 -44 -31 -20 -49 -1 -41
44 3 20 7 37 8 37 2 0 13 -16 25 -37z m2965 -53 c-3 -5 -10 -10 -16 -10 -5 0
-9 5 -9 10 0 6 7 10 16 10 8 0 12 -4 9 -10z m-139 -10 c8 0 14 -5 14 -11 0
-15 -53 -6 -58 10 -3 10 0 12 12 8 10 -4 24 -7 32 -7z m62 -124 c-3 -51 -3
-51 -38 -52 -73 -3 -86 16 -55 77 14 26 21 29 56 27 l40 -2 -3 -50z m-3090
-11 c7 -15 20 -25 32 -25 11 0 20 -4 20 -10 0 -19 -59 -11 -70 10 -6 12 -21
20 -35 20 -18 0 -25 6 -25 18 0 10 3 21 6 25 12 11 62 -15 72 -38z m352 35 c0
-12 -28 -25 -36 -17 -9 9 6 27 22 27 8 0 14 -5 14 -10z m2890 -21 c0 -12 -37
-12 -44 0 -7 11 14 20 32 13 6 -2 12 -8 12 -13z m344 3 c2 -4 0 -14 -5 -22 -8
-13 -10 -13 -19 0 -5 8 -10 18 -10 23 0 10 28 9 34 -1z m791 -73 c5 -5 -4 -9
-22 -9 -39 0 -65 9 -58 21 7 10 65 1 80 -12z m-527 -14 c-3 -3 -9 2 -12 12 -6
14 -5 15 5 6 7 -7 10 -15 7 -18z m555 -30 c7 -16 -8 -29 -23 -20 -15 9 -12 35
4 35 8 0 16 -7 19 -15z m-4403 -50 c10 -12 10 -15 -4 -15 -9 0 -16 7 -16 15 0
8 2 15 4 15 2 0 9 -7 16 -15z m1612 -13 c3 -9 2 -26 -2 -36 -6 -18 -7 -18 -24
-1 -16 17 -18 17 -30 0 -17 -23 -30 -4 -22 31 5 19 13 24 40 24 24 0 35 -5 38
-18z m2832 -175 c-3 -9 -10 -17 -15 -17 -11 0 -12 34 -2 43 11 12 24 -8 17
-26z m93 7 c2 -11 -8 -27 -22 -37 -21 -15 -25 -15 -25 -3 0 8 5 18 10 21 6 3
10 15 10 26 0 26 24 20 27 -7z m-4123 -42 c12 -24 11 -33 -10 -77 -19 -43 -23
-46 -23 -23 -1 33 -17 45 -24 18 -7 -26 -23 -25 -30 2 -9 33 44 125 64 112 5
-3 15 -17 23 -32z m4166 9 c0 -21 -13 -41 -26 -41 -17 0 -18 22 -2 38 14 14
28 16 28 3z m-1810 -43 c0 -12 -8 -10 -35 8 -36 23 -31 39 5 17 17 -9 30 -21
30 -25z m155 20 c46 -12 57 -33 17 -31 -12 0 -32 1 -44 2 -31 2 -52 16 -44 30
9 14 15 14 71 -1z m-1253 -95 c-5 -27 -6 -28 -26 -7 -21 21 -20 52 2 56 20 4
30 -16 24 -49z m1414 41 c0 -5 4 -17 8 -26 16 -36 0 -48 -64 -48 -45 0 -62 4
-66 15 -4 8 -15 15 -25 15 -13 0 -18 6 -17 23 2 19 8 22 50 24 40 2 46 0 41
-15 -5 -13 -1 -12 22 6 28 22 49 25 51 6z m-1481 -4 c3 -5 1 -10 -4 -10 -6 0
-11 5 -11 10 0 6 2 10 4 10 3 0 8 -4 11 -10z m1150 -10 c3 -5 1 -10 -4 -10 -6
0 -11 5 -11 10 0 6 2 10 4 10 3 0 8 -4 11 -10z m60 -42 c6 -6 0 -8 -19 -6 -16
2 -31 9 -34 17 -3 10 2 11 19 6 13 -4 29 -12 34 -17z m-1328 -44 c14 -22 14
-27 -2 -60 -9 -20 -30 -43 -46 -53 -37 -20 -36 -29 1 -42 19 -7 30 -18 30 -30
0 -23 20 -61 38 -72 6 -4 12 -17 12 -27 0 -10 5 -22 10 -25 6 -3 10 -19 10
-36 0 -22 5 -29 20 -29 11 0 20 -5 20 -11 0 -5 5 -7 10 -4 6 3 10 21 10 38 l1
32 14 -34 c20 -45 20 -75 0 -67 -12 4 -15 -2 -13 -29 1 -19 -1 -37 -5 -41 -12
-12 -65 17 -100 57 -30 32 -42 39 -74 39 -21 0 -33 4 -28 8 6 4 16 15 24 25
12 15 11 20 -4 37 -15 17 -16 23 -4 49 8 17 20 31 26 31 17 0 17 20 1 20 -7 0
-22 8 -33 16 -18 14 -19 16 -3 25 19 10 14 39 -7 39 -7 0 -18 -7 -25 -15 -9
-11 -16 -12 -26 -4 -9 7 -18 7 -33 0 -26 -15 -31 -14 -31 5 0 9 9 18 19 21 21
5 35 29 26 44 -3 4 -17 4 -32 -2 -23 -9 -30 -6 -49 18 -13 15 -23 33 -24 39 0
18 23 34 51 34 24 0 27 -4 25 -32 -1 -32 0 -33 42 -33 37 0 42 3 40 20 -2 13
-9 19 -20 17 -31 -5 -19 16 22 41 48 28 84 25 107 -9z m-1034 11 c1 -5 -6 -11
-15 -13 -11 -2 -18 3 -18 13 0 17 30 18 33 0z m90 -45 c-3 -12 -14 -20 -27
-20 -12 0 -27 -5 -33 -11 -7 -7 -13 -8 -17 0 -8 13 15 51 30 51 7 0 15 8 19
18 6 16 7 16 20 -1 7 -10 11 -27 8 -37z m1041 35 c-4 -8 -10 -12 -15 -9 -14 8
-10 24 6 24 9 0 12 -6 9 -15z m1274 -7 c4 -23 -36 -25 -44 -3 -4 8 -10 12 -15
9 -5 -3 -9 0 -9 6 0 19 64 7 68 -12z m110 -81 c2 -9 -1 -17 -7 -17 -5 0 -13
-9 -16 -20 -7 -22 -44 -28 -46 -7 -2 21 2 41 12 53 13 16 54 10 57 -9z m171
-25 c-13 -5 -59 25 -59 38 0 6 16 0 35 -12 19 -13 30 -25 24 -26z m-375 -18
c9 -3 16 -15 16 -25 0 -17 -3 -18 -20 -7 -11 7 -20 18 -20 25 0 15 2 15 24 7z
m679 -133 c11 -2 8 -41 -3 -41 -5 0 -10 -6 -10 -14 0 -21 -20 -24 -52 -8 -61
30 -13 77 65 63z m-2057 -15 c7 -18 -8 -76 -21 -78 -5 -1 -17 10 -25 24 -13
24 -13 29 4 47 22 24 35 26 42 7z m2234 -48 c0 -11 -38 -10 -61 2 -10 6 -19
17 -19 25 0 11 7 10 40 -3 22 -9 40 -20 40 -24z m-950 16 c0 -8 -4 -12 -10 -9
-5 3 -10 10 -10 16 0 5 5 9 10 9 6 0 10 -7 10 -16z m-1382 -36 c-3 -7 -12 -16
-21 -22 -25 -16 -42 5 -28 33 10 18 15 19 32 10 11 -5 19 -15 17 -21z m2466
-68 c-1 -8 -5 -27 -9 -42 -7 -27 -7 -27 30 -17 29 8 40 8 46 -3 14 -21 10 -37
-10 -48 -24 -12 -64 -13 -57 -1 3 4 -5 6 -18 4 -24 -5 -49 18 -28 25 19 6 14
21 -6 15 -10 -2 -23 2 -30 9 -8 11 -4 21 20 46 30 33 64 39 62 12z m-2777 -12
c-3 -8 -6 -5 -6 6 -1 11 2 17 5 13 3 -3 4 -12 1 -19z m1673 -18 c0 -5 -7 -10
-16 -10 -8 0 -12 5 -9 10 3 6 10 10 16 10 5 0 9 -4 9 -10z m-1636 -25 c23 -17
13 -34 -11 -19 -19 12 -29 34 -16 34 4 0 17 -7 27 -15z m-38 -53 c6 -4 19 -21
28 -39 11 -23 27 -36 56 -44 41 -12 52 -32 25 -43 -17 -6 -95 25 -112 45 -14
18 -28 89 -17 89 5 0 14 -4 20 -8z m3254 -267 c0 -9 -9 -15 -25 -15 -31 0 -33
17 -2 23 12 2 23 5 25 6 1 0 2 -6 2 -14z m55 -27 c-9 -42 -21 -56 -36 -41 -15
15 7 73 28 73 11 0 13 -8 8 -32z m54 0 c8 -20 10 -21 16 -5 13 33 25 17 19
-25 -8 -53 -19 -66 -42 -52 -22 14 -35 104 -15 104 8 0 18 -10 22 -22z m-2909
-118 c0 -5 -4 -10 -10 -10 -5 0 -10 5 -10 10 0 6 5 10 10 10 6 0 10 -4 10 -10z
m540 -31 c14 -25 13 -29 -9 -29 -24 0 -45 25 -37 45 7 18 33 9 46 -16z m-463
5 c2 -7 -6 -10 -22 -7 -14 3 -25 10 -25 15 0 13 43 6 47 -8z m589 -85 c8 -14
-18 -31 -30 -19 -9 9 0 30 14 30 5 0 12 -5 16 -11z m1699 -591 c8 -17 12 -34
9 -39 -9 -15 -44 -10 -44 6 0 8 -5 24 -12 34 -6 10 -8 26 -4 36 8 22 29 7 51
-37z m78 10 c3 -18 8 -42 12 -53 5 -16 1 -14 -19 8 -25 27 -33 57 -19 70 13
14 20 6 26 -25z m-1573 -342 c0 -27 25 -64 36 -53 4 4 2 7 -4 7 -7 0 -12 9
-12 20 0 11 4 20 9 20 13 0 24 -74 16 -101 l-7 -22 31 22 c34 24 38 36 17 44
-15 6 -32 64 -22 74 3 4 12 -2 20 -12 12 -17 16 -18 32 -5 16 14 17 13 10 -12
-4 -17 -2 -28 4 -28 5 0 10 -6 10 -13 0 -7 6 -22 14 -33 14 -18 15 -17 29 16
9 19 13 39 10 44 -3 5 0 7 8 4 8 -3 22 -19 32 -36 22 -37 13 -65 -10 -32 -12
17 -18 19 -29 9 -8 -6 -14 -19 -14 -28 1 -14 2 -14 11 2 14 24 29 21 29 -6 0
-13 -12 -34 -26 -48 l-25 -24 -20 25 c-11 14 -22 37 -25 52 -12 54 -20 18 -11
-46 8 -52 14 -66 30 -68 18 -3 17 -5 -6 -26 l-24 -23 -21 33 c-11 18 -43 71
-72 118 -56 90 -82 144 -74 152 2 3 16 3 29 0 18 -3 25 -11 25 -26z m-678 2
c-7 -7 -12 -8 -12 -2 0 6 3 14 7 17 3 4 9 5 12 2 2 -3 -1 -11 -7 -17z m1710
-195 c10 -9 18 -22 18 -28 0 -7 9 -19 19 -26 22 -15 40 -89 23 -89 -12 0 -39
38 -62 85 -8 17 -21 36 -27 43 -29 31 -3 44 29 15z m98 -22 c12 -24 13 -58 1
-66 -5 -3 -16 7 -23 22 -23 47 -2 88 22 44z"/>
<path d="M6090 10571 c-12 -23 0 -51 21 -51 12 0 11 41 0 59 -7 11 -11 9 -21
-8z"/>
<path d="M6057 10353 c-4 -3 -7 -28 -7 -54 0 -38 4 -51 19 -59 26 -14 29 -5
24 63 -5 53 -17 70 -36 50z"/>
<path d="M6060 10136 c0 -30 15 -42 24 -20 10 27 7 44 -9 44 -9 0 -15 -9 -15
-24z"/>
<path d="M6012 9993 c4 -37 38 -45 38 -10 0 21 -16 37 -36 37 -3 0 -4 -12 -2
-27z"/>
<path d="M5965 9534 c11 -64 25 -76 23 -20 -2 31 -8 51 -17 54 -11 4 -12 -3
-6 -34z"/>
<path d="M5922 9263 c4 -52 28 -56 28 -4 0 30 -4 41 -16 41 -11 0 -14 -9 -12
-37z"/>
<path d="M5875 9010 c-9 -15 5 -90 16 -90 5 0 9 13 9 29 0 17 5 33 10 36 6 3
10 13 10 21 0 16 -36 19 -45 4z"/>
<path d="M5826 8704 c-7 -18 0 -34 15 -34 12 0 12 37 0 44 -5 3 -12 -1 -15
-10z"/>
<path d="M7170 8150 c0 -5 5 -10 10 -10 6 0 10 5 10 10 0 6 -4 10 -10 10 -5 0
-10 -4 -10 -10z"/>
<path d="M4615 8040 c8 -9 15 -22 15 -28 0 -18 25 -14 51 7 27 22 21 27 -43
33 -34 4 -36 2 -23 -12z"/>
<path d="M4804 7995 c11 -8 31 -15 45 -15 25 1 25 1 7 15 -11 8 -31 15 -45 15
-25 -1 -25 -1 -7 -15z"/>
<path d="M5038 7969 c5 -11 11 -20 15 -20 4 1 12 1 18 1 14 0 2 18 -21 30 -17
9 -19 8 -12 -11z"/>
<path d="M3920 7951 c0 -11 -5 -23 -10 -26 -18 -11 6 -30 40 -33 49 -4 52 6
15 43 -40 40 -45 42 -45 16z"/>
<path d="M7100 7935 c0 -8 -7 -15 -15 -15 -15 0 -35 -37 -35 -63 1 -31 17 -41
48 -28 37 16 52 59 26 78 -9 7 -14 19 -11 28 4 8 2 15 -3 15 -6 0 -10 -7 -10
-15z"/>
<path d="M6560 7894 c0 -9 10 -14 29 -14 17 0 33 -4 36 -10 3 -5 11 -10 18
-10 18 0 -4 17 -45 34 -33 13 -38 13 -38 0z"/>
<path d="M6570 7840 c0 -7 24 -20 36 -20 13 0 1 19 -16 23 -11 3 -20 2 -20 -3z"/>
<path d="M4810 7771 c0 -14 -6 -21 -20 -21 -33 0 -23 -14 29 -38 60 -27 76
-28 66 -4 -4 9 -10 27 -12 39 -3 11 -12 24 -21 27 -10 3 -23 9 -29 12 -8 4
-13 -2 -13 -15z"/>
<path d="M5071 7694 c-12 -14 -12 -17 0 -25 18 -12 49 -11 49 0 0 8 -28 42
-33 41 -1 -1 -8 -8 -16 -16z"/>
<path d="M6710 7617 c0 -17 38 -52 47 -44 10 11 -15 57 -32 57 -8 0 -15 -6
-15 -13z"/>
<path d="M6917 7613 c-4 -3 -7 -13 -7 -22 1 -13 3 -13 11 2 11 19 8 33 -4 20z"/>
<path d="M5147 7573 c-12 -11 -8 -23 8 -23 8 0 15 7 15 15 0 16 -12 20 -23 8z"/>
<path d="M6240 7550 c0 -28 2 -30 20 -20 11 6 20 15 20 20 0 5 -9 14 -20 20
-18 10 -20 8 -20 -20z"/>
<path d="M4810 7470 c14 -10 27 -17 29 -14 6 5 -31 33 -44 33 -5 1 1 -8 15
-19z"/>
<path d="M7180 7409 c0 -5 5 -7 10 -4 6 3 10 8 10 11 0 2 -4 4 -10 4 -5 0 -10
-5 -10 -11z"/>
<path d="M6810 7310 c0 -5 7 -10 15 -10 8 0 15 5 15 10 0 6 -7 10 -15 10 -8 0
-15 -4 -15 -10z"/>
<path d="M6224 7189 c-3 -5 -2 -25 2 -45 6 -33 5 -36 -14 -30 -22 7 -42 -16
-42 -48 0 -25 35 -19 50 9 25 46 77 18 63 -33 -5 -22 10 -31 22 -12 15 25 74
-12 75 -47 0 -7 6 -13 14 -13 10 0 14 10 11 36 -2 27 -11 43 -34 61 -17 13
-31 31 -31 38 0 8 -8 20 -18 27 -11 7 -24 23 -30 34 -12 22 -58 38 -68 23z"/>
<path d="M5334 7165 c-4 -10 -15 -12 -36 -8 -24 5 -30 3 -26 -8 2 -8 19 -15
36 -17 26 -3 35 -10 47 -38 18 -43 35 -44 35 -1 0 62 -40 114 -56 72z"/>
<path d="M6826 7109 c-16 -36 -17 -42 -4 -56 14 -13 16 -13 21 1 3 8 2 18 -4
22 -6 3 1 20 16 40 23 30 24 34 8 34 -11 0 -25 -16 -37 -41z"/>
<path d="M6539 7071 l-24 -20 23 -1 c12 0 25 7 29 15 9 25 -2 27 -28 6z"/>
<path d="M7000 7070 c-12 -8 -11 -10 8 -10 12 0 22 5 22 10 0 13 -11 13 -30 0z"/>
<path d="M3860 7060 c0 -5 5 -10 11 -10 5 0 7 5 4 10 -3 6 -8 10 -11 10 -2 0
-4 -4 -4 -10z"/>
<path d="M6711 7038 c0 -9 -4 -23 -7 -32 -4 -11 0 -16 13 -16 10 0 24 -5 30
-11 7 -7 12 -1 17 22 7 39 4 44 -22 30 -17 -9 -21 -8 -25 7 -4 15 -5 15 -6 0z"/>
<path d="M6645 7010 c-3 -5 1 -10 9 -10 9 0 16 5 16 10 0 6 -4 10 -9 10 -6 0
-13 -4 -16 -10z"/>
<path d="M6218 7003 c-32 -8 -21 -40 15 -46 33 -5 49 7 44 33 -2 16 -29 22
-59 13z"/>
<path d="M6440 6987 c0 -9 -10 -22 -22 -28 -20 -11 -20 -13 -4 -24 12 -9 15
-20 10 -39 -12 -50 52 -90 76 -47 14 27 13 31 -10 31 -28 0 -25 19 5 30 31 12
33 22 3 18 -18 -2 -24 2 -26 24 -4 31 -32 61 -32 35z"/>
<path d="M5322 6928 c5 -15 28 -23 28 -10 0 5 -7 13 -16 16 -10 4 -14 1 -12
-6z"/>
<path d="M3400 6856 c0 -19 4 -22 23 -19 12 2 31 -3 42 -12 19 -15 18 -16 -20
-10 -32 5 -38 4 -27 -6 16 -17 15 -39 -2 -39 -30 0 -38 -89 -8 -91 9 -1 1 -5
-18 -10 -19 -4 -43 -6 -52 -3 -25 7 -23 -21 2 -46 11 -11 24 -20 28 -20 22 0
70 32 75 51 4 16 11 18 31 13 26 -6 26 -6 11 22 -20 38 -19 54 3 54 13 0 14 2
3 9 -11 7 -9 13 8 30 11 11 21 28 21 37 0 13 7 15 35 10 35 -7 45 3 27 31 -10
16 -61 12 -55 -5 3 -8 0 -10 -10 -6 -9 3 -13 12 -10 20 3 8 0 14 -6 14 -6 0
-10 -3 -10 -7 3 -19 -2 -27 -9 -17 -4 6 -24 14 -44 17 -35 5 -38 4 -38 -17z"/>
<path d="M4026 6844 c10 -14 21 -21 26 -16 14 14 -2 42 -23 42 -19 0 -19 -1
-3 -26z"/>
<path d="M6620 6853 c-35 -6 -50 -23 -21 -23 29 0 23 -24 -7 -28 -26 -4 -25
-3 -10 -37 16 -35 36 -31 44 9 3 19 12 37 20 40 14 5 20 47 7 45 -5 -1 -19 -4
-33 -6z"/>
<path d="M6258 6782 c-31 -19 -39 -38 -9 -22 11 5 28 9 38 8 45 -4 73 3 73 17
0 21 -66 18 -102 -3z"/>
<path d="M3590 6706 c0 -14 -5 -26 -11 -26 -5 0 -7 -4 -4 -10 10 -16 31 -11
32 8 1 9 3 23 5 31 2 7 -3 16 -9 18 -8 3 -13 -5 -13 -21z"/>
<path d="M6020 6698 c0 -7 -3 -23 -6 -34 -5 -17 0 -23 22 -28 30 -8 50 10 34
30 -6 6 -7 14 -3 18 8 8 -15 26 -34 26 -7 0 -13 -6 -13 -12z"/>
<path d="M4874 6679 c0 -16 2 -17 11 -7 5 8 18 12 29 10 11 -2 16 0 12 7 -4 6
-17 11 -29 11 -16 0 -23 -6 -23 -21z"/>
<path d="M3298 6683 c7 -3 16 -2 19 1 4 3 -2 6 -13 5 -11 0 -14 -3 -6 -6z"/>
<path d="M3243 6646 c4 -10 7 -20 7 -22 0 -9 39 -3 45 7 9 13 6 16 -29 25 -25
6 -28 5 -23 -10z"/>
<path d="M3621 6633 c3 -33 -1 -40 -26 -51 -29 -13 -31 -28 -9 -53 13 -14 21
-16 35 -8 11 5 19 16 19 24 0 9 6 24 12 35 11 16 9 22 -7 34 -11 9 -14 16 -7
16 18 0 15 20 -4 20 -9 0 -14 -8 -13 -17z"/>
<path d="M3570 6630 c0 -5 9 -10 21 -10 11 0 17 5 14 10 -3 6 -13 10 -21 10
-8 0 -14 -4 -14 -10z"/>
<path d="M6200 6630 c-12 -8 -11 -10 7 -10 12 0 25 5 28 10 8 13 -15 13 -35 0z"/>
<path d="M6378 6630 c-27 -3 -53 -11 -59 -17 -17 -17 0 -35 26 -29 13 3 27 2
30 -4 12 -19 31 -10 43 22 6 17 11 32 9 33 -1 0 -23 -2 -49 -5z"/>
<path d="M4643 6616 c-13 -6 -23 -14 -23 -18 0 -11 8 -10 32 3 17 9 24 8 32
-3 12 -16 56 -30 56 -18 0 8 -63 51 -71 49 -2 -1 -14 -6 -26 -13z"/>
<path d="M3518 6593 c7 -3 16 -2 19 1 4 3 -2 6 -13 5 -11 0 -14 -3 -6 -6z"/>
<path d="M3720 6581 c0 -14 40 -54 47 -47 3 3 -6 18 -20 32 -15 15 -27 22 -27
15z"/>
<path d="M6197 6578 c-2 -7 0 -21 5 -31 7 -15 12 -16 24 -6 19 15 18 35 -2 43
-21 8 -22 8 -27 -6z"/>
<path d="M4790 6538 c1 -21 2 -21 11 -5 7 11 17 16 29 12 10 -3 21 -1 25 5 4
6 -7 10 -29 10 -31 0 -36 -3 -36 -22z"/>
<path d="M4770 6500 c0 -5 5 -10 10 -10 6 0 10 5 10 10 0 6 -4 10 -10 10 -5 0
-10 -4 -10 -10z"/>
<path d="M4944 6499 c-9 -16 21 -43 41 -36 13 5 14 11 5 27 -12 22 -35 26 -46
9z"/>
<path d="M6365 6489 c-4 -6 -5 -12 -2 -15 2 -3 7 2 10 11 7 17 1 20 -8 4z"/>
<path d="M4643 6470 c-31 -13 -29 -23 6 -37 34 -13 41 -9 41 24 0 24 -11 27
-47 13z"/>
<path d="M3877 6463 c-12 -11 -8 -23 8 -23 8 0 15 7 15 15 0 16 -12 20 -23 8z"/>
<path d="M5503 6453 c-7 -2 -13 -9 -13 -14 0 -13 22 -10 44 6 20 15 20 15 0
14 -10 0 -25 -3 -31 -6z"/>
<path d="M4115 6340 c3 -5 25 -19 48 -30 37 -18 43 -19 56 -5 14 13 13 15 -10
15 -14 0 -29 4 -34 9 -15 13 -68 24 -60 11z"/>
<path d="M4338 6313 c7 -3 16 -2 19 1 4 3 -2 6 -13 5 -11 0 -14 -3 -6 -6z"/>
<path d="M7080 6300 c0 -5 5 -10 10 -10 6 0 10 5 10 10 0 6 -4 10 -10 10 -5 0
-10 -4 -10 -10z"/>
<path d="M4965 6280 c-4 -6 -4 -24 0 -40 5 -23 12 -30 31 -30 21 0 24 4 24 40
0 36 -3 40 -24 40 -14 0 -28 -5 -31 -10z"/>
<path d="M4623 6273 c-7 -2 -13 -11 -13 -19 0 -10 6 -11 24 -4 14 5 41 6 60 3
29 -4 36 -2 36 11 0 13 -10 16 -47 15 -27 0 -54 -3 -60 -6z"/>
<path d="M4803 6255 c-9 -26 4 -28 28 -6 l23 21 -22 0 c-13 0 -25 -7 -29 -15z"/>
<path d="M4553 6233 c-26 -5 -29 -20 -7 -48 15 -20 15 -20 20 2 3 12 12 24 20
27 8 3 14 10 14 16 0 10 -7 11 -47 3z"/>
<path d="M3775 6210 c-3 -5 1 -10 9 -10 9 0 16 5 16 10 0 6 -4 10 -9 10 -6 0
-13 -4 -16 -10z"/>
<path d="M4800 6205 c0 -17 2 -18 24 -9 18 7 12 24 -10 24 -8 0 -14 -7 -14
-15z"/>
<path d="M4343 6099 c-7 -7 -13 -21 -13 -31 0 -22 18 -23 44 -3 17 13 17 15 4
15 -9 0 -18 7 -20 16 -2 12 -5 13 -15 3z"/>
<path d="M5674 6023 c-3 -10 -12 -31 -20 -47 -12 -24 -12 -31 -2 -37 19 -13
27 -11 45 11 10 11 23 20 30 20 18 0 16 21 -3 48 -18 26 -43 29 -50 5z"/>
<path d="M5223 6003 c-7 -2 -13 -15 -13 -27 0 -17 9 -25 37 -34 43 -13 53 -9
53 22 0 38 -35 56 -77 39z"/>
<path d="M5458 5976 c-2 -11 -13 -25 -25 -31 -47 -20 -15 -36 50 -24 21 3 40
8 42 11 12 11 -10 45 -35 55 -26 10 -29 9 -32 -11z"/>
<path d="M5796 5813 c-3 -3 -3 -10 0 -14 7 -12 34 -11 34 0 0 11 -26 22 -34
14z"/>
<path d="M5792 5740 c-9 -16 -19 -19 -39 -14 -18 5 -24 4 -19 -5 4 -6 18 -11
32 -11 14 0 27 -7 30 -15 6 -15 44 -22 44 -7 -1 4 -9 22 -18 39 -17 31 -18 32
-30 13z"/>
<path d="M5294 5707 c3 -10 6 -23 6 -28 0 -5 5 -9 10 -9 14 0 12 13 -6 36 -14
17 -15 17 -10 1z"/>
<path d="M5614 5675 c-4 -15 -1 -32 6 -40 7 -9 13 -33 13 -55 0 -22 3 -43 8
-45 4 -3 37 -8 72 -10 50 -4 67 -2 77 10 10 12 9 15 -5 15 -10 0 -37 18 -61
40 -24 22 -50 40 -58 40 -9 0 -18 14 -22 35 -7 41 -21 45 -30 10z"/>
<path d="M5282 5648 c-7 -7 -12 -16 -12 -20 0 -12 28 -10 36 3 10 17 -10 31
-24 17z"/>
<path d="M5794 5645 c-4 -9 2 -25 12 -36 10 -12 19 -28 19 -37 0 -8 6 -17 13
-19 7 -3 12 4 12 15 0 11 5 22 11 24 17 6 -2 38 -32 54 -26 13 -30 13 -35 -1z"/>
<path d="M5487 5563 c-15 -14 -7 -43 12 -43 38 0 51 10 40 31 -9 19 -39 26
-52 12z"/>
<path d="M5278 5554 c-14 -13 6 -44 28 -44 29 0 30 4 4 30 -22 22 -24 23 -32
14z"/>
<path d="M5446 5503 c-12 -12 -5 -23 14 -23 11 0 20 4 20 9 0 11 -26 22 -34
14z"/>
<path d="M4917 5454 c-8 -8 3 -34 14 -34 5 0 9 9 9 20 0 19 -11 26 -23 14z"/>
<path d="M5561 5301 c-21 -13 -6 -54 26 -68 31 -15 53 -17 53 -5 0 5 11 15 25
22 14 7 25 19 25 26 0 25 -98 44 -129 25z"/>
<path d="M5080 5220 c0 -5 5 -10 10 -10 6 0 10 5 10 10 0 6 -4 10 -10 10 -5 0
-10 -4 -10 -10z"/>
<path d="M5466 5107 c-31 -25 -29 -47 5 -47 24 0 59 39 52 57 -7 19 -24 16
-57 -10z"/>
<path d="M5026 5085 c-3 -8 -1 -15 4 -15 6 0 10 7 10 15 0 8 -2 15 -4 15 -2 0
-6 -7 -10 -15z"/>
<path d="M5235 5040 c-4 -6 -3 -16 3 -22 6 -6 12 -6 17 2 4 6 3 16 -3 22 -6 6
-12 6 -17 -2z"/>
<path d="M5239 4969 c-23 -44 14 -60 100 -43 43 9 40 28 -4 21 -27 -4 -37 -2
-45 12 -15 29 -38 33 -51 10z"/>
<path d="M5793 4925 c-6 -14 -8 -27 -4 -29 11 -7 28 7 35 32 10 31 -16 29 -31
-3z"/>
<path d="M5380 4800 c0 -5 9 -10 20 -10 11 0 20 5 20 10 0 6 -9 10 -20 10 -11
0 -20 -4 -20 -10z"/>
<path d="M4646 7151 c-7 -11 20 -48 29 -39 9 8 -4 48 -15 48 -5 0 -11 -4 -14
-9z"/>
<path d="M6985 6087 c5 -45 11 -57 31 -57 22 0 17 36 -11 67 l-25 28 5 -38z"/>
<path d="M7490 6001 c0 -12 5 -21 10 -21 6 0 10 6 10 14 0 8 -4 18 -10 21 -5
3 -10 -3 -10 -14z"/>
<path d="M7495 5890 c-3 -5 -1 -10 4 -10 6 0 11 5 11 10 0 6 -2 10 -4 10 -3 0
-8 -4 -11 -10z"/>
<path d="M6915 5860 c3 -5 10 -10 16 -10 5 0 9 5 9 10 0 6 -7 10 -16 10 -8 0
-12 -4 -9 -10z"/>
<path d="M6560 5745 c0 -9 9 -15 23 -15 12 0 33 -3 47 -6 24 -6 24 -6 5 8 -32
24 -75 31 -75 13z"/>
<path d="M6415 5720 c4 -6 11 -8 16 -5 14 9 11 15 -7 15 -8 0 -12 -5 -9 -10z"/>
<path d="M6890 5710 c-6 -12 -22 -25 -36 -30 -37 -14 -30 -33 9 -24 17 4 43 7
57 6 16 0 20 2 10 6 -14 7 -22 23 -23 50 0 17 -5 15 -17 -8z"/>
<path d="M6644 5679 c-2 -5 7 -11 21 -15 14 -3 25 -11 25 -18 0 -8 2 -8 8 0 4
7 16 13 27 16 13 2 2 7 -28 14 -26 6 -50 8 -53 3z"/>
<path d="M7116 5664 c-9 -22 0 -30 18 -15 8 6 18 10 24 9 5 -2 11 2 11 7 3 18
-46 17 -53 -1z"/>
<path d="M7366 5644 c-9 -25 -7 -36 7 -32 6 3 13 14 13 26 1 26 -11 29 -20 6z"/>
<path d="M6689 5584 c-12 -14 -11 -16 5 -13 11 2 21 10 24 17 5 17 -13 15 -29
-4z"/>
<path d="M6927 5559 c-31 -18 -19 -37 31 -51 34 -10 51 -21 60 -41 16 -33 22
-34 46 -2 13 18 28 25 51 25 37 0 58 19 45 40 -7 11 -14 12 -35 2 -32 -15
-119 -16 -110 -2 3 6 4 10 2 10 -3 0 -20 6 -38 14 -24 10 -40 11 -52 5z"/>
<path d="M7267 5533 c-12 -12 -7 -43 7 -43 13 0 26 20 26 41 0 10 -23 12 -33
2z"/>
<path d="M7170 5470 c0 -5 5 -10 10 -10 6 0 10 5 10 10 0 6 -4 10 -10 10 -5 0
-10 -4 -10 -10z"/>
<path d="M3205 6390 c-3 -5 1 -10 10 -10 9 0 13 5 10 10 -3 6 -8 10 -10 10 -2
0 -7 -4 -10 -10z"/>
<path d="M4630 5519 c0 -5 5 -7 10 -4 6 3 10 8 10 11 0 2 -4 4 -10 4 -5 0 -10
-5 -10 -11z"/>
<path d="M5605 3580 c3 -5 11 -10 16 -10 6 0 7 5 4 10 -3 6 -11 10 -16 10 -6
0 -7 -4 -4 -10z"/>
</g>
</svg>
