<?xml version="1.0" standalone="no"?>
<!DOCTYPE svg PUBLIC "-//W3C//DTD SVG 20010904//EN"
 "http://www.w3.org/TR/2001/REC-SVG-20010904/DTD/svg10.dtd">
<svg version="1.0" xmlns="http://www.w3.org/2000/svg"
 width="624.000000pt" height="624.000000pt" viewBox="0 0 624.000000 624.000000"
 preserveAspectRatio="xMidYMid meet">

<g transform="translate(0.000000,624.000000) scale(0.100000,-0.100000)"
fill="#000000" stroke="none">
<path d="M2722 3448 l3 -23 395 0 395 0 3 23 3 22 -401 0 -401 0 3 -22z"/>
<path d="M2720 3120 c0 -20 7 -20 400 -20 393 0 400 0 400 20 0 20 -7 20 -400
20 -393 0 -400 0 -400 -20z"/>
<path d="M2727 2813 c-4 -3 -7 -15 -7 -25 0 -17 19 -18 401 -18 l400 0 -3 23
-3 22 -391 3 c-215 1 -393 -1 -397 -5z"/>
</g>
</svg>
