<?xml version="1.0" standalone="no"?>
<!DOCTYPE svg PUBLIC "-//W3C//DTD SVG 20010904//EN"
 "http://www.w3.org/TR/2001/REC-SVG-20010904/DTD/svg10.dtd">
<svg version="1.0" xmlns="http://www.w3.org/2000/svg"
 width="724.000000pt" height="724.000000pt" viewBox="0 0 724.000000 724.000000"
 preserveAspectRatio="xMidYMid meet">

<g transform="translate(0.000000,724.000000) scale(0.100000,-0.100000)"
fill="#000000" stroke="none">
<path d="M3460 4603 c-19 -2 -39 -9 -44 -14 -6 -5 -21 -9 -35 -9 -57 0 -295
-110 -309 -142 -2 -5 -8 -8 -13 -8 -16 0 -164 -138 -204 -191 -52 -69 -68 -94
-102 -159 -50 -98 -70 -153 -95 -275 -14 -67 -15 -276 -1 -345 27 -132 30
-141 82 -251 27 -59 30 -71 22 -110 -18 -82 -31 -134 -40 -154 -5 -11 -12 -31
-15 -45 -16 -77 -29 -126 -37 -134 -5 -6 -9 -25 -9 -42 0 -18 -4 -36 -10 -39
-5 -3 -10 -17 -10 -31 0 -21 4 -24 23 -19 12 3 38 10 57 15 19 5 62 16 95 25
33 9 76 20 95 25 103 25 167 43 188 51 29 11 89 12 94 1 5 -12 125 -59 193
-76 120 -29 202 -39 276 -32 129 12 174 18 184 26 6 5 31 11 58 15 26 4 47 11
47 16 0 5 9 9 19 9 28 0 197 89 237 125 7 5 31 26 55 45 39 32 72 65 130 130
29 33 89 126 89 139 0 5 3 11 8 13 6 3 24 38 50 98 10 24 25 70 54 170 18 61
18 339 0 400 -29 100 -44 146 -54 170 -23 53 -43 95 -49 100 -4 3 -9 14 -13
25 -3 11 -17 33 -31 49 -14 16 -25 32 -25 35 0 12 -88 110 -144 159 -52 47
-147 112 -163 112 -7 0 -13 4 -13 10 0 5 -11 12 -25 16 -14 3 -25 10 -25 15 0
5 -9 9 -19 9 -11 0 -23 5 -26 10 -3 6 -14 10 -23 10 -9 0 -30 7 -46 15 -15 8
-40 15 -55 15 -15 0 -32 5 -38 11 -12 12 -317 21 -383 12z m282 -162 c24 -5
63 -15 88 -21 25 -6 57 -14 73 -17 15 -3 27 -9 27 -14 0 -5 7 -9 16 -9 60 0
287 -179 340 -269 10 -17 21 -31 25 -31 4 0 10 -11 13 -25 4 -14 11 -25 16
-25 6 0 10 -4 10 -10 0 -5 11 -33 23 -62 52 -115 69 -199 69 -328 0 -169 -44
-315 -140 -459 -43 -65 -171 -196 -201 -206 -12 -3 -21 -11 -21 -16 0 -5 -6
-9 -14 -9 -8 0 -16 -4 -18 -9 -4 -10 -134 -71 -152 -71 -6 0 -16 -4 -22 -9 -5
-4 -51 -16 -102 -26 -129 -25 -319 -12 -394 26 -10 5 -23 9 -28 9 -6 0 -49 19
-96 41 l-84 42 -57 -17 c-32 -9 -74 -21 -93 -26 -19 -4 -59 -15 -88 -23 l-54
-16 7 52 c4 29 11 57 15 62 4 6 10 21 12 35 3 14 13 53 22 87 l17 61 -46 88
c-25 48 -45 96 -45 106 0 10 -4 18 -10 18 -5 0 -10 9 -10 20 0 10 -7 45 -15
77 -28 107 -14 344 25 415 6 10 10 23 10 28 0 10 33 79 73 154 42 79 237 266
277 266 5 0 10 5 10 10 0 6 4 10 10 10 5 0 33 11 62 24 75 35 143 56 181 56
18 0 39 5 47 10 19 12 167 13 222 1z"/>
<path d="M3206 4047 c-61 -58 -89 -163 -70 -257 11 -51 32 -108 44 -120 3 -3
14 -22 25 -42 11 -21 22 -38 25 -38 3 0 14 -15 25 -32 39 -67 179 -208 251
-254 16 -10 31 -21 34 -25 5 -6 125 -63 165 -79 11 -4 36 -14 55 -21 46 -18
232 -19 238 -1 2 6 9 12 15 12 18 0 81 61 94 90 16 36 22 92 12 112 -9 17 -86
58 -108 58 -6 0 -11 3 -11 8 0 12 -116 53 -134 46 -9 -3 -16 -9 -16 -13 0 -4
-22 -31 -48 -59 -39 -42 -52 -50 -71 -45 -25 6 -133 61 -141 72 -3 3 -23 19
-45 36 -54 40 -71 58 -116 123 -21 30 -39 66 -39 79 0 12 16 45 35 72 34 47
45 94 25 106 -5 3 -10 15 -10 26 0 10 -4 19 -9 19 -5 0 -11 10 -14 23 -7 29
-30 87 -45 115 -11 19 -21 22 -72 22 -53 0 -62 -3 -94 -33z"/>
</g>
</svg>
