<?xml version="1.0" standalone="no"?>
<!DOCTYPE svg PUBLIC "-//W3C//DTD SVG 20010904//EN"
 "http://www.w3.org/TR/2001/REC-SVG-20010904/DTD/svg10.dtd">
<svg version="1.0" xmlns="http://www.w3.org/2000/svg"
 width="1528.000000pt" height="1191.000000pt" viewBox="0 0 1528.000000 1191.000000"
 preserveAspectRatio="xMidYMid meet">

<g transform="translate(0.000000,1191.000000) scale(0.100000,-0.100000)"
fill="#000000" stroke="none">
<path d="M6910 7547 c-3 -3 -60 -11 -128 -16 -67 -6 -143 -16 -169 -22 -98
-23 -120 -28 -183 -44 -36 -10 -74 -21 -85 -25 -11 -4 -40 -15 -65 -25 -25
-10 -54 -21 -65 -25 -40 -14 -200 -95 -203 -102 -2 -5 -12 -8 -22 -8 -9 0 -23
-7 -30 -15 -7 -8 -19 -15 -26 -15 -8 0 -14 -4 -14 -8 0 -4 -15 -16 -32 -26
-29 -17 -103 -70 -162 -116 -60 -48 -246 -243 -266 -279 -5 -11 -16 -25 -23
-33 -43 -44 -177 -288 -177 -321 0 -10 -4 -17 -10 -17 -5 0 -10 -9 -10 -19 0
-11 -6 -32 -14 -48 -21 -43 -33 -89 -51 -193 -9 -52 -20 -120 -25 -151 -19
-106 -13 -209 22 -404 5 -33 12 -76 15 -95 3 -19 10 -40 15 -47 14 -17 -3 -31
-87 -73 -39 -19 -72 -37 -75 -40 -3 -3 -32 -18 -65 -35 -33 -16 -62 -32 -65
-35 -11 -11 -72 -40 -86 -40 -8 0 -14 -4 -14 -10 0 -5 -11 -12 -25 -16 -14 -3
-25 -9 -25 -13 0 -3 -15 -13 -32 -20 -38 -17 -159 -134 -176 -171 -28 -62 -42
-105 -42 -131 0 -15 -5 -40 -12 -54 -9 -19 -9 -28 0 -37 7 -7 12 -25 12 -40 0
-45 80 -118 153 -140 65 -20 99 -22 125 -9 9 6 29 12 43 15 41 9 104 61 124
102 10 21 20 58 23 81 3 26 10 43 17 43 8 0 15 3 17 8 4 10 67 42 83 42 7 0
15 3 17 8 4 10 67 42 83 42 7 0 15 3 17 8 2 4 19 14 38 23 19 9 59 28 88 43
64 31 69 31 76 9 3 -10 16 -30 28 -44 13 -15 41 -48 63 -75 52 -62 168 -179
224 -224 23 -19 52 -43 63 -52 12 -10 27 -18 35 -18 7 0 13 -4 13 -8 0 -4 15
-16 33 -27 17 -10 34 -21 37 -24 3 -3 21 -15 40 -25 19 -11 37 -22 40 -26 8
-9 178 -90 189 -90 6 0 11 -4 11 -9 0 -5 10 -11 23 -14 25 -6 85 -26 107 -37
8 -4 49 -16 90 -26 41 -10 77 -21 80 -24 6 -7 123 -28 230 -42 42 -6 431 -12
880 -14 723 -4 810 -6 853 -21 26 -9 47 -21 47 -25 0 -4 5 -8 10 -8 15 0 45
-30 69 -70 16 -27 21 -51 21 -107 0 -42 -4 -73 -10 -73 -5 0 -10 -6 -10 -13 0
-20 -48 -62 -103 -91 l-48 -26 -1189 0 c-654 0 -1199 -4 -1212 -9 -13 -4 -49
-16 -80 -26 -32 -10 -58 -22 -58 -26 0 -4 -8 -10 -18 -13 -33 -11 -102 -84
-129 -138 -25 -47 -28 -64 -28 -150 0 -64 4 -101 13 -109 6 -7 12 -19 12 -26
0 -8 5 -19 10 -26 66 -79 92 -103 135 -128 27 -16 58 -29 67 -29 9 0 18 -6 20
-12 4 -10 260 -13 1239 -13 l1234 0 3 63 c2 34 2 62 0 63 -2 0 -542 3 -1200 5
-1139 4 -1199 5 -1240 23 -49 21 -118 83 -118 106 0 8 -4 15 -10 15 -14 0 -12
126 3 152 29 52 60 82 117 114 34 18 70 19 1250 24 668 3 1224 9 1235 13 11 5
31 14 45 19 54 23 90 43 90 50 0 5 4 8 10 8 11 0 59 47 77 76 51 80 73 182 53
248 -48 157 -135 239 -306 285 -26 7 -163 11 -365 12 -178 1 -316 3 -306 6 9
2 17 9 17 14 0 5 6 9 13 9 13 0 179 80 187 91 3 4 21 15 40 25 40 22 151 97
171 116 8 7 32 26 54 43 48 35 166 154 215 215 19 24 42 51 51 60 9 10 25 31
35 49 10 17 21 31 25 31 4 0 9 8 13 18 3 9 24 49 46 87 66 117 130 266 130
305 0 11 4 20 9 20 5 0 11 17 14 38 9 63 27 184 37 243 6 30 10 86 10 124 0
38 -4 94 -10 124 -5 31 -14 88 -19 126 -6 39 -15 88 -20 110 -26 108 -35 135
-43 135 -4 0 -8 11 -8 25 0 14 -4 25 -10 25 -5 0 -10 7 -10 16 0 20 -60 148
-72 152 -4 2 -8 14 -8 26 0 16 10 27 38 39 21 9 44 17 50 17 7 0 12 4 12 9 0
5 11 12 25 15 14 4 25 11 25 16 0 6 7 10 14 10 8 0 36 11 62 25 26 14 53 25
60 25 7 0 14 3 16 8 2 4 19 14 38 23 115 54 155 75 158 82 2 4 9 7 15 7 19 0
180 83 218 112 21 15 51 50 68 76 29 45 31 55 31 140 0 84 -2 96 -29 140 -31
48 -73 92 -91 92 -6 0 -10 4 -10 8 0 19 -124 55 -190 55 -66 0 -190 -36 -190
-55 0 -4 -7 -8 -15 -8 -9 0 -34 -12 -57 -26 -23 -15 -83 -48 -132 -74 -118
-61 -160 -84 -166 -90 -3 -3 -25 -14 -50 -25 -25 -11 -51 -25 -58 -32 -7 -7
-20 -13 -28 -13 -8 0 -14 -4 -14 -10 0 -5 -8 -10 -18 -10 -10 0 -22 -4 -27 -9
-27 -24 -146 -81 -158 -75 -16 10 -128 91 -144 104 -7 5 -17 10 -23 10 -5 0
-10 3 -10 8 0 4 -9 12 -20 17 -104 53 -156 81 -158 88 -2 4 -10 7 -17 7 -7 0
-26 6 -42 14 -15 8 -39 19 -53 24 -14 6 -41 17 -62 26 -20 9 -42 16 -50 16 -8
0 -18 4 -24 8 -5 5 -40 17 -79 26 -38 9 -86 21 -105 26 -99 24 -146 32 -241
41 -147 14 -303 22 -309 16z m8 -1429 l2 -1278 75 0 75 0 0 1281 0 1281 83 -6
c45 -3 101 -8 125 -12 l42 -6 0 -1467 0 -1468 -41 -13 c-32 -11 -45 -11 -60
-2 -10 7 -24 12 -30 12 -15 0 -61 48 -92 97 -21 33 -27 55 -27 98 l0 55 -75 0
-75 0 0 -73 c0 -74 11 -110 52 -169 10 -14 18 -29 18 -33 0 -11 -250 4 -287
18 l-33 11 0 1298 0 1298 -75 0 -75 0 -2 -1282 -3 -1283 -22 -3 c-13 -2 -23 1
-23 7 0 6 -8 11 -17 11 -9 0 -54 14 -100 31 l-83 32 0 1352 0 1351 48 21 c71
32 142 53 174 53 28 0 28 0 28 -65 l0 -65 75 0 75 0 0 90 0 90 33 1 c17 0 41
4 52 9 11 5 52 8 90 7 l70 -2 3 -1277z m2312 1272 c0 -5 6 -10 13 -10 8 0 23
-8 34 -17 73 -66 73 -160 -1 -226 -21 -19 -283 -150 -323 -162 -13 -3 -23 -11
-23 -16 0 -5 -6 -9 -12 -9 -7 0 -35 -12 -63 -25 -27 -14 -55 -25 -62 -25 -6 0
-13 -3 -15 -7 -4 -10 -169 -93 -185 -93 -6 0 -13 -3 -15 -7 -3 -7 -24 -19
-118 -62 -19 -9 -36 -19 -38 -23 -2 -5 -12 -8 -23 -8 -10 0 -19 -4 -19 -9 0
-5 -13 -12 -30 -16 -16 -4 -30 -11 -30 -16 0 -5 -6 -9 -12 -9 -13 0 -122 -52
-320 -151 -54 -27 -100 -49 -103 -49 -3 0 -5 66 -5 148 l0 147 43 20 c23 11
44 22 47 25 3 3 32 19 65 35 33 17 62 32 65 35 3 3 37 21 75 40 39 19 72 37
75 40 3 3 28 17 55 31 149 77 221 115 225 119 3 3 23 14 45 25 22 11 57 30 77
43 21 12 44 22 53 22 8 0 15 3 15 8 0 4 10 12 23 18 41 20 152 79 157 84 11
11 73 40 86 40 8 0 14 4 14 9 0 5 8 12 18 15 9 4 33 15 52 26 38 21 160 28
160 10z m-1650 -76 c65 -23 82 -30 113 -44 l27 -13 0 -1354 c0 -1280 -1 -1354
-17 -1359 -10 -3 -27 -9 -38 -14 -55 -22 -112 -40 -128 -40 -9 0 -17 -5 -17
-11 0 -6 -10 -9 -22 -7 l-23 3 -3 1428 -2 1427 32 0 c18 0 53 -7 78 -16z
m-1499 -201 l29 -17 0 -118 c0 -67 -4 -119 -10 -123 -5 -3 -10 -2 -10 2 0 5
-22 17 -50 28 -27 11 -50 22 -50 26 0 3 -21 14 -47 24 -27 10 -54 25 -61 32
-7 7 -20 13 -28 13 -8 0 -14 4 -14 9 0 11 69 70 98 84 12 5 22 14 22 19 0 4 6
8 14 8 7 0 19 7 26 15 16 20 45 19 81 -2z m1909 2 c7 -8 19 -15 26 -15 8 0 14
-3 14 -8 0 -4 16 -16 35 -26 19 -11 35 -25 35 -33 0 -7 -24 -25 -52 -39 -29
-13 -75 -38 -103 -54 -27 -15 -53 -26 -57 -24 -5 3 -8 44 -8 90 0 77 2 88 23
105 27 22 70 24 87 4z m-2191 -267 c36 -18 68 -36 69 -40 2 -5 12 -8 22 -8 10
0 20 -3 22 -7 4 -11 67 -43 83 -43 7 0 15 -3 17 -7 2 -5 21 -17 43 -28 22 -11
43 -24 47 -30 4 -5 8 -61 8 -122 0 -128 -2 -131 -70 -88 -22 14 -46 25 -54 25
-8 0 -16 3 -18 8 -4 9 -66 42 -79 42 -5 0 -27 11 -49 25 -22 14 -46 25 -54 25
-8 0 -16 3 -18 8 -1 4 -43 27 -92 52 -49 25 -91 50 -93 56 -2 6 6 21 17 34 11
13 20 26 20 29 0 12 90 101 102 101 6 0 41 -15 77 -32z m-255 -280 c22 -13 43
-25 46 -28 9 -9 72 -40 81 -40 5 0 27 -11 49 -25 22 -14 46 -25 54 -25 8 0 16
-3 18 -7 4 -11 67 -43 84 -43 8 0 14 -4 14 -9 0 -5 11 -12 25 -15 14 -4 25
-11 25 -16 0 -6 7 -10 15 -10 19 0 65 -29 65 -41 0 -5 -6 -9 -12 -9 -16 0
-182 -82 -186 -92 -9 -20 -103 3 -132 32 -3 3 -54 30 -115 60 -60 30 -112 57
-115 61 -3 4 -14 8 -24 10 -35 7 -41 32 -18 81 12 24 22 50 22 56 0 7 5 12 10
12 6 0 10 6 10 13 0 14 28 57 37 57 3 0 24 -10 47 -22z m2988 -30 c42 -86 60
-129 55 -141 -3 -6 -34 -28 -71 -47 -44 -23 -66 -40 -66 -52 0 -10 4 -18 9
-18 5 0 12 -8 15 -17 17 -45 32 -63 53 -63 13 0 23 5 23 10 0 6 8 10 18 10 10
0 27 7 38 15 29 22 41 18 47 -17 32 -199 32 -190 11 -202 -10 -6 -39 -20 -64
-30 -25 -11 -47 -22 -50 -26 -3 -3 -45 -25 -95 -50 -49 -24 -107 -54 -127 -67
-21 -13 -44 -23 -53 -23 -8 0 -15 -3 -15 -7 0 -5 -20 -17 -45 -28 -25 -11 -45
-23 -45 -27 0 -5 -6 -8 -13 -8 -7 0 -70 -29 -139 -64 -69 -36 -129 -62 -132
-59 -3 4 -6 59 -6 123 l0 117 43 19 c23 10 44 21 47 24 10 11 72 40 85 40 7 0
15 3 17 8 2 4 55 34 118 66 207 105 208 106 175 140 -8 8 -15 17 -15 21 0 4
-6 13 -14 21 -8 7 -16 19 -18 26 -4 10 -19 6 -59 -12 -30 -14 -55 -28 -57 -32
-2 -5 -8 -8 -14 -8 -11 0 -80 -31 -88 -39 -12 -13 -210 -108 -215 -103 -8 8
-6 236 3 247 8 12 216 115 232 115 5 0 10 5 10 10 0 6 5 10 12 10 6 0 62 25
124 55 63 30 118 55 123 55 5 0 11 3 13 8 6 14 93 50 103 42 6 -5 17 -23 27
-42z m-3158 -297 c3 -5 18 -12 33 -16 15 -3 30 -10 33 -14 3 -3 41 -25 84 -47
44 -22 81 -44 83 -50 2 -5 -23 -23 -54 -39 -32 -16 -75 -40 -96 -53 -45 -27
-87 -31 -123 -11 -25 13 -26 16 -20 74 13 126 38 192 60 156z m736 -175 l0
-112 -85 -44 c-47 -24 -85 -48 -85 -52 0 -4 -6 -8 -14 -8 -13 0 -75 -29 -86
-40 -3 -3 -25 -15 -50 -27 -25 -13 -76 -40 -115 -61 -38 -21 -108 -59 -155
-83 -47 -25 -102 -56 -123 -68 -45 -25 -53 -22 -61 21 -32 185 -32 208 3 208
11 0 21 3 23 8 3 7 50 32 228 121 47 23 92 47 100 52 8 5 23 12 33 15 9 4 17
10 17 15 0 5 5 9 11 9 10 0 180 81 189 90 3 3 25 14 50 25 25 11 47 22 50 25
10 11 55 27 63 23 4 -2 7 -55 7 -117z m2540 -262 c32 -17 32 -17 26 -73 -11
-98 -29 -161 -46 -161 -8 0 -70 27 -137 61 -82 42 -119 67 -116 76 3 7 11 13
18 13 13 0 76 30 85 41 3 3 26 14 52 25 27 10 48 22 48 27 0 12 35 8 70 -9z
m-2540 -125 c0 -92 -2 -101 -20 -106 -11 -3 -20 -9 -20 -14 0 -5 -5 -9 -12 -9
-6 0 -106 -47 -222 -104 -116 -57 -226 -110 -243 -117 -18 -8 -33 -17 -33 -21
0 -5 -5 -8 -11 -8 -6 0 -84 -36 -175 -80 -90 -44 -168 -80 -174 -80 -5 0 -10
-4 -10 -10 0 -5 -5 -10 -11 -10 -14 0 -183 -83 -187 -92 -2 -5 -10 -8 -17 -8
-7 0 -44 -16 -83 -36 l-70 -36 -4 -72 c-4 -86 -19 -107 -77 -108 -54 -1 -81
28 -81 87 0 25 4 53 10 63 5 9 16 33 25 52 24 53 82 111 128 126 9 4 17 10 17
15 0 5 7 9 15 9 14 0 37 12 110 57 11 7 49 27 85 45 36 18 67 35 70 38 3 3 46
25 95 50 50 25 92 47 95 50 3 3 32 19 65 35 33 17 66 36 73 42 7 7 20 13 28
13 8 0 14 3 14 8 0 4 21 16 48 26 26 11 49 22 52 25 6 7 31 21 112 64 35 17
65 35 66 40 2 4 10 7 18 7 8 0 32 11 53 24 48 30 253 136 263 136 5 0 8 -45 8
-101z m2112 -66 c4 -11 67 -43 83 -43 7 0 15 -3 17 -7 4 -11 67 -43 83 -43 7
0 15 -3 17 -7 2 -5 39 -26 83 -48 93 -47 94 -50 42 -155 -45 -91 -48 -94 -89
-72 -18 9 -34 20 -36 25 -2 4 -10 7 -17 7 -16 0 -79 32 -83 43 -2 4 -12 7 -23
7 -10 0 -19 4 -19 9 0 5 -13 12 -30 16 -16 4 -30 10 -30 13 0 8 -74 42 -89 42
-5 0 -11 3 -13 8 -1 4 -33 22 -70 40 -37 18 -70 37 -72 41 -5 8 30 30 149 92
73 38 91 44 97 32z m-2112 -353 l0 -138 -157 -79 c-87 -43 -160 -80 -163 -83
-3 -3 -20 -13 -39 -23 -33 -17 -34 -17 -53 5 -11 13 -32 37 -46 53 -15 17 -43
50 -62 75 -19 25 -38 47 -42 48 -21 9 -2 30 50 54 118 55 171 78 181 78 5 0
11 4 13 8 3 7 256 134 288 144 8 3 18 3 23 1 4 -2 7 -67 7 -143z m1890 50 c3
-3 25 -14 50 -25 25 -11 47 -22 50 -25 11 -11 72 -40 86 -40 8 0 14 -3 14 -7
0 -5 21 -17 48 -27 26 -11 53 -26 60 -33 7 -7 20 -13 28 -13 8 0 14 -4 14 -10
0 -5 9 -10 21 -10 11 0 27 -7 35 -15 9 -8 11 -15 5 -15 -6 0 -11 -6 -11 -13 0
-7 -20 -34 -44 -61 -25 -26 -53 -59 -63 -72 -18 -24 -43 -32 -43 -15 0 5 -10
13 -22 17 -13 4 -25 10 -28 13 -7 9 -75 41 -88 41 -6 0 -12 3 -14 8 -1 4 -51
31 -110 60 l-108 54 0 117 c0 65 3 120 6 123 5 6 101 -39 114 -52z m-1890
-480 l0 -120 -38 -18 -38 -18 -55 35 c-94 62 -138 96 -139 106 0 6 26 23 58
38 31 15 86 43 122 62 35 19 70 35 77 35 10 0 13 -29 13 -120z m1840 96 c63
-34 162 -82 183 -89 9 -4 17 -10 17 -15 0 -10 -72 -70 -130 -108 -25 -16 -46
-32 -48 -36 -5 -11 -32 -10 -32 1 0 5 -13 14 -30 20 l-30 10 0 120 c0 90 3
121 13 121 6 0 32 -11 57 -24z"/>
<path d="M8609 3260 c-6 -4 -9 -33 -7 -66 l3 -59 83 -3 83 -3 -3 67 -3 66 -73
2 c-40 1 -77 -1 -83 -4z"/>
</g>
</svg>
