<?xml version="1.0" standalone="no"?>
<!DOCTYPE svg PUBLIC "-//W3C//DTD SVG 20010904//EN"
 "http://www.w3.org/TR/2001/REC-SVG-20010904/DTD/svg10.dtd">
<svg version="1.0" xmlns="http://www.w3.org/2000/svg"
 width="1086.000000pt" height="618.000000pt" viewBox="0 0 1086.000000 618.000000"
 preserveAspectRatio="xMidYMid meet">

<g transform="translate(0.000000,618.000000) scale(0.100000,-0.100000)"
fill="#000000" stroke="none">
<path d="M5070 3458 c-23 -38 -107 -248 -140 -355 -13 -39 -28 -69 -34 -67 -6
2 -49 -24 -96 -57 -104 -76 -193 -119 -242 -119 -32 0 -39 4 -44 25 -18 71 24
153 130 252 77 71 88 89 62 99 -43 16 -183 -101 -224 -187 -32 -65 -39 -137
-18 -180 18 -39 61 -69 99 -69 63 0 191 68 281 150 l53 50 -13 -58 c-19 -82
-18 -151 3 -159 28 -11 65 19 131 107 118 158 173 226 191 237 17 11 16 5 -6
-65 -13 -42 -27 -107 -30 -144 -5 -62 -4 -68 20 -92 51 -51 138 -31 259 62 70
54 78 53 78 -5 0 -15 13 -38 34 -59 32 -32 38 -34 97 -34 41 0 79 7 104 19 61
28 139 95 189 162 26 34 46 58 46 55 0 -4 -12 -54 -26 -111 -28 -112 -27 -138
8 -133 18 3 26 22 61 150 l39 146 47 7 c84 13 235 55 250 70 28 27 -14 28
-146 1 -70 -14 -128 -24 -130 -22 -1 1 16 64 38 140 40 137 43 166 15 166 -22
0 -49 -46 -80 -135 -25 -69 -70 -170 -83 -185 -2 -2 -43 -9 -91 -15 -81 -9
-87 -12 -90 -34 -4 -24 -3 -24 67 -19 62 5 69 3 62 -11 -22 -39 -101 -118
-155 -153 -50 -32 -68 -38 -112 -38 -60 0 -84 21 -84 75 0 26 5 33 36 44 82
30 164 140 149 199 -4 15 -14 35 -22 45 -18 19 -73 23 -104 6 -27 -14 -97
-123 -105 -163 -12 -58 -202 -195 -272 -196 -21 0 -35 6 -39 16 -3 9 8 65 25
125 18 59 32 121 32 138 0 36 -30 71 -62 71 -31 0 -99 -76 -198 -220 -52 -75
-86 -117 -88 -107 -6 29 47 203 115 380 79 206 84 227 54 227 -13 0 -29 -12
-41 -32z m643 -311 c-1 -15 -11 -40 -23 -57 -22 -31 -78 -75 -86 -68 -8 9 26
91 52 125 31 41 60 41 57 0z"/>
<path d="M3500 3394 c-55 -24 -137 -92 -190 -160 -101 -126 -134 -255 -88
-344 13 -25 39 -55 58 -68 30 -20 44 -23 93 -19 76 7 161 53 165 91 4 33 -10
33 -80 1 -51 -24 -109 -32 -143 -19 -25 10 -45 59 -45 111 0 106 109 255 246
335 64 38 72 49 49 72 -20 19 -21 19 -65 0z"/>
<path d="M7142 3308 c-7 -7 -12 -21 -12 -33 0 -29 19 -45 52 -45 37 0 64 39
48 69 -12 24 -68 29 -88 9z"/>
<path d="M3956 3270 c-52 -26 -80 -53 -126 -123 -37 -54 -39 -56 -42 -30 -2
20 -9 28 -23 28 -17 0 -21 -9 -27 -65 -4 -36 -15 -107 -24 -158 -17 -100 -15
-122 14 -122 16 0 26 20 52 97 64 193 113 264 222 319 70 35 76 42 56 62 -17
17 -57 14 -102 -8z"/>
<path d="M4171 3232 c-19 -10 -48 -38 -65 -61 -26 -36 -32 -54 -34 -109 -2
-37 -6 -92 -9 -122 -13 -137 97 -181 194 -79 39 42 79 119 93 183 33 148 -64
250 -179 188z m122 -66 c12 -16 -1 -100 -25 -164 -23 -63 -84 -132 -116 -132
-37 0 -47 25 -34 89 7 31 12 76 12 98 0 86 122 167 163 109z"/>
<path d="M6485 3210 c-36 -14 -92 -85 -114 -144 -14 -38 -21 -80 -21 -127 0
-61 3 -73 25 -94 34 -35 83 -33 157 7 59 31 149 105 206 169 l29 33 -4 -120
c-4 -95 -2 -123 10 -139 21 -28 43 -6 52 52 11 72 48 167 84 212 22 28 56 52
107 77 53 25 74 41 74 54 0 38 -65 33 -135 -10 -37 -23 -92 -86 -118 -135
l-16 -30 -1 52 c0 86 -5 85 -146 -41 -105 -93 -165 -133 -212 -142 -40 -8 -52
4 -52 53 0 29 5 35 49 57 124 63 172 146 116 201 -25 25 -54 30 -90 15z m55
-69 c0 -18 -94 -111 -112 -111 -13 0 23 81 50 113 21 24 62 23 62 -2z"/>
<path d="M7548 3195 c-95 -35 -227 -145 -267 -223 -40 -79 -16 -182 43 -182
40 0 112 58 172 140 l59 80 5 -54 c6 -65 35 -110 74 -114 16 -2 51 8 80 22 64
31 174 142 158 158 -7 7 -28 -3 -69 -35 -71 -55 -137 -89 -166 -85 -30 4 -33
55 -12 161 20 99 14 147 -18 146 -12 0 -39 -6 -59 -14z m-1 -112 c-63 -94
-149 -195 -184 -215 -78 -45 -64 50 20 140 49 52 195 157 205 148 2 -3 -16
-36 -41 -73z"/>
<path d="M7135 3137 c-24 -37 -56 -176 -58 -252 -2 -65 0 -70 20 -73 18 -3 24
4 32 35 16 61 51 252 51 277 0 33 -27 40 -45 13z"/>
</g>
</svg>
