<?xml version="1.0" standalone="no"?>
<!DOCTYPE svg PUBLIC "-//W3C//DTD SVG 20010904//EN"
 "http://www.w3.org/TR/2001/REC-SVG-20010904/DTD/svg10.dtd">
<svg version="1.0" xmlns="http://www.w3.org/2000/svg"
 width="2298.000000pt" height="800.000000pt" viewBox="0 0 2298.000000 800.000000"
 preserveAspectRatio="xMidYMid meet">

<g transform="translate(0.000000,800.000000) scale(0.100000,-0.100000)"
fill="#000000" stroke="none">
<path d="M6018 4428 c-26 -21 -118 -274 -158 -435 -8 -32 -21 -49 -58 -76 -95
-70 -175 -96 -188 -62 -3 8 -1 62 6 121 8 75 8 110 1 117 -6 6 -11 19 -11 29
0 45 -84 37 -175 -17 -67 -39 -167 -137 -198 -192 -52 -96 -43 -176 22 -203
51 -21 95 2 189 96 80 81 82 82 82 53 0 -52 28 -97 66 -108 56 -16 112 6 200
76 l42 33 6 -45 c9 -57 46 -102 96 -115 62 -17 125 6 214 78 l50 39 15 -31
c14 -27 22 -31 64 -34 81 -5 153 43 233 154 l21 29 -9 -65 c-30 -196 -121
-283 -277 -265 -43 5 -66 3 -76 -5 -21 -17 -19 -44 6 -66 17 -16 37 -19 108
-19 110 0 165 20 221 81 81 88 110 188 117 410 5 135 4 152 -12 168 -46 45
-155 -15 -313 -171 -119 -118 -211 -183 -293 -204 -25 -7 -53 -9 -62 -6 -39
15 -14 149 82 450 28 87 51 160 51 162 0 7 -31 35 -39 35 -4 0 -14 -6 -23 -12z
m522 -354 c-18 -45 -79 -130 -124 -172 -52 -48 -102 -76 -111 -62 -12 20 33
96 87 147 45 42 142 113 155 113 1 0 -2 -12 -7 -26z m-1016 -53 c-55 -102
-186 -239 -218 -228 -33 12 17 122 81 177 45 40 155 112 161 106 2 -3 -8 -27
-24 -55z"/>
<path d="M16726 4411 c-34 -37 -166 -377 -166 -427 0 -35 -241 -166 -344 -186
-53 -10 -60 -9 -72 6 -8 11 -10 32 -7 54 12 75 55 137 154 218 50 41 69 63 69
80 0 21 -5 24 -34 24 -67 0 -208 -119 -245 -206 -7 -18 -37 -47 -74 -71 -69
-47 -106 -63 -143 -63 -23 0 -24 3 -23 58 1 31 4 82 8 112 8 66 -5 117 -35
136 -19 13 -27 13 -63 0 -109 -37 -249 -155 -296 -249 -35 -72 -34 -130 4
-168 16 -16 39 -29 51 -29 55 0 131 54 201 143 l39 48 6 -40 c9 -54 39 -101
66 -103 71 -4 130 18 191 72 l34 29 11 -37 c16 -52 61 -92 110 -99 65 -9 208
48 315 123 l47 34 0 -51 c0 -58 13 -89 38 -89 29 0 40 19 58 97 10 40 21 73
24 73 4 0 24 -27 44 -59 66 -107 147 -161 244 -161 83 0 148 35 247 135 79 80
81 81 149 93 69 11 106 4 106 -19 0 -22 -67 -76 -115 -94 -107 -39 -115 -44
-115 -64 0 -30 35 -44 87 -36 138 20 250 130 227 222 -17 71 -102 100 -216 74
-35 -8 -37 -7 -28 10 6 10 38 41 73 69 49 40 69 50 98 50 32 0 38 4 48 30 13
38 0 76 -29 85 -37 12 -111 -34 -202 -125 -48 -48 -95 -104 -103 -125 -14 -33
-15 -39 -1 -60 15 -23 14 -25 -32 -65 -67 -58 -136 -90 -193 -90 -43 0 -53 5
-98 48 -28 26 -67 74 -86 107 l-35 59 71 28 c40 15 114 41 165 58 94 32 112
47 98 84 -14 37 -166 6 -304 -64 -41 -21 -60 -26 -60 -17 0 15 56 181 90 269
12 31 20 64 17 73 -9 21 -50 19 -71 -4z m-956 -356 c-27 -72 -153 -220 -212
-251 -25 -13 -29 -13 -34 1 -13 32 26 103 88 160 46 43 149 114 165 115 1 0
-2 -11 -7 -25z"/>
<path d="M13550 4401 c-94 -29 -177 -122 -211 -238 l-12 -42 -76 -3 c-70 -3
-76 -5 -79 -25 -3 -18 5 -26 38 -39 22 -9 46 -26 52 -37 12 -22 12 -118 0
-244 -9 -102 -3 -123 38 -123 39 0 45 15 60 155 6 61 17 137 23 170 l12 60 95
7 c52 4 119 14 148 21 48 13 53 13 47 -2 -18 -46 -35 -131 -35 -176 0 -62 24
-113 69 -142 50 -34 166 -32 267 3 l74 25 31 -25 c57 -48 163 -29 258 46 l26
20 6 -43 c7 -52 37 -79 89 -79 54 0 132 62 205 164 l20 28 -3 -94 c-3 -79 -1
-98 13 -112 20 -20 55 -18 66 4 4 8 12 74 18 145 13 153 29 238 77 397 20 64
34 125 32 135 -2 12 -12 18 -33 18 -34 0 -39 -8 -86 -140 l-32 -90 -41 0 c-52
0 -106 -36 -239 -159 -161 -149 -256 -203 -313 -177 l-26 11 42 42 c56 56 90
126 90 183 0 57 -12 80 -50 100 -67 35 -143 6 -181 -67 -24 -46 -32 -153 -16
-214 7 -27 5 -32 -20 -44 -15 -7 -69 -15 -119 -18 -83 -4 -94 -2 -113 17 -33
33 -27 56 17 69 57 18 149 79 171 116 14 21 21 50 21 81 0 40 -5 52 -34 81
-28 28 -41 34 -78 34 -29 0 -55 -8 -78 -23 -41 -27 -136 -46 -269 -54 l-94 -6
7 29 c14 54 57 115 104 145 25 16 53 29 61 29 68 0 118 42 91 75 -13 16 -86
19 -130 6z m338 -312 c4 -33 -35 -80 -95 -115 -24 -15 -46 -25 -48 -23 -8 9
32 102 58 135 22 27 35 34 55 32 21 -2 28 -9 30 -29z m792 -86 c-57 -105 -111
-176 -155 -203 -93 -57 -79 38 22 150 49 54 162 144 171 136 2 -3 -15 -40 -38
-83z m-500 42 c0 -38 -38 -122 -64 -144 -22 -19 -29 5 -24 79 5 66 27 100 65
100 20 0 23 -5 23 -35z"/>
<path d="M9113 4363 c-2 -10 -21 -62 -41 -117 l-37 -98 -42 -2 c-54 -3 -129
-53 -216 -146 -76 -80 -110 -145 -111 -213 -1 -41 3 -52 27 -73 69 -59 176 1
278 155 14 23 15 19 8 -55 -11 -108 2 -154 42 -154 36 0 46 25 52 137 8 136
36 283 83 434 20 65 34 124 31 133 -9 23 -67 21 -74 -1z m-150 -365 c-54 -105
-157 -222 -189 -216 -45 8 -19 79 60 166 51 55 154 142 169 142 5 0 -13 -42
-40 -92z"/>
<path d="M15117 4313 c-94 -157 -150 -308 -168 -455 -11 -86 -10 -100 5 -122
15 -23 23 -26 79 -26 194 0 357 124 357 270 0 44 -5 56 -29 81 -55 54 -128 29
-242 -84 -64 -63 -71 -67 -65 -41 11 44 57 156 117 282 57 122 58 144 7 150
-22 3 -31 -6 -61 -55z m189 -346 c-9 -48 -68 -112 -129 -140 -58 -27 -117 -41
-117 -28 0 15 176 176 211 193 18 9 35 15 37 13 3 -2 2 -19 -2 -38z"/>
<path d="M3051 4334 c-27 -34 -35 -111 -28 -278 9 -232 50 -377 109 -384 32
-4 62 36 135 183 63 125 203 448 203 467 0 43 -68 52 -99 13 -15 -21 -121
-260 -212 -480 -12 -29 -13 -28 -21 40 -9 73 -5 334 7 396 12 65 -53 95 -94
43z"/>
<path d="M4051 4294 c-23 -30 -26 -46 -11 -75 12 -21 44 -25 87 -8 32 12 43
26 43 56 0 55 -82 74 -119 27z"/>
<path d="M8113 4219 c-52 -26 -160 -124 -208 -189 -31 -42 -36 -57 -33 -93 3
-42 3 -42 -52 -70 -72 -36 -119 -34 -139 7 -7 16 -17 71 -21 123 -8 112 -27
146 -82 151 -29 3 -40 -3 -66 -32 -17 -19 -48 -66 -70 -103 -22 -37 -54 -93
-71 -123 -30 -51 -32 -53 -25 -20 3 19 22 84 41 143 42 132 41 152 -7 152 -32
0 -37 -4 -57 -47 -35 -73 -73 -215 -73 -274 0 -45 5 -59 28 -85 23 -26 33 -31
55 -25 31 7 101 102 175 235 l47 86 6 -97 c11 -158 54 -211 169 -211 48 0 67
5 109 32 28 18 66 51 84 73 31 37 40 41 112 54 81 14 115 8 115 -21 0 -32 -71
-80 -157 -105 -73 -22 -96 -71 -39 -86 38 -9 129 14 178 45 69 44 103 94 103
152 0 70 -33 101 -112 107 -32 2 -77 -1 -100 -6 -41 -9 -42 -9 -29 10 8 11 40
42 72 69 47 40 65 49 96 49 40 0 58 19 58 59 0 23 -33 61 -52 61 -7 0 -32 -9
-55 -21z"/>
<path d="M12664 4224 c-88 -43 -254 -217 -254 -266 0 -61 40 -75 162 -53 48 8
94 12 102 9 21 -8 20 -47 -2 -67 -15 -14 -92 -51 -174 -85 -38 -16 -39 -59 -3
-68 80 -20 227 55 271 138 30 58 11 129 -43 157 -26 13 -103 14 -155 2 -21 -5
-38 -5 -38 -1 0 5 30 36 67 69 56 51 74 61 103 61 45 0 60 15 60 56 0 23 -7
38 -22 48 -28 20 -35 20 -74 0z"/>
<path d="M11802 4205 c-29 -13 -76 -46 -105 -73 -28 -27 -87 -68 -129 -91 -75
-41 -78 -42 -107 -27 -50 26 -123 17 -260 -31 -24 -9 25 43 80 83 26 19 56 34
67 34 23 0 52 25 52 45 0 7 -8 23 -19 36 -17 21 -21 22 -57 11 -83 -25 -234
-174 -234 -231 0 -72 50 -80 204 -32 55 17 101 29 103 27 3 -2 -26 -21 -63
-42 -98 -55 -134 -89 -134 -128 0 -17 7 -41 15 -53 19 -27 81 -45 123 -37 69
14 162 131 162 204 0 25 8 35 48 61 l47 30 6 -31 c9 -41 37 -70 109 -111 34
-20 60 -41 60 -51 0 -9 -22 -32 -50 -52 -54 -39 -62 -59 -29 -77 54 -28 151
34 165 107 9 49 -8 80 -62 112 -81 47 -108 75 -101 104 11 44 45 75 136 128
91 51 110 72 90 96 -17 21 -57 17 -117 -11z m-408 -366 c-11 -18 -31 -41 -47
-52 -26 -20 -28 -20 -44 -4 -13 13 -14 20 -5 29 17 17 106 68 110 63 3 -2 -4
-18 -14 -36z"/>
<path d="M7073 4192 c-7 -4 -29 -50 -50 -102 -66 -163 -133 -267 -157 -243
-12 12 -6 59 19 148 37 134 32 175 -22 175 -30 0 -46 -33 -72 -152 -31 -145
-26 -222 17 -254 47 -36 108 -2 168 97 21 33 38 58 40 57 1 -2 -2 -40 -8 -86
-13 -98 -3 -132 36 -132 14 0 28 5 31 10 10 17 64 313 72 393 5 61 4 72 -12
83 -21 16 -44 18 -62 6z"/>
<path d="M10819 4187 c-93 -34 -153 -122 -148 -215 3 -60 -5 -72 -74 -107
-113 -56 -146 -30 -158 128 -9 119 -26 150 -81 155 -30 3 -40 -3 -70 -37 -20
-21 -64 -89 -98 -150 -35 -61 -65 -111 -67 -111 -8 0 3 42 44 172 30 97 34
120 23 133 -17 20 -53 19 -72 -2 -31 -35 -81 -204 -86 -288 -4 -75 -3 -82 21
-107 15 -16 35 -28 46 -28 28 0 95 82 157 192 83 148 83 147 84 53 0 -102 14
-151 54 -190 54 -55 149 -55 229 -1 l35 24 13 -29 c43 -106 182 -86 266 38 91
135 96 302 10 357 -34 22 -88 27 -128 13z m90 -101 c17 -21 -2 -116 -37 -186
-26 -53 -83 -105 -106 -97 -12 4 -13 51 -3 157 5 60 9 68 46 102 42 40 80 49
100 24z"/>
<path d="M12155 4189 c-43 -12 -102 -65 -126 -112 -15 -28 -22 -64 -24 -117
-1 -43 -6 -87 -9 -98 -10 -31 11 -96 40 -126 21 -21 36 -26 74 -26 192 0 323
395 156 471 -45 20 -65 22 -111 8z m89 -157 c-1 -83 -51 -186 -104 -213 -29
-16 -36 -17 -48 -5 -11 11 -12 24 -3 65 6 29 11 68 11 87 0 69 62 138 120 132
24 -3 25 -6 24 -66z"/>
<path d="M3654 4169 c-46 -13 -103 -75 -138 -148 -28 -59 -31 -76 -31 -163 0
-88 2 -98 24 -122 48 -51 150 -30 317 65 78 45 164 113 164 130 0 27 -43 15
-173 -50 -100 -51 -158 -73 -194 -78 l-53 -6 0 32 c0 21 6 34 18 38 9 3 50 21
90 40 81 40 128 86 137 137 16 83 -72 151 -161 125z m59 -113 c-2 -32 -40 -76
-90 -106 -39 -23 -43 -12 -17 48 34 82 112 124 107 58z"/>
<path d="M9413 4173 c-37 -7 -107 -78 -135 -134 -62 -130 -62 -285 0 -318 34
-18 109 -12 172 13 117 48 293 167 288 195 -6 29 -36 23 -118 -24 -106 -60
-219 -105 -265 -105 -34 0 -36 1 -33 31 3 27 10 33 63 54 147 60 212 146 173
229 -20 45 -86 72 -145 59z m57 -103 c0 -37 -25 -73 -75 -106 -27 -19 -51 -30
-53 -25 -6 18 41 112 66 131 32 26 62 26 62 0z"/>
<path d="M4579 4150 c-80 -24 -158 -79 -264 -187 -70 -70 -138 -128 -185 -157
-40 -25 -75 -44 -77 -42 -6 6 38 175 57 218 28 62 26 102 -6 127 -57 45 -66
29 -100 -160 -41 -234 -38 -227 -103 -256 -78 -35 -121 -69 -121 -98 0 -34 44
-65 92 -65 59 0 91 22 124 85 26 50 37 61 104 97 41 23 91 52 110 65 l34 23
11 -32 c14 -44 55 -72 93 -64 49 11 117 60 170 124 l50 61 7 -45 c10 -66 41
-97 97 -97 26 1 64 11 88 23 47 24 180 148 180 168 0 27 -32 22 -77 -11 -71
-52 -142 -87 -176 -87 l-30 0 7 123 c7 126 -1 166 -36 188 -15 10 -14 10 -49
-1z m-10 -131 c-49 -91 -183 -229 -224 -229 -11 0 -5 53 10 84 22 45 109 128
179 170 33 20 61 36 63 36 3 0 -10 -27 -28 -61z"/>
<path d="M17686 4139 c-30 -24 -36 -78 -10 -103 22 -23 80 -20 104 4 41 41 12
120 -44 120 -13 0 -35 -9 -50 -21z"/>
<path d="M17617 3812 c-25 -27 -22 -78 5 -96 30 -21 50 -20 82 5 28 22 36 75
14 97 -19 19 -82 15 -101 -6z"/>
</g>
</svg>
