<?xml version="1.0" standalone="no"?>
<!DOCTYPE svg PUBLIC "-//W3C//DTD SVG 20010904//EN"
 "http://www.w3.org/TR/2001/REC-SVG-20010904/DTD/svg10.dtd">
<svg version="1.0" xmlns="http://www.w3.org/2000/svg"
 width="2604.000000pt" height="1024.000000pt" viewBox="0 0 2604.000000 1024.000000"
 preserveAspectRatio="xMidYMid meet">

<g transform="translate(0.000000,1024.000000) scale(0.100000,-0.100000)"
fill="#000000" stroke="none">
<path d="M8113 6628 c-9 -11 -60 -144 -79 -208 -4 -10 -19 -15 -47 -15 -33 0
-56 -10 -103 -42 -75 -51 -167 -149 -199 -214 -34 -67 -34 -140 0 -174 61 -62
164 -9 270 139 l20 28 -3 -94 c-3 -79 -1 -98 13 -112 20 -20 55 -18 66 4 4 8
12 74 18 145 12 149 36 268 81 408 36 114 36 141 -1 145 -14 2 -30 -3 -36 -10z
m-153 -365 c-57 -105 -111 -176 -155 -203 -93 -57 -79 38 22 150 49 54 162
144 171 136 2 -3 -15 -40 -38 -83z"/>
<path d="M14444 6605 c-7 -19 -14 -37 -14 -40 0 -3 -14 -41 -30 -84 -29 -74
-31 -77 -59 -73 -35 5 -78 -17 -157 -79 -106 -84 -183 -203 -184 -282 0 -52
43 -97 93 -97 48 0 121 52 174 124 25 34 47 63 49 65 2 3 1 -34 -2 -82 -8 -94
7 -137 46 -137 34 0 50 38 50 121 0 105 31 278 78 434 21 71 37 138 34 147 -3
12 -14 18 -34 18 -24 0 -32 -6 -44 -35z m-151 -361 c-54 -97 -111 -167 -154
-189 -39 -21 -49 -19 -49 11 0 31 12 54 59 117 42 57 183 175 189 158 2 -6
-18 -50 -45 -97z"/>
<path d="M6155 6603 c-22 -21 -48 -81 -81 -188 l-26 -84 -56 -6 c-102 -11
-117 -17 -117 -50 l0 -30 78 2 c69 2 77 0 73 -15 -3 -9 -19 -77 -37 -150 -34
-145 -32 -162 21 -162 34 0 39 11 86 187 20 76 40 145 44 153 5 8 50 23 112
36 56 12 115 25 131 29 27 7 27 6 17 -21 -6 -15 -11 -50 -10 -78 0 -28 -3 -75
-6 -103 -22 -182 163 -210 275 -42 53 80 75 154 68 232 -12 135 -118 182 -239
107 -38 -23 -74 -33 -183 -50 -75 -12 -138 -21 -140 -19 -2 2 13 57 32 121 20
65 33 124 30 133 -8 20 -51 19 -72 -2z m475 -258 c17 -21 -1 -112 -38 -185
-26 -53 -83 -105 -106 -97 -12 4 -12 50 -3 157 5 60 9 68 46 103 43 39 80 48
101 22z"/>
<path d="M15278 6603 c-24 -28 -37 -56 -72 -166 l-34 -102 -53 -8 c-113 -17
-140 -33 -125 -72 6 -16 16 -17 81 -12 41 3 75 2 75 -3 0 -5 -14 -65 -31 -134
-37 -156 -36 -180 9 -184 40 -4 43 3 97 206 33 120 42 143 59 147 12 2 70 16
130 30 60 14 110 24 112 22 2 -2 -1 -20 -7 -42 -6 -21 -9 -52 -6 -69 3 -17 0
-50 -6 -73 -8 -31 -8 -52 2 -83 38 -128 178 -121 270 13 54 79 73 142 69 229
-3 65 -7 81 -28 104 -57 61 -132 66 -212 14 -34 -22 -70 -32 -176 -50 -73 -12
-136 -20 -139 -17 -3 3 9 55 27 115 18 60 30 118 28 128 -4 26 -50 30 -70 7z
m466 -249 c22 -8 20 -58 -5 -139 -29 -96 -100 -169 -140 -145 -10 7 -10 21 -1
73 7 35 12 80 12 98 0 41 21 74 64 100 33 20 45 23 70 13z"/>
<path d="M18616 6605 c-21 -22 -52 -93 -82 -191 l-25 -83 -57 -6 c-104 -12
-117 -18 -117 -51 l0 -29 78 2 c69 2 77 0 73 -15 -2 -9 -19 -77 -36 -150 -34
-146 -32 -162 20 -162 34 0 42 19 94 214 19 71 38 132 43 136 4 4 56 17 116
29 59 12 114 24 122 27 20 8 19 -21 -5 -174 -22 -143 -17 -175 27 -170 17 2
32 12 39 28 7 14 38 77 68 142 64 134 133 218 222 268 48 27 55 34 52 58 -3
23 -8 27 -38 30 -55 4 -132 -46 -185 -121 -81 -114 -74 -108 -75 -61 0 73 -5
75 -165 48 -77 -14 -145 -23 -152 -22 -7 2 0 41 24 120 20 65 33 124 30 133
-8 19 -51 19 -71 0z"/>
<path d="M16453 6575 c-25 -18 -30 -54 -11 -73 7 -7 27 -12 45 -12 44 0 111
-28 118 -50 8 -27 -3 -46 -45 -75 -22 -15 -62 -51 -90 -80 -56 -60 -65 -100
-30 -135 36 -36 121 -21 142 25 9 21 9 29 -4 41 -13 13 -20 14 -37 4 -12 -6
-27 -10 -33 -8 -6 2 26 30 71 62 117 81 151 147 116 221 -32 67 -189 119 -242
80z"/>
<path d="M4720 6533 c-121 -81 -239 -228 -259 -324 -21 -96 19 -172 106 -205
57 -22 119 -13 203 28 74 36 185 139 195 181 16 63 -22 117 -82 117 -54 0
-215 -30 -230 -42 -19 -15 -16 -42 7 -63 20 -18 56 -18 175 0 l40 6 -45 -41
c-56 -51 -153 -100 -197 -100 -73 0 -94 74 -47 168 28 56 110 137 196 195 69
46 82 71 52 101 -24 25 -55 19 -114 -21z"/>
<path d="M17485 6551 c-117 -21 -165 -41 -215 -91 -115 -115 -129 -354 -27
-449 23 -21 33 -23 94 -19 80 4 148 34 211 91 80 74 48 97 -73 52 -37 -14 -94
-32 -126 -39 -66 -16 -79 -9 -79 38 0 64 6 71 78 84 87 16 176 60 180 88 2 12
-4 24 -13 27 -14 6 -163 -15 -207 -29 -25 -7 -23 16 5 57 35 53 93 75 262 100
83 12 156 26 163 32 19 15 14 44 -10 61 -29 21 -114 20 -243 -3z"/>
<path d="M5741 6480 c-50 -23 -209 -177 -236 -229 -13 -26 -15 -39 -6 -58 18
-39 52 -45 154 -29 89 15 127 10 127 -15 0 -22 -67 -76 -115 -94 -107 -39
-115 -44 -115 -64 0 -85 216 -22 288 83 35 53 39 83 17 126 -28 55 -108 74
-208 51 -53 -13 -45 2 38 72 51 43 76 57 100 57 41 0 55 16 55 62 0 27 -5 40
-19 48 -26 13 -29 13 -80 -10z"/>
<path d="M8880 6478 c-57 -28 -215 -183 -235 -233 -14 -33 -14 -39 -1 -60 21
-33 58 -37 155 -20 58 10 89 11 102 4 24 -12 24 -20 -2 -53 -24 -30 -70 -55
-146 -80 -93 -31 -78 -94 19 -81 186 23 307 203 189 282 -37 25 -103 30 -173
14 -35 -8 -37 -7 -28 10 6 10 38 41 73 69 48 39 69 50 98 50 29 0 38 5 47 26
15 31 6 71 -18 84 -25 14 -29 13 -80 -12z"/>
<path d="M12093 6479 c-52 -26 -160 -124 -208 -189 -45 -62 -46 -107 -2 -128
24 -12 42 -11 119 2 94 16 128 11 128 -19 0 -32 -71 -80 -157 -105 -73 -22
-96 -71 -39 -86 38 -9 129 14 179 46 102 64 135 158 78 222 -24 27 -36 32 -87
36 -33 2 -76 -1 -97 -6 -20 -6 -37 -7 -37 -2 0 4 30 36 66 69 58 52 72 61 105
61 41 0 59 19 59 59 0 23 -33 61 -52 61 -7 0 -32 -9 -55 -21z"/>
<path d="M16160 6478 c-51 -26 -199 -168 -224 -216 -24 -46 -18 -84 17 -100
24 -12 43 -11 124 3 86 14 98 14 111 1 35 -34 -28 -90 -143 -126 -40 -13 -75
-36 -75 -51 0 -4 8 -15 17 -24 34 -34 164 1 237 65 76 67 88 140 32 196 -30
30 -40 34 -87 34 -30 0 -71 -4 -91 -9 -21 -5 -38 -5 -38 -1 0 5 30 36 66 69
58 52 72 61 105 61 28 0 41 5 49 19 17 32 12 69 -12 85 -29 21 -35 20 -88 -6z"/>
<path d="M11233 6465 c-28 -14 -73 -47 -101 -74 -28 -27 -87 -68 -131 -91 -75
-41 -80 -42 -102 -26 -33 23 -96 20 -186 -9 -42 -13 -79 -23 -81 -21 -7 8 115
107 138 112 41 9 55 20 58 48 4 33 -13 56 -43 56 -55 0 -229 -149 -252 -217
-13 -37 0 -71 33 -83 29 -11 58 -5 187 37 43 14 80 23 83 20 3 -3 -25 -21 -61
-42 -102 -57 -135 -90 -135 -134 0 -73 80 -109 162 -73 70 31 137 127 138 198
0 27 7 35 50 58 l50 27 0 -25 c0 -34 43 -82 107 -118 29 -16 55 -34 59 -39 8
-14 -8 -35 -53 -68 -48 -34 -54 -55 -22 -72 46 -24 122 18 158 88 27 53 -3 99
-100 158 -49 30 -59 41 -59 64 0 40 53 95 139 144 79 45 98 64 88 91 -9 24
-65 20 -124 -9z m-403 -365 c-23 -46 -60 -73 -84 -64 -29 11 -13 38 44 71 30
18 56 33 57 33 2 0 -6 -18 -17 -40z"/>
<path d="M13510 6458 c-41 -24 -69 -54 -110 -111 l-55 -78 -5 37 c-5 40 -28
61 -54 51 -24 -9 -31 -37 -55 -205 -23 -171 -20 -196 27 -190 16 2 31 12 38
28 7 14 38 77 68 142 64 134 133 218 222 268 48 27 55 34 52 58 -5 42 -58 42
-128 0z"/>
<path d="M21099 6443 c-19 -21 -81 -99 -139 -173 -109 -140 -122 -146 -101
-49 18 84 14 133 -14 163 -55 59 -114 19 -210 -141 -27 -45 -50 -81 -52 -80
-1 2 7 33 18 70 28 93 24 121 -19 125 -29 3 -34 -1 -46 -30 -8 -18 -17 -51
-21 -74 -6 -40 -10 -43 -99 -92 -112 -62 -214 -102 -261 -102 -32 0 -35 2 -35
30 0 20 6 33 18 36 44 15 146 66 170 85 41 32 62 70 62 115 0 54 -29 90 -82
105 -108 29 -219 -87 -249 -260 -14 -80 -5 -142 27 -176 23 -25 30 -27 87 -23
70 4 155 40 266 112 l70 45 -6 -34 c-8 -47 18 -85 57 -85 34 0 46 14 144 172
70 111 94 140 83 97 -4 -13 -10 -66 -13 -117 -6 -82 -5 -94 12 -113 30 -33 61
-41 94 -24 29 15 113 114 190 224 24 33 45 60 47 57 2 -2 -1 -32 -6 -67 -19
-123 -23 -226 -12 -248 13 -24 62 -29 79 -8 13 15 52 318 52 401 0 48 -4 67
-18 79 -29 26 -57 20 -93 -20z m-829 -122 c0 -37 -34 -79 -90 -110 l-42 -23 7
23 c26 84 67 139 105 139 15 0 20 -6 20 -29z"/>
<path d="M5239 6447 c-93 -34 -151 -119 -149 -218 0 -30 -3 -78 -6 -106 -22
-176 160 -210 269 -51 95 138 102 306 14 362 -34 22 -88 27 -128 13z m90 -101
c17 -21 -2 -116 -37 -186 -26 -53 -83 -105 -106 -97 -12 4 -13 51 -3 157 5 60
9 68 46 102 42 40 80 49 100 24z"/>
<path d="M7132 6448 c-6 -7 -21 -42 -35 -78 -58 -154 -137 -281 -162 -260 -14
12 -11 33 25 183 27 110 23 132 -26 132 -23 0 -32 -7 -46 -35 -24 -51 -48
-179 -48 -260 0 -62 3 -74 25 -95 57 -58 116 -19 211 141 9 15 10 8 3 -31 -12
-75 -11 -159 3 -173 7 -7 22 -12 35 -12 28 0 34 19 75 267 31 187 31 193 13
213 -20 22 -57 26 -73 8z"/>
<path d="M8377 6446 c-90 -33 -149 -121 -147 -219 1 -28 -2 -76 -6 -104 -12
-92 32 -153 109 -153 115 0 237 167 237 324 0 120 -90 190 -193 152z m93 -101
c17 -21 -4 -126 -38 -190 -26 -48 -85 -99 -106 -92 -17 6 -6 189 12 224 18 32
71 73 97 73 12 0 28 -7 35 -15z"/>
<path d="M10252 6447 c-87 -32 -144 -116 -144 -215 l0 -58 -48 -33 c-30 -20
-66 -35 -92 -38 -66 -8 -79 13 -90 139 -10 126 -28 162 -81 166 -46 4 -77 -26
-144 -143 -26 -44 -57 -98 -70 -120 l-25 -40 7 40 c4 22 22 87 41 143 39 120
36 145 -19 140 -30 -3 -34 -8 -64 -83 -47 -120 -69 -235 -54 -285 13 -45 50
-75 80 -65 31 10 86 82 156 205 l63 111 7 -83 c9 -112 23 -154 61 -187 58 -51
145 -49 226 4 29 19 38 22 38 10 0 -8 14 -30 31 -50 27 -30 37 -35 76 -35 24
0 56 6 72 14 43 23 100 93 134 165 26 54 31 78 31 136 0 89 -20 130 -77 156
-48 21 -69 22 -115 6z m96 -135 c4 -50 -20 -130 -55 -185 -23 -37 -78 -71 -96
-60 -14 8 3 194 20 226 18 35 70 68 103 65 22 -3 25 -8 28 -46z"/>
<path d="M11585 6446 c-52 -19 -121 -95 -136 -149 -6 -22 -9 -57 -6 -76 2 -20
0 -51 -6 -70 -14 -52 0 -115 33 -151 23 -24 36 -30 70 -30 83 0 144 49 202
163 40 79 50 192 21 246 -36 68 -104 93 -178 67z m89 -92 c22 -8 20 -58 -4
-136 -41 -134 -165 -216 -146 -97 4 24 10 72 14 105 8 67 20 87 67 116 32 19
44 21 69 12z"/>
<path d="M12994 6438 c-37 -29 -69 -66 -118 -137 -24 -36 -36 -47 -32 -31 26
102 18 139 -27 140 -51 0 -163 -424 -155 -590 3 -62 4 -65 30 -68 31 -4 43 13
53 78 3 25 11 72 16 105 l10 60 64 -3 c73 -4 129 16 187 67 93 82 152 247 119
334 -25 65 -94 86 -147 45z m45 -184 c-30 -79 -114 -165 -182 -183 -26 -8 -50
-12 -52 -9 -10 9 147 227 197 274 l53 49 3 -36 c2 -19 -7 -62 -19 -95z"/>
<path d="M13767 6450 c-44 -13 -94 -56 -122 -104 -21 -35 -26 -60 -30 -130 -2
-47 -6 -90 -10 -95 -11 -19 14 -94 41 -122 22 -23 36 -29 71 -29 55 0 89 18
136 69 93 103 128 259 80 354 -15 30 -82 67 -118 66 -11 0 -33 -5 -48 -9z m87
-158 c-1 -83 -51 -186 -104 -213 -50 -27 -64 -11 -50 60 5 30 10 69 10 88 0
68 63 137 120 131 24 -3 25 -6 24 -66z"/>
<path d="M14868 6443 c-9 -10 -25 -45 -37 -78 -30 -81 -107 -229 -131 -250
-22 -20 -40 -12 -40 18 0 12 13 73 29 136 35 135 31 160 -27 161 -17 0 -27 -9
-37 -34 -26 -62 -48 -180 -49 -259 -1 -74 1 -80 27 -103 15 -13 39 -24 52 -24
33 0 91 53 127 117 17 30 32 52 34 50 2 -2 -1 -40 -6 -84 -12 -98 -3 -133 35
-133 33 0 39 15 70 185 34 186 42 280 25 300 -17 20 -53 19 -72 -2z"/>
<path d="M19393 6433 c-37 -7 -107 -78 -135 -134 -62 -130 -62 -285 0 -318 34
-18 109 -12 172 13 117 48 293 167 288 195 -6 29 -36 23 -118 -24 -106 -60
-219 -105 -264 -105 -33 0 -36 2 -36 30 0 20 6 33 18 36 56 18 162 78 190 107
54 56 53 144 -3 181 -25 17 -80 26 -112 19z m57 -103 c0 -37 -25 -73 -75 -106
-27 -19 -51 -30 -53 -25 -6 18 41 112 66 131 32 26 62 26 62 0z"/>
<path d="M17822 6417 c-6 -7 -28 -62 -48 -123 -29 -83 -37 -126 -38 -181 -1
-66 1 -75 26 -100 24 -23 31 -26 55 -17 35 12 86 80 160 211 l58 102 8 -92
c13 -155 56 -209 166 -211 44 -1 66 5 102 26 60 35 139 123 139 154 0 36 -24
30 -88 -20 -63 -49 -99 -66 -142 -66 -48 0 -66 35 -73 139 -8 110 -26 158 -61
167 -63 16 -97 -19 -200 -201 -68 -121 -72 -102 -16 69 29 89 36 124 29 138
-11 21 -61 25 -77 5z"/>
<path d="M16416 6049 c-30 -24 -35 -69 -10 -93 40 -41 132 13 118 69 -6 25
-37 45 -68 45 -7 0 -25 -9 -40 -21z"/>
<path d="M16540 5517 c-17 -9 -33 -34 -51 -82 -39 -100 -79 -259 -86 -337 -6
-67 -6 -68 19 -68 23 0 31 15 107 206 79 201 93 258 69 282 -15 15 -27 15 -58
-1z"/>
<path d="M11088 5463 c-24 -29 -29 -40 -68 -157 l-37 -111 -54 -8 c-86 -13
-111 -21 -122 -39 -8 -12 -7 -21 3 -33 12 -15 26 -17 82 -12 38 3 68 2 68 -3
0 -5 -14 -66 -30 -137 -38 -157 -37 -177 8 -181 40 -4 45 6 97 203 20 77 38
141 40 143 1 2 71 18 154 37 83 19 160 39 171 45 20 11 27 35 12 44 -4 2 -74
-7 -155 -21 -82 -14 -151 -23 -154 -19 -3 3 9 51 26 106 38 119 38 154 0 158
-15 2 -31 -4 -41 -15z"/>
<path d="M12098 5463 c-25 -29 -40 -62 -74 -168 l-32 -100 -54 -8 c-112 -17
-139 -33 -124 -72 6 -16 15 -17 81 -12 41 4 75 6 75 4 0 -1 -15 -68 -34 -147
-37 -160 -35 -180 15 -180 37 0 38 2 89 194 22 83 43 153 47 156 5 4 55 16
113 28 58 12 115 25 127 28 21 6 22 4 12 -27 -5 -19 -9 -54 -8 -79 0 -25 -3
-66 -6 -91 -14 -92 31 -159 107 -159 81 0 151 60 206 177 22 48 27 72 27 140
0 94 -16 125 -78 156 -47 24 -100 16 -159 -23 -35 -23 -69 -32 -177 -50 -73
-11 -136 -18 -139 -15 -3 3 5 40 18 83 40 135 43 149 37 165 -8 22 -50 22 -69
0z m472 -259 c17 -19 2 -110 -29 -176 -23 -48 -66 -95 -91 -98 -40 -6 -43 -2
-35 53 4 28 10 78 14 109 5 41 14 65 31 84 41 43 88 56 110 28z"/>
<path d="M15200 5338 c-51 -26 -199 -168 -224 -216 -24 -46 -18 -84 17 -100
24 -12 42 -11 119 2 63 10 96 12 109 5 53 -28 -13 -90 -136 -129 -40 -13 -75
-36 -75 -51 0 -4 8 -15 17 -24 34 -34 164 1 237 65 76 67 88 140 32 196 -31
31 -39 34 -93 34 -32 0 -73 -4 -91 -9 -17 -5 -32 -6 -32 -1 0 4 30 36 66 69
58 52 72 61 105 61 41 0 59 19 59 59 0 23 -33 61 -52 61 -7 0 -33 -10 -58 -22z"/>
<path d="M10481 5318 c-6 -7 -34 -42 -61 -78 -41 -52 -132 -140 -145 -140 -1
0 -1 28 2 63 5 74 -16 117 -72 144 -65 31 -183 -16 -221 -88 -10 -19 -14 -52
-13 -91 3 -69 5 -66 -106 -128 -76 -42 -209 -90 -249 -90 -30 0 -41 27 -31 78
12 63 34 94 132 188 100 95 113 124 57 124 -44 0 -96 -31 -165 -99 -73 -74
-109 -147 -109 -227 0 -82 55 -144 127 -144 50 0 156 38 236 85 59 35 73 40
75 26 13 -70 60 -107 123 -98 52 7 100 45 141 111 27 44 41 56 80 70 26 9 70
34 98 57 45 36 50 38 45 17 -38 -165 -43 -232 -19 -266 36 -51 79 -12 189 173
38 63 70 114 71 112 1 -1 -1 -34 -6 -72 -11 -82 -13 -187 -4 -209 8 -20 47
-21 63 -2 6 8 16 54 22 102 5 49 14 118 19 154 16 108 13 158 -9 170 -59 31
-94 0 -201 -175 -33 -55 -60 -94 -60 -87 0 7 14 78 31 157 26 118 29 147 19
160 -15 18 -45 20 -59 3z m-303 -135 c2 -23 -2 -60 -8 -82 -10 -38 -13 -41
-38 -35 -93 22 -111 113 -29 149 54 24 72 16 75 -32z m-81 -180 c30 -5 31 -6
17 -28 -22 -34 -60 -48 -79 -29 -17 17 -17 20 -9 52 5 16 11 21 23 17 9 -4 30
-9 48 -12z"/>
<path d="M14131 5318 c-6 -7 -34 -42 -61 -78 -41 -52 -132 -140 -145 -140 -1
0 -1 28 2 63 5 74 -16 117 -72 144 -30 14 -42 15 -87 4 -103 -23 -150 -83
-147 -183 2 -53 0 -62 -22 -79 -47 -36 -225 -118 -281 -130 -75 -16 -93 -4
-84 58 9 69 31 102 133 199 100 95 113 124 57 124 -44 0 -96 -31 -165 -99 -73
-74 -109 -147 -109 -227 0 -82 55 -144 127 -144 50 0 156 38 236 85 l72 43 7
-31 c3 -18 21 -45 39 -60 27 -25 38 -29 75 -24 56 6 104 42 146 111 27 44 41
56 80 70 26 9 70 34 98 57 45 36 50 38 45 17 -38 -165 -43 -232 -19 -266 36
-51 79 -12 189 173 38 63 70 114 71 112 1 -1 -1 -34 -6 -72 -11 -82 -13 -187
-4 -209 8 -20 47 -21 63 -2 12 14 51 300 51 373 0 46 -17 63 -64 63 -31 0 -73
-50 -156 -185 -33 -55 -60 -94 -60 -87 0 7 14 78 31 157 26 118 29 147 19 160
-15 18 -45 20 -59 3z m-303 -135 c2 -23 -2 -60 -8 -82 -10 -38 -13 -41 -38
-35 -93 22 -111 107 -31 147 54 27 73 19 77 -30z m-81 -180 c30 -5 31 -6 17
-28 -22 -34 -60 -48 -79 -29 -17 17 -17 20 -9 52 5 16 11 21 23 17 9 -4 30 -9
48 -12z"/>
<path d="M14695 5306 c-84 -31 -158 -152 -142 -234 3 -15 0 -46 -6 -69 -13
-51 3 -114 39 -150 22 -22 32 -25 79 -21 66 6 113 38 160 112 88 137 88 294 2
351 -36 23 -86 27 -132 11z m89 -92 c38 -15 -2 -180 -60 -244 -60 -66 -101
-61 -90 11 4 24 10 72 14 105 8 67 20 87 67 116 32 19 44 21 69 12z"/>
<path d="M16045 5305 c-77 -27 -145 -129 -145 -218 0 -19 -14 -32 -72 -65
-106 -60 -177 -91 -243 -104 -53 -10 -59 -10 -71 7 -9 13 -12 31 -8 55 14 75
58 136 155 216 52 42 69 62 67 78 -5 37 -55 32 -124 -12 -98 -63 -162 -157
-179 -259 -13 -84 37 -160 113 -170 62 -8 202 45 310 119 39 27 42 28 42 9 0
-35 31 -99 55 -115 14 -9 44 -16 68 -16 58 0 115 41 166 120 49 75 64 132 59
219 -4 78 -25 112 -85 137 -40 17 -57 17 -108 -1z m94 -94 c10 -7 13 -23 8
-63 -12 -119 -106 -249 -158 -218 -11 7 -11 19 -1 68 7 32 12 76 12 98 0 46
19 78 64 105 34 21 54 23 75 10z"/>
<path d="M11568 5266 c-58 -21 -122 -62 -183 -117 -73 -67 -112 -125 -127
-189 -10 -43 -9 -56 5 -85 41 -85 115 -70 230 46 43 43 80 79 82 79 3 0 5 -14
5 -30 0 -74 59 -120 128 -100 54 15 119 58 177 116 89 88 68 127 -28 55 -63
-48 -132 -80 -169 -81 -26 0 -28 3 -28 38 0 21 5 75 10 121 8 59 8 87 0 95 -5
5 -10 18 -10 28 0 14 -38 41 -53 38 -1 -1 -18 -7 -39 -14z m6 -125 c-60 -111
-199 -250 -225 -224 -7 7 -7 24 1 54 9 31 29 59 73 104 55 54 165 130 175 120
2 -2 -8 -26 -24 -54z"/>
<path d="M16350 4930 c-11 -11 -20 -32 -20 -48 0 -33 25 -72 46 -72 25 0 74
56 74 84 0 52 -61 75 -100 36z"/>
</g>
</svg>
