<?xml version="1.0" standalone="no"?>
<!DOCTYPE svg PUBLIC "-//W3C//DTD SVG 20010904//EN"
 "http://www.w3.org/TR/2001/REC-SVG-20010904/DTD/svg10.dtd">
<svg version="1.0" xmlns="http://www.w3.org/2000/svg"
 width="1035.000000pt" height="1422.000000pt" viewBox="0 0 1035.000000 1422.000000"
 preserveAspectRatio="xMidYMid meet">

<g transform="translate(0.000000,1422.000000) scale(0.100000,-0.100000)"
fill="#000000" stroke="none">
<path d="M5110 11260 c0 -15 5 -20 18 -18 9 2 17 10 17 18 0 8 -8 16 -17 18
-13 2 -18 -3 -18 -18z"/>
<path d="M5188 11161 c-2 -15 -2 -33 0 -39 5 -17 29 -15 36 3 3 9 12 12 22 8
14 -5 14 -3 -2 16 -11 12 -26 27 -35 32 -14 7 -18 3 -21 -20z"/>
<path d="M5071 11116 c-1 -26 2 -37 9 -30 6 6 6 21 1 39 -9 30 -9 30 -10 -9z"/>
<path d="M5260 11025 c0 -33 2 -36 15 -25 18 15 16 51 -2 58 -9 2 -13 -8 -13
-33z"/>
<path d="M5127 11044 c-3 -4 -2 -16 4 -26 6 -11 9 -31 7 -43 -4 -17 -1 -22 9
-18 10 4 12 15 7 42 -7 39 -17 55 -27 45z"/>
<path d="M4998 10942 c-26 -27 -27 -29 -10 -45 15 -16 15 -19 2 -27 -12 -8
-13 -13 -2 -30 12 -19 10 -20 -38 -20 -27 0 -50 -4 -50 -10 0 -5 7 -10 15 -10
8 0 25 -11 37 -25 20 -23 23 -24 39 -9 11 10 26 13 43 8 19 -4 27 -2 32 10 8
20 24 21 24 1 0 -8 -4 -15 -10 -15 -5 0 -10 -15 -10 -34 0 -38 -25 -57 -33
-25 -3 11 -14 19 -26 19 -14 0 -19 -5 -15 -15 4 -11 0 -15 -16 -15 -14 0 -20
5 -17 13 2 6 -1 17 -8 24 -10 9 -14 8 -18 -8 -4 -13 -14 -19 -33 -19 -27 0
-27 -1 -8 -15 18 -14 18 -16 2 -29 -24 -18 -23 -36 2 -36 11 0 20 -4 20 -10 0
-5 7 -10 15 -10 8 0 15 9 15 20 0 13 7 20 20 20 11 0 23 7 26 15 4 8 12 15 20
15 12 0 13 -24 5 -108 0 -7 -9 -12 -18 -10 -15 2 -17 -3 -14 -32 1 -19 10 -48
18 -64 9 -17 11 -31 5 -35 -17 -11 -33 -49 -22 -56 5 -3 10 -16 10 -28 0 -14
13 -31 37 -47 20 -14 45 -34 55 -44 20 -22 24 -52 7 -58 -15 -5 29 -78 46 -78
7 0 16 6 18 13 4 7 6 6 6 -5 1 -9 4 -23 7 -32 5 -14 -10 -16 -129 -16 l-135 0
-2 -67 c-5 -179 -3 -309 8 -688 7 -238 16 -411 21 -413 6 -2 7 -10 4 -18 -3
-9 1 -14 13 -14 29 0 10 -10 -52 -25 -32 -8 -70 -21 -84 -27 -22 -11 -13 -14
80 -19 402 -25 387 -22 268 -46 -16 -3 -28 -9 -28 -14 0 -12 137 -11 145 1 11
18 25 11 25 -12 0 -16 3 -19 11 -11 8 8 11 130 10 404 l-2 394 26 1 c14 1 25
-1 26 -5 0 -3 3 -17 5 -31 3 -14 7 -40 8 -58 9 -76 17 -101 36 -107 28 -9 25
-35 -3 -35 -20 0 -22 -4 -21 -45 2 -50 17 -75 45 -75 11 0 19 -4 19 -9 0 -21
-13 -41 -26 -41 -14 0 -20 -35 -6 -43 4 -2 2 -2 -5 -1 -15 4 -21 -15 -14 -41
4 -12 14 -20 26 -20 16 0 21 8 23 38 2 22 10 41 18 44 20 8 20 129 -1 150 -14
14 -14 18 0 39 24 38 19 72 -20 112 -40 42 -41 47 -19 69 8 9 13 22 10 30 -3
8 -6 23 -6 34 0 10 -6 19 -13 19 -8 0 -20 11 -27 25 -7 14 -19 25 -26 25 -8 0
-11 6 -8 14 3 7 -2 16 -10 19 -9 4 -17 -1 -21 -13 -10 -31 -32 -3 -27 33 4 27
6 28 17 14 7 -10 26 -17 44 -17 29 0 31 2 31 39 0 25 -5 41 -15 45 -8 3 -15
12 -15 21 0 8 -4 15 -10 15 -5 0 -10 -8 -10 -17 -1 -15 -2 -16 -9 -3 -5 8 -11
58 -15 110 -4 52 -11 97 -16 98 -6 2 -10 21 -10 42 0 29 -6 41 -25 54 -17 11
-25 26 -25 46 0 27 -9 35 -34 31 -4 -1 -16 6 -25 16 -9 10 -29 25 -45 33 -16
8 -31 21 -34 28 -4 14 34 17 43 2 3 -5 13 -10 21 -10 20 0 19 83 -1 100 -8 7
-15 19 -15 26 0 9 -11 14 -28 14 -15 0 -33 5 -40 12 -9 9 -12 9 -12 0 0 -7 -4
-12 -10 -12 -5 0 -10 7 -10 15 0 8 7 15 15 15 8 0 15 5 15 10 0 6 8 10 19 10
31 0 44 107 16 130 -8 7 -15 18 -15 25 0 7 -10 15 -22 19 -18 5 -20 8 -9 15 7
5 10 14 7 20 -4 6 -2 11 5 11 20 0 38 33 39 72 0 20 -4 39 -9 42 -5 4 -16 26
-24 49 -16 46 -8 77 18 77 8 0 15 5 15 10 0 6 -5 10 -11 10 -12 0 -39 25 -39
35 0 6 -59 66 -64 65 0 0 -13 -13 -28 -28z m72 -552 c0 -4 -7 -10 -15 -14 -10
-4 -15 1 -15 14 0 13 5 18 15 14 8 -4 15 -10 15 -14z m77 -112 c-3 -8 -6 -5
-6 6 -1 11 2 17 5 13 3 -3 4 -12 1 -19z m-37 -230 c-13 -5 -31 -6 -39 -2 -12
5 -8 9 14 14 38 8 56 0 25 -12z m97 6 c-3 -3 -12 -4 -19 -1 -8 3 -5 6 6 6 11
1 17 -2 13 -5z m-92 -94 c7 -12 -40 -24 -56 -14 -9 5 -7 10 7 15 27 11 42 11
49 -1z"/>
<path d="M5340 10927 c0 -8 9 -22 20 -32 11 -10 17 -21 12 -24 -5 -3 -12 -18
-15 -33 -6 -23 -4 -25 15 -20 12 3 30 12 40 21 20 17 25 51 7 51 -14 0 -39 25
-39 39 0 6 -9 11 -20 11 -11 0 -20 -6 -20 -13z"/>
<path d="M5224 10905 c-4 -9 -1 -21 4 -28 6 -7 9 -22 6 -34 -7 -25 24 -59 39
-44 7 7 7 18 -1 36 -7 14 -12 36 -12 49 0 28 -28 43 -36 21z"/>
<path d="M5312 10764 c-17 -12 -20 -19 -12 -29 6 -7 8 -24 5 -38 -4 -14 -2
-27 3 -31 5 -3 7 -17 4 -31 -2 -15 0 -25 7 -25 6 0 11 -7 11 -16 0 -9 6 -14
13 -11 12 4 15 59 4 87 -4 8 -8 36 -9 63 -3 47 -3 48 -26 31z"/>
<path d="M5429 10758 c-1 -7 0 -28 1 -46 1 -18 -3 -39 -9 -45 -6 -8 -6 -18 -1
-27 7 -11 11 -11 24 -1 9 8 16 9 16 3 0 -12 45 -21 60 -12 14 8 4 50 -11 50
-5 0 -9 11 -9 25 0 14 -4 25 -9 25 -5 0 -13 9 -16 20 -7 22 -44 28 -46 8z"/>
<path d="M4750 10580 c0 -11 7 -20 15 -20 8 0 15 9 15 20 0 11 -7 20 -15 20
-8 0 -15 -9 -15 -20z"/>
<path d="M4621 10572 c-9 -17 -8 -23 6 -30 14 -8 15 -13 4 -26 -7 -8 -9 -21
-5 -27 13 -21 34 20 27 55 -8 42 -19 52 -32 28z"/>
<path d="M5490 10561 c0 -12 -7 -35 -15 -51 -9 -17 -11 -30 -5 -30 5 0 10 -9
10 -20 0 -12 7 -20 18 -20 9 0 33 -3 53 -6 35 -6 37 -5 41 24 5 34 -4 57 -35
87 -15 13 -22 15 -25 7 -3 -9 -10 -6 -23 9 l-19 22 0 -22z m57 -63 c-3 -7 -5
-2 -5 12 0 14 2 19 5 13 2 -7 2 -19 0 -25z"/>
<path d="M4867 10542 c-22 -24 -22 -44 3 -65 19 -16 21 -16 40 0 22 19 27 53
9 53 -7 0 -17 7 -23 16 -11 14 -13 13 -29 -4z"/>
<path d="M5370 10545 c7 -8 16 -15 21 -15 5 0 6 7 3 15 -4 8 -13 15 -21 15
-13 0 -13 -3 -3 -15z"/>
<path d="M5380 10485 c0 -14 5 -25 10 -25 6 0 10 11 10 25 0 14 -4 25 -10 25
-5 0 -10 -11 -10 -25z"/>
<path d="M5600 10471 c0 -6 5 -13 10 -16 6 -3 10 1 10 9 0 9 -4 16 -10 16 -5
0 -10 -4 -10 -9z"/>
<path d="M4695 10439 c-4 -6 -3 -15 3 -21 6 -6 11 -4 15 6 7 18 -9 31 -18 15z"/>
<path d="M4862 10442 c-7 -5 -12 -13 -11 -18 5 -28 -3 -34 -47 -34 -28 0 -43
-4 -39 -10 4 -6 11 -8 16 -5 5 4 9 -3 9 -14 0 -11 -8 -21 -17 -24 -14 -3 -12
-6 10 -15 39 -16 76 -5 83 24 4 17 13 24 29 24 15 0 26 8 30 20 3 11 11 20 16
20 5 0 9 7 9 15 0 8 -4 15 -10 15 -5 0 -10 -7 -10 -15 0 -22 -25 -18 -41 5 -9
13 -19 17 -27 12z"/>
<path d="M5380 10411 c0 -33 25 -60 41 -44 7 7 8 17 1 29 -5 11 -7 25 -5 32 3
7 -4 12 -16 12 -16 0 -21 -6 -21 -29z"/>
<path d="M5450 10410 c0 -11 4 -20 9 -20 11 0 22 26 14 34 -12 12 -23 5 -23
-14z"/>
<path d="M4542 10363 c4 -34 18 -52 35 -46 17 7 16 41 -1 59 -23 22 -38 17
-34 -13z"/>
<path d="M5547 10318 c-2 -29 -8 -64 -12 -77 -8 -22 -6 -24 21 -18 16 3 37 1
46 -4 15 -8 18 -5 18 21 0 16 -5 30 -10 30 -6 0 -8 11 -6 25 4 23 -26 75 -44
75 -4 0 -10 -24 -13 -52z"/>
<path d="M5437 10333 c-5 -27 -2 -41 7 -32 11 10 17 59 8 59 -5 0 -12 -12 -15
-27z"/>
<path d="M4878 10308 c9 -9 15 -9 24 0 9 9 7 12 -12 12 -19 0 -21 -3 -12 -12z"/>
<path d="M5646 10264 c8 -46 12 -53 23 -35 11 17 3 47 -16 63 -13 10 -14 6 -7
-28z"/>
<path d="M4640 10274 c0 -8 5 -12 10 -9 6 3 10 10 10 16 0 5 -4 9 -10 9 -5 0
-10 -7 -10 -16z"/>
<path d="M4855 10280 c-3 -5 -30 -10 -60 -10 -40 0 -54 -4 -59 -17 -4 -9 -1
-20 6 -25 9 -5 8 -8 -6 -8 -12 0 -16 -5 -12 -16 3 -9 6 -18 6 -20 0 -2 7 -4
15 -4 18 0 18 -7 4 -49 -6 -17 -18 -31 -26 -31 -9 0 -14 -9 -13 -22 4 -40 0
-48 -17 -48 -19 -1 -53 -22 -53 -34 0 -3 9 -6 20 -6 11 0 20 -7 20 -15 0 -8 7
-15 15 -15 8 0 15 5 15 10 0 6 7 10 15 10 9 0 15 9 15 25 0 19 5 25 21 25 15
0 19 4 15 16 -5 13 -2 15 13 11 14 -3 23 3 31 24 7 16 16 29 21 29 12 0 11 27
-1 35 -5 3 -21 -5 -34 -19 -13 -14 -28 -26 -35 -26 -14 0 -15 27 -1 35 6 3 10
14 10 25 0 11 10 20 25 24 24 6 36 36 14 36 -5 0 -7 5 -4 11 4 6 14 8 22 5 17
-7 43 16 43 38 0 18 -15 21 -25 6z"/>
<path d="M5418 10265 c-22 -29 -23 -42 -3 -25 13 11 15 7 15 -24 0 -30 4 -36
21 -36 18 0 20 4 15 28 -4 15 -10 39 -13 55 -6 33 -13 33 -35 2z"/>
<path d="M4483 10204 c-18 -19 -17 -84 1 -84 23 0 45 28 39 50 -3 11 -9 20
-13 20 -5 0 -10 6 -12 14 -2 12 -5 12 -15 0z"/>
<path d="M5052 10200 c-16 -26 -15 -40 3 -40 10 0 15 10 15 30 0 35 -1 36 -18
10z"/>
<path d="M5670 10189 c0 -5 5 -7 10 -4 6 3 10 8 10 11 0 2 -4 4 -10 4 -5 0
-10 -5 -10 -11z"/>
<path d="M5500 10167 c0 -9 -4 -17 -10 -17 -5 0 -10 -17 -10 -38 0 -20 -4 -52
-10 -71 -6 -21 -6 -40 0 -50 8 -14 9 -14 10 2 0 9 4 17 9 17 10 0 26 159 17
168 -3 3 -6 -2 -6 -11z"/>
<path d="M5608 10150 c-12 -10 -18 -32 -18 -58 0 -31 -5 -45 -22 -56 l-21 -15
27 -11 c15 -5 32 -10 37 -10 5 0 10 -10 10 -22 1 -17 2 -19 6 -6 5 21 55 37
61 20 8 -26 22 -10 22 26 0 30 -7 43 -35 67 -19 16 -35 37 -35 45 0 29 -14 38
-32 20z"/>
<path d="M4573 10104 c-8 -22 5 -30 23 -12 14 14 14 16 -1 21 -9 4 -18 1 -22
-9z"/>
<path d="M5546 10104 c-10 -25 -7 -34 9 -28 8 4 15 15 15 25 0 23 -16 25 -24
3z"/>
<path d="M4370 10095 c0 -8 7 -15 15 -15 8 0 15 4 15 9 0 5 -7 11 -15 15 -9 3
-15 0 -15 -9z"/>
<path d="M4441 9973 c1 -22 3 -29 6 -18 3 11 9 24 14 30 14 14 11 25 -6 25
-11 0 -15 -10 -14 -37z"/>
<path d="M4785 10000 c3 -5 10 -10 16 -10 5 0 9 5 9 10 0 6 -7 10 -16 10 -8 0
-12 -4 -9 -10z"/>
<path d="M4740 9945 c0 -17 -26 -21 -32 -5 -2 6 -17 0 -35 -12 -38 -28 -49
-74 -24 -101 17 -17 18 -17 37 0 11 10 29 33 39 51 11 17 23 32 27 32 4 0 8 7
8 15 0 8 5 15 10 15 6 0 10 5 10 10 0 6 -9 10 -20 10 -11 0 -20 -7 -20 -15z"/>
<path d="M4520 9925 c0 -8 5 -15 11 -15 6 0 17 7 25 15 14 13 13 15 -10 15
-16 0 -26 -6 -26 -15z"/>
<path d="M5513 9933 c-7 -3 -13 -11 -13 -20 0 -8 -7 -21 -15 -29 -8 -9 -15
-26 -15 -40 0 -13 -6 -24 -12 -25 -7 0 1 -7 17 -14 36 -16 45 -12 45 20 0 13
5 34 11 47 12 27 0 67 -18 61z"/>
<path d="M5631 9921 c-6 -11 -11 -32 -11 -47 0 -16 -10 -36 -25 -50 -14 -13
-25 -34 -25 -48 0 -16 -7 -27 -20 -31 -11 -3 -20 -13 -20 -20 0 -8 -12 -25
-27 -39 -15 -14 -23 -29 -19 -33 5 -4 11 -2 13 5 4 9 8 10 18 2 9 -8 12 -27 9
-61 -3 -35 -1 -49 8 -49 18 0 44 43 29 48 -14 5 -15 39 -1 47 6 3 10 19 10 35
0 63 43 132 71 114 14 -9 49 6 49 21 0 7 6 16 13 18 10 4 10 6 0 6 -7 1 -13 7
-13 14 0 17 -28 75 -40 82 -5 3 -14 -3 -19 -14z"/>
<path d="M5690 9932 c0 -18 32 -118 41 -126 5 -6 9 -21 9 -34 0 -13 7 -30 15
-38 26 -27 19 68 -10 132 -14 30 -25 59 -25 64 0 6 -7 10 -15 10 -8 0 -15 -4
-15 -8z"/>
<path d="M4310 9897 c0 -22 11 -27 26 -12 19 19 18 25 -6 25 -11 0 -20 -6 -20
-13z"/>
<path d="M5582 9883 c-18 -32 -16 -51 4 -31 9 8 14 24 12 34 -4 18 -5 17 -16
-3z"/>
<path d="M4590 9875 c0 -8 4 -15 9 -15 5 0 11 7 15 15 3 9 0 15 -9 15 -8 0
-15 -7 -15 -15z"/>
<path d="M4372 9850 c0 -14 2 -19 5 -12 2 6 2 18 0 25 -3 6 -5 1 -5 -13z"/>
<path d="M4751 9842 c0 -15 -9 -26 -21 -29 -23 -6 -27 -23 -6 -23 21 0 38 26
33 52 l-4 23 -2 -23z"/>
<path d="M4400 9793 c0 -29 2 -29 19 5 10 18 9 22 -4 22 -10 0 -15 -9 -15 -27z"/>
<path d="M4655 9780 c-3 -5 -3 -10 1 -10 4 0 -3 -11 -16 -25 -13 -14 -34 -25
-47 -25 -13 0 -23 -4 -23 -10 0 -5 5 -10 11 -10 19 0 5 -45 -15 -48 -11 -3
-26 -10 -33 -17 -11 -12 -7 -14 24 -17 28 -2 37 -7 34 -18 -3 -8 -5 -28 -5
-45 -2 -44 -23 -75 -51 -75 -30 0 -32 -18 -6 -51 37 -48 38 -103 3 -112 -16
-4 -16 -5 1 -6 21 -1 22 -15 2 -35 -8 -8 -15 -19 -15 -24 0 -5 -11 -15 -25
-22 -14 -7 -25 -19 -25 -27 0 -18 16 -17 24 2 3 8 15 15 27 15 18 0 20 -4 14
-22 -4 -13 -10 -38 -13 -57 -6 -27 -13 -36 -36 -42 -31 -9 -46 -24 -46 -49 1
-12 3 -11 11 3 5 9 17 17 25 17 8 0 18 -8 21 -17 11 -28 41 -56 52 -48 14 8
14 35 1 35 -5 0 -10 7 -10 15 0 9 9 15 24 15 20 0 24 6 30 40 3 22 3 52 0 65
-5 19 -2 25 10 25 21 0 21 19 -1 35 -15 11 -15 14 0 36 l17 23 0 -27 c0 -38
20 -34 22 6 0 17 2 52 4 76 3 43 2 43 -27 39 -33 -5 -41 16 -9 25 12 3 20 14
20 25 0 11 8 28 17 37 9 10 17 24 18 34 1 9 7 29 14 44 6 16 11 37 11 48 0 10
4 19 9 19 5 0 12 7 15 16 10 27 -17 10 -34 -21 -21 -37 -40 -44 -40 -13 0 14
13 39 30 58 16 18 27 37 24 42 -3 4 2 15 10 24 9 8 16 23 16 32 0 14 -2 14 -9
3 -11 -17 -32 -5 -24 14 6 17 -22 21 -32 5z"/>
<path d="M4483 9743 c9 -2 23 -2 30 0 6 3 -1 5 -18 5 -16 0 -22 -2 -12 -5z"/>
<path d="M5656 9736 c3 -8 -2 -29 -11 -46 -9 -18 -13 -39 -9 -48 11 -27 4 -54
-19 -73 -13 -11 -17 -18 -9 -19 7 0 24 11 37 24 24 24 24 24 46 5 21 -18 22
-22 9 -57 -7 -20 -23 -45 -36 -55 -27 -21 -31 -37 -9 -37 8 0 15 5 15 10 0 6
5 10 10 10 20 0 9 -26 -25 -57 -19 -18 -35 -35 -35 -38 0 -9 18 -5 32 8 7 6
26 13 41 15 22 2 30 -2 34 -17 3 -12 15 -21 32 -23 18 -2 27 -10 29 -25 2 -13
8 -23 13 -23 5 0 9 -10 9 -22 1 -19 5 -16 25 17 28 44 37 126 10 92 -13 -18
-14 -17 -31 9 -10 15 -19 39 -20 53 -3 34 -3 34 -13 50 -8 12 -12 12 -25 2
-14 -12 -16 -10 -16 7 0 12 -4 23 -9 26 -5 3 -11 17 -13 31 -7 32 10 32 48 0
37 -32 46 -31 42 3 -2 15 -8 26 -15 25 -6 -2 -15 6 -18 17 -4 11 -13 20 -21
20 -9 0 -14 11 -14 30 0 23 -6 33 -25 42 -14 6 -25 19 -25 29 0 9 -7 20 -16
23 -22 9 -24 8 -18 -8z"/>
<path d="M4325 9680 c-3 -5 1 -10 10 -10 9 0 13 5 10 10 -3 6 -8 10 -10 10 -2
0 -7 -4 -10 -10z"/>
<path d="M4362 9624 c7 -15 14 -21 16 -15 5 16 -5 41 -17 41 -7 0 -6 -10 1
-26z"/>
<path d="M5775 9640 c3 -5 8 -10 11 -10 2 0 4 5 4 10 0 6 -5 10 -11 10 -5 0
-7 -4 -4 -10z"/>
<path d="M4420 9535 c0 -14 4 -25 9 -25 5 0 16 -3 25 -6 12 -5 16 0 16 19 0
22 -16 37 -41 37 -5 0 -9 -11 -9 -25z"/>
<path d="M5560 9492 c-17 -20 -21 -132 -4 -132 18 0 34 23 34 50 0 14 7 38 15
54 8 15 15 32 15 37 0 15 -44 8 -60 -9z"/>
<path d="M4316 9482 c-2 -4 2 -15 9 -25 15 -20 31 -6 21 18 -6 16 -22 20 -30
7z"/>
<path d="M5371 9414 c0 -11 3 -14 6 -6 3 7 2 16 -1 19 -3 4 -6 -2 -5 -13z"/>
<path d="M4510 9406 c0 -8 -6 -17 -12 -19 -8 -3 -6 -6 5 -6 11 -1 17 6 17 19
0 11 -2 20 -5 20 -3 0 -5 -6 -5 -14z"/>
<path d="M4376 9329 c-10 -53 -8 -63 9 -45 8 8 15 19 15 25 0 6 5 11 10 11 6
0 10 -7 10 -16 0 -14 2 -14 15 0 19 18 19 24 1 42 -26 25 -53 17 -60 -17z"/>
<path d="M5598 9326 c-10 -7 -18 -21 -18 -30 0 -10 -4 -14 -10 -11 -6 3 -10
-4 -10 -18 0 -13 -3 -27 -6 -30 -12 -12 -12 -68 0 -64 15 5 45 66 46 94 0 12
5 23 11 25 6 2 9 13 7 25 -3 19 -5 20 -20 9z"/>
<path d="M5700 9311 c-24 -7 -42 -41 -21 -41 20 0 12 -22 -16 -46 -16 -13 -31
-24 -35 -24 -5 0 -8 -7 -8 -15 0 -18 17 -20 22 -4 4 12 7 11 65 -19 13 -7 29
-12 36 -12 7 0 21 -22 31 -50 10 -27 22 -50 27 -50 10 0 9 -6 15 90 5 86 -5
113 -30 87 -9 -8 -16 -26 -16 -38 0 -12 -3 -19 -6 -16 -4 4 -6 35 -6 69 1 38
-4 65 -11 70 -13 9 -13 9 -47 -1z"/>
<path d="M4370 9134 c0 -31 2 -34 15 -20 8 8 15 24 15 35 0 12 -6 21 -15 21
-11 0 -15 -11 -15 -36z"/>
<path d="M4265 9140 c3 -5 8 -10 11 -10 2 0 4 5 4 10 0 6 -5 10 -11 10 -5 0
-7 -4 -4 -10z"/>
<path d="M5583 9133 c-7 -3 -13 -12 -13 -21 0 -9 -11 -39 -25 -66 -28 -56 -32
-86 -10 -86 10 0 15 10 15 31 0 18 8 39 18 48 11 9 23 25 29 36 12 25 3 63
-14 58z"/>
<path d="M5703 9123 c-7 -2 -13 -19 -13 -36 0 -29 -5 -34 -53 -56 -35 -16 -46
-26 -34 -28 9 -3 17 -11 17 -19 0 -10 7 -13 25 -8 24 6 25 4 23 -25 -2 -24
-12 -37 -43 -58 -30 -21 -36 -28 -22 -31 24 -5 22 -13 -10 -38 -33 -26 -24
-42 12 -26 20 9 30 9 45 0 26 -16 25 -34 0 -41 -14 -4 -18 -10 -14 -22 4 -10
1 -21 -6 -25 -11 -7 -10 -11 3 -24 29 -29 52 -11 40 33 -3 13 -1 21 7 21 14 0
60 -46 60 -61 0 -5 6 -9 14 -9 17 0 25 38 18 96 -4 38 -8 44 -28 44 -13 0 -24
-7 -27 -17 -4 -14 -5 -12 -6 5 0 12 -5 22 -11 22 -12 0 -13 110 -1 129 13 21
41 5 41 -24 0 -14 4 -25 9 -25 5 0 14 -14 20 -31 9 -27 13 -30 26 -19 21 17
21 84 0 76 -8 -3 -15 -1 -15 3 0 5 5 11 12 13 16 6 -2 70 -21 76 -11 4 -13 -3
-8 -27 6 -27 5 -30 -7 -19 -7 8 -19 46 -26 86 -6 40 -13 72 -13 71 -1 0 -8 -3
-14 -6z"/>
<path d="M4300 9001 c0 -33 11 -51 31 -51 13 0 19 -7 19 -22 1 -20 2 -21 10
-6 7 11 6 26 -2 45 -23 51 -58 72 -58 34z"/>
<path d="M4513 8983 c-7 -3 -13 -14 -13 -24 0 -11 -12 -31 -26 -44 -31 -29
-26 -55 11 -55 38 0 62 27 47 51 -8 12 -8 19 -2 19 12 0 14 47 3 53 -5 2 -14
2 -20 0z"/>
<path d="M5542 8930 c0 -14 2 -19 5 -12 2 6 2 18 0 25 -3 6 -5 1 -5 -13z"/>
<path d="M4300 8909 c0 -11 4 -18 10 -14 5 3 7 12 3 20 -7 21 -13 19 -13 -6z"/>
<path d="M5437 8923 c-10 -10 -8 -43 2 -43 5 0 12 -8 14 -17 4 -14 5 -13 6 4
0 12 6 25 11 28 17 10 11 35 -8 35 -10 0 -22 -3 -25 -7z"/>
<path d="M5727 8840 c3 -11 7 -20 9 -20 2 0 4 9 4 20 0 11 -4 20 -9 20 -5 0
-7 -9 -4 -20z"/>
<path d="M4431 8832 c-14 -27 -12 -35 8 -23 7 5 11 17 9 27 -4 17 -5 17 -17
-4z"/>
<path d="M4496 8834 c-4 -9 0 -24 7 -33 8 -9 17 -23 20 -31 3 -8 5 6 4 33 -1
47 -18 64 -31 31z"/>
<path d="M4280 8810 c0 -11 6 -20 14 -20 8 0 35 -23 60 -51 36 -40 46 -59 46
-85 0 -20 -5 -34 -12 -34 -9 0 -8 -4 2 -14 11 -11 25 -13 50 -7 19 4 59 3 88
-2 29 -5 56 -7 59 -4 11 12 -10 27 -38 27 -26 0 -29 3 -29 34 0 19 5 36 11 38
8 3 8 10 -2 26 -18 29 -29 28 -29 -3 0 -16 -6 -25 -15 -25 -8 0 -15 -4 -15
-10 0 -5 6 -10 14 -10 9 0 12 -8 8 -25 -3 -16 -11 -25 -23 -25 -11 0 -19 4
-19 9 0 5 -9 11 -20 14 -15 4 -20 13 -20 39 1 106 1 108 -13 102 -16 -6 -97
26 -97 38 0 5 -4 8 -10 8 -5 0 -10 -9 -10 -20z"/>
<path d="M5500 8790 c0 -19 3 -21 12 -12 9 9 9 15 0 24 -9 9 -12 7 -12 -12z"/>
<path d="M4594 8705 c-7 -18 16 -43 35 -37 11 4 12 -1 6 -19 -4 -13 -9 -43
-11 -66 -3 -37 -1 -42 19 -45 33 -5 75 13 81 35 2 10 9 16 14 13 6 -3 17 -3
26 0 21 8 2 34 -24 34 -9 0 -28 10 -41 23 -13 13 -32 26 -41 30 -10 3 -18 16
-18 27 0 24 -37 28 -46 5z"/>
<path d="M5539 8670 c-8 -6 -8 -9 0 -14 6 -4 11 -14 11 -23 0 -12 -8 -14 -37
-10 -44 7 -133 23 -148 27 -28 7 -37 -1 -33 -29 3 -21 1 -28 -9 -24 -7 3 -13
12 -13 20 0 11 -5 13 -17 8 -29 -12 -61 -7 -83 15 -22 22 -36 25 -45 10 -3 -5
-14 -10 -23 -10 -9 0 -28 -9 -42 -20 -29 -22 -118 -28 -138 -8 -9 9 -12 9 -12
0 0 -6 -21 2 -46 18 -51 32 -69 30 -60 -6 4 -13 2 -24 -3 -24 -13 0 -9 -42 5
-57 15 -15 54 -17 54 -3 0 6 11 10 25 10 14 0 25 3 25 8 0 4 24 7 54 7 30 0
58 -3 62 -7 4 -5 18 -8 31 -8 14 0 23 -6 23 -15 0 -8 -9 -15 -19 -15 -11 0
-23 -4 -26 -10 -9 -14 -42 -12 -48 3 -4 8 -6 8 -6 0 -1 -6 -17 -17 -36 -23
-19 -6 -35 -17 -35 -23 0 -17 48 -38 53 -24 5 16 37 0 37 -18 0 -9 7 -23 15
-31 8 -9 15 -24 15 -34 0 -10 -7 -20 -15 -24 -10 -3 -15 1 -15 14 0 26 -21 37
-32 16 -11 -20 -38 -21 -38 -1 0 8 -5 15 -11 15 -6 0 -9 -15 -7 -37 3 -32 -1
-39 -29 -55 -30 -18 -33 -18 -58 -2 -18 12 -25 24 -23 42 2 20 -2 25 -21 27
-13 1 -28 9 -33 18 -5 10 -14 17 -19 17 -6 0 -3 -7 5 -16 9 -8 16 -18 16 -21
0 -10 -54 8 -64 22 -8 10 -15 12 -26 5 -10 -6 -11 -13 -5 -17 6 -5 16 -20 22
-35 8 -19 17 -26 28 -22 21 8 19 -16 -2 -32 -27 -20 3 -17 34 3 22 15 27 15
37 2 6 -8 19 -18 29 -22 18 -7 24 -57 6 -57 -18 0 -40 -29 -37 -47 3 -20 -9
-43 -21 -43 -5 0 -8 7 -7 16 0 9 -5 19 -11 21 -9 3 -13 -6 -13 -26 0 -17 5
-31 10 -31 13 0 13 -36 0 -60 -9 -17 -7 -18 25 -13 30 5 35 3 35 -15 0 -11 7
-22 14 -25 9 -4 13 -1 11 6 -3 7 4 23 15 35 18 22 22 23 50 10 16 -7 30 -16
30 -20 0 -5 7 -8 16 -8 12 0 15 7 11 26 -4 25 -3 26 32 19 47 -9 50 -11 44
-35 -3 -11 0 -20 6 -20 6 0 11 -7 11 -15 0 -9 9 -26 20 -38 18 -18 22 -19 30
-7 6 10 4 20 -6 32 -9 9 -13 22 -9 27 3 6 1 11 -4 11 -6 0 -11 5 -11 10 0 6
23 10 50 10 28 0 50 -4 50 -10 0 -20 37 -9 48 14 10 22 14 24 41 13 25 -9 30
-17 33 -54 3 -39 1 -44 -15 -39 -17 4 -18 0 -13 -30 4 -19 4 -34 0 -34 -3 0
-22 17 -41 38 l-35 37 7 -34 c7 -33 7 -33 -24 -26 -24 5 -31 3 -31 -9 0 -8 -9
-17 -19 -21 -11 -3 -22 -12 -25 -20 -7 -20 -52 -19 -60 0 -3 8 -2 15 3 15 9 0
37 59 30 63 -21 15 -60 37 -64 37 -4 0 1 -7 9 -16 20 -20 21 -44 1 -44 -8 0
-15 5 -15 10 0 6 -7 10 -15 10 -21 0 -31 -30 -14 -42 10 -7 7 -8 -11 -4 -14 3
-33 6 -42 6 -11 0 -18 8 -18 20 0 11 -4 20 -10 20 -5 0 -10 -9 -10 -20 0 -11
5 -20 10 -20 6 0 10 -5 10 -11 0 -20 -29 -39 -60 -39 l-31 0 1 58 c2 80 2 82
-15 82 -11 0 -13 -8 -8 -30 4 -24 2 -30 -12 -30 -12 0 -16 -6 -12 -20 4 -17 0
-20 -23 -20 -16 0 -35 7 -44 15 -23 23 -56 19 -56 -6 0 -12 -8 -28 -17 -36
-16 -12 -14 -13 16 -7 33 6 34 6 17 -11 -13 -14 -14 -20 -5 -26 16 -9 39 0 39
16 0 7 6 15 13 18 22 8 40 -9 34 -32 -6 -24 11 -29 19 -6 4 8 13 15 21 15 12
0 14 -8 10 -37 -4 -22 -3 -32 2 -24 7 10 13 11 30 2 28 -16 46 -4 26 16 -12
12 -13 18 -4 29 13 16 41 18 55 4 6 -6 18 -5 34 3 35 17 81 10 87 -13 8 -30
42 -36 59 -11 16 22 74 30 74 11 0 -15 36 -12 50 5 10 13 17 12 51 -5 44 -23
46 -26 22 -52 -14 -16 -15 -24 -6 -49 12 -32 3 -38 -21 -14 -8 8 -17 15 -20
15 -3 0 -6 -7 -6 -15 0 -8 -7 -15 -15 -15 -8 0 -15 3 -15 8 0 13 -47 62 -59
62 -7 0 -10 -7 -7 -17 4 -12 -4 -24 -24 -38 -39 -26 -39 -38 1 -18 23 11 34
12 42 4 8 -8 5 -16 -13 -29 -67 -47 -116 -28 -105 40 5 30 4 38 -8 38 -9 0
-18 -6 -21 -12 -5 -10 -7 -10 -12 0 -6 12 -34 17 -34 5 0 -3 7 -15 17 -25 15
-17 15 -18 0 -18 -10 0 -17 4 -17 9 0 5 -9 12 -19 16 -14 4 -32 -6 -63 -35
-52 -49 -82 -50 -86 -3 -2 18 2 41 8 53 9 17 7 22 -15 30 -34 13 -35 13 -35
-5 0 -8 5 -15 10 -15 6 0 10 -6 10 -14 0 -9 -7 -12 -20 -9 -11 3 -20 9 -20 14
0 5 -6 9 -14 9 -12 0 -12 -5 -3 -30 13 -35 4 -49 -18 -26 -21 20 -28 16 -54
-34 -20 -39 -20 -40 -1 -50 23 -12 40 -6 40 15 0 11 20 25 36 25 2 0 4 -12 5
-27 0 -16 3 -22 6 -15 2 6 13 12 24 12 14 0 19 -7 19 -30 0 -23 5 -30 19 -30
17 0 19 5 14 36 l-6 37 35 -7 c28 -5 37 -3 42 10 6 16 8 15 22 -4 13 -19 17
-20 30 -8 8 8 14 19 14 25 0 6 7 11 16 11 12 0 15 -7 12 -29 -4 -26 -2 -29 13
-20 25 13 29 12 29 -9 0 -25 50 -76 63 -63 6 6 5 15 -6 26 -9 8 -14 22 -10 30
7 21 52 31 72 16 32 -23 42 -23 56 -4 24 34 59 26 78 -18 9 -22 21 -39 26 -39
5 0 11 -9 14 -21 3 -12 11 -19 18 -17 22 7 21 26 0 33 -24 7 -29 45 -6 45 8 0
15 5 15 10 0 18 25 11 53 -16 23 -21 29 -23 41 -12 7 8 17 24 20 36 9 28 17
28 44 -3 23 -26 31 -95 12 -95 -5 0 -10 -7 -10 -15 0 -20 -17 -19 -29 2 -9 17
-10 17 -29 0 -18 -16 -20 -16 -42 3 -13 11 -27 20 -32 20 -11 0 -10 -17 2 -25
20 -13 9 -33 -22 -40 -18 -4 -27 -9 -21 -12 10 -3 10 -8 -1 -19 -26 -25 -37
-16 -31 27 5 40 -7 79 -25 79 -6 0 -10 -11 -10 -24 0 -19 -4 -22 -25 -18 -19
3 -25 0 -25 -13 0 -22 -23 -14 -35 13 -12 28 -35 29 -35 2 0 -11 -8 -24 -17
-27 -10 -4 -26 -15 -35 -25 -16 -19 -17 -19 -42 3 -14 13 -26 29 -26 36 0 7
-11 13 -25 13 -19 0 -23 -4 -18 -17 7 -17 6 -17 -11 0 -34 33 -73 17 -96 -41
-8 -22 -10 -36 -3 -40 5 -4 13 -15 16 -26 7 -18 8 -18 25 2 9 11 22 28 28 38
12 21 34 11 34 -17 0 -11 7 -22 15 -25 8 -4 15 -15 15 -25 0 -10 -7 -19 -15
-19 -9 0 -15 -9 -15 -25 0 -28 -3 -29 -31 -15 -27 15 -24 0 8 -34 l27 -29 -40
6 c-21 4 -46 7 -55 7 -8 0 -25 9 -37 20 -17 16 -22 17 -22 6 0 -8 6 -21 13
-28 15 -14 16 -45 3 -66 -4 -7 -1 -12 8 -12 9 0 16 -4 16 -10 0 -18 17 -10 30
15 17 32 65 36 57 5 -3 -11 -2 -18 2 -16 10 7 35 -16 58 -53 14 -23 23 -30 28
-20 5 7 0 19 -13 30 -37 29 -28 44 30 46 29 1 55 -1 58 -6 3 -5 15 -11 28 -15
16 -5 22 -3 22 7 0 8 6 20 14 26 11 10 17 8 29 -9 9 -13 17 -17 22 -11 15 25
35 11 35 -24 0 -28 -4 -35 -20 -35 -20 0 -24 -9 -21 -42 3 -23 -1 -23 -30 3
l-24 21 -3 -26 c-4 -29 -36 -37 -46 -11 -3 8 -15 15 -26 15 -11 0 -20 5 -20
10 0 6 -4 10 -9 10 -5 0 -4 -11 2 -25 7 -14 20 -25 30 -25 34 0 10 -48 -29
-57 -60 -15 -74 -15 -80 2 -4 9 -2 33 4 53 8 27 8 38 0 43 -6 4 -8 14 -5 22 8
20 -3 29 -20 16 -16 -14 -17 -56 0 -62 8 -3 9 -8 2 -15 -7 -8 -20 -6 -43 5
-18 9 -36 12 -40 8 -4 -4 -1 -10 6 -12 21 -8 13 -25 -10 -22 -13 2 -29 0 -35
-4 -16 -10 -17 -49 -1 -65 16 -16 41 -15 35 1 -8 21 9 41 28 33 11 -4 15 -13
12 -26 -4 -17 0 -20 24 -20 24 0 29 -4 29 -25 0 -17 8 -29 25 -37 32 -14 43
-4 22 20 -10 10 -17 23 -17 29 0 17 83 23 96 7 18 -22 41 -16 48 11 7 29 36
33 43 6 3 -11 14 -22 25 -24 16 -4 18 -11 13 -29 -4 -13 -12 -26 -18 -29 -5
-4 -7 -15 -3 -24 4 -11 -1 -24 -12 -34 -11 -9 -21 -22 -23 -30 -4 -10 -12 -7
-32 12 -14 15 -29 27 -33 27 -4 0 -13 8 -20 18 -12 15 -13 14 -14 -10 0 -18
-5 -28 -15 -28 -28 0 -15 -28 15 -35 18 -4 30 -13 30 -22 0 -13 -3 -13 -15 -3
-10 9 -15 9 -15 1 0 -19 -18 -12 -25 9 -5 15 -15 20 -41 20 -27 0 -34 4 -34
19 0 11 4 22 9 26 6 3 6 18 1 36 -12 40 -19 47 -31 29 -8 -13 -10 -13 -19 0
-8 11 -9 7 -4 -15 4 -16 11 -34 15 -39 14 -16 10 -46 -6 -46 -8 0 -15 4 -15 8
0 4 -20 30 -45 57 -25 28 -45 44 -45 38 0 -7 4 -13 9 -13 5 0 12 -11 15 -25 4
-14 11 -25 16 -25 6 0 10 -9 10 -19 0 -17 -3 -18 -25 -8 -14 7 -25 15 -25 20
0 12 -21 8 -37 -8 -12 -12 -12 -19 -3 -30 9 -10 9 -19 0 -36 -13 -22 -1 -38
28 -39 6 0 12 -4 12 -10 0 -25 30 -6 40 25 11 32 30 48 30 25 0 -5 9 -10 19
-10 11 0 22 -4 25 -8 9 -16 -15 -82 -29 -82 -18 0 -19 -14 -4 -42 10 -19 9
-20 -10 -15 -18 4 -19 2 -11 -13 20 -38 5 -54 -24 -25 -8 8 -22 15 -31 15 -9
0 -25 5 -36 10 -16 9 -19 7 -19 -8 0 -10 11 -25 25 -32 25 -13 33 -30 15 -30
-14 0 -13 -33 2 -48 18 -18 28 -14 28 12 0 13 7 29 15 36 10 8 15 9 15 2 0
-21 40 -35 57 -21 12 11 17 10 27 -2 6 -9 17 -14 25 -11 8 3 19 -2 26 -11 16
-22 75 -27 75 -6 0 6 6 17 14 24 12 12 15 11 20 -10 4 -16 13 -25 26 -25 12 0
20 -7 20 -17 1 -31 26 -53 59 -53 30 0 32 -2 29 -32 -3 -29 -7 -33 -40 -39
-30 -5 -38 -3 -40 10 0 9 -2 21 -3 26 -2 6 -3 20 -4 33 -1 19 -3 21 -13 10 -7
-8 -21 -27 -30 -43 -23 -42 -49 -43 -69 -3 -8 17 -21 34 -28 36 -10 3 -11 0
-1 -18 10 -19 9 -24 -9 -37 -12 -8 -21 -21 -21 -29 0 -18 -76 -20 -82 -2 -5
13 14 73 25 84 11 11 8 52 -5 73 -10 17 -13 17 -27 4 -11 -11 -14 -33 -13 -79
3 -74 -2 -77 -69 -39 -24 14 -46 25 -49 25 -3 0 -4 -28 -2 -62 2 -43 8 -67 20
-75 23 -19 32 -16 32 11 0 16 7 26 23 30 32 8 49 7 43 -3 -3 -5 1 -14 9 -21
24 -20 18 -55 -11 -69 -17 -8 -24 -17 -20 -27 3 -9 6 -22 6 -30 0 -20 11 -17
45 14 28 24 31 32 27 75 -5 65 6 64 85 -3 20 -17 39 -11 51 15 14 31 27 31 58
3 28 -27 30 -50 8 -72 -20 -20 -34 -20 -34 -1 0 8 -7 15 -15 15 -17 0 -21 -35
-5 -45 12 -8 13 -45 0 -65 -8 -12 -13 -12 -44 3 l-36 17 0 -25 c0 -16 -6 -25
-15 -25 -19 0 -19 -14 1 -34 20 -20 40 -20 48 -1 7 20 36 19 36 -1 0 -10 6
-14 15 -11 20 8 26 -6 16 -39 -5 -16 -12 -46 -16 -67 -5 -32 -9 -36 -21 -27
-11 10 -14 9 -14 -4 0 -9 -7 -16 -15 -16 -17 0 -55 35 -55 50 0 18 -18 11 -25
-10 -3 -11 2 -36 11 -56 15 -30 15 -37 3 -45 -19 -12 0 -43 30 -47 22 -3 51
18 51 37 0 6 7 11 15 11 9 0 15 -9 15 -25 0 -16 6 -25 15 -25 22 0 18 -34 -6
-56 -12 -11 -18 -26 -15 -39 4 -15 -2 -23 -21 -32 -36 -17 -42 -16 -61 6 -10
11 -28 22 -42 26 -23 7 -23 7 -7 -9 23 -24 22 -28 -18 -48 -42 -21 -59 -16
-79 25 -8 18 -16 26 -16 19 0 -10 -16 -13 -62 -11 -63 2 -63 2 -61 -24 1 -19
-3 -27 -14 -27 -10 0 -13 -6 -9 -16 3 -9 6 -19 6 -24 0 -4 11 -10 25 -12 18
-4 25 -1 25 10 0 8 9 23 21 33 25 21 62 12 67 -17 8 -54 13 -64 32 -64 11 0
20 5 20 10 0 6 -4 10 -10 10 -5 0 -10 11 -10 25 0 17 5 25 18 25 10 0 23 5 30
12 9 9 16 7 29 -9 25 -28 63 -39 63 -19 0 16 11 20 40 16 20 -2 60 -40 60 -57
0 -7 7 -13 15 -13 9 0 15 -9 15 -25 0 -18 5 -25 20 -25 24 0 27 32 5 50 -8 7
-15 23 -15 36 0 23 1 23 43 10 23 -8 49 -17 58 -20 11 -5 19 1 27 19 14 30 33
32 55 7 22 -24 24 -97 2 -88 -11 4 -15 -1 -15 -18 0 -30 -27 -42 -35 -16 -9
30 -35 34 -35 5 0 -14 6 -25 13 -25 8 0 8 -3 -2 -9 -8 -5 -20 -7 -28 -4 -7 3
-24 -6 -38 -21 -26 -29 -66 -34 -85 -11 -12 15 -5 55 11 55 17 0 9 25 -20 60
-17 19 -33 31 -38 26 -4 -5 -2 -11 5 -13 6 -3 12 -20 12 -40 0 -27 -4 -34 -17
-31 -9 2 -20 14 -23 27 -5 21 -7 22 -19 7 -7 -9 -11 -25 -8 -36 3 -13 0 -20
-9 -20 -8 0 -14 5 -14 10 0 15 -39 12 -56 -4 -8 -8 -14 -19 -13 -23 4 -23 -4
-30 -37 -31 -28 -1 -43 5 -63 26 -14 15 -34 33 -44 41 -15 12 -17 12 -11 -3 3
-9 11 -16 17 -16 7 0 7 -4 -1 -12 -9 -9 -18 -8 -39 3 -16 8 -31 17 -34 21 -3
5 -14 1 -25 -7 -19 -14 -19 -15 4 -21 12 -3 22 -14 22 -23 0 -25 -11 -33 -27
-20 -10 9 -13 8 -13 -4 0 -19 27 -47 44 -47 14 0 36 41 36 65 0 21 13 19 28
-5 7 -11 18 -17 27 -14 18 7 19 -9 3 -36 -10 -15 -10 -22 -1 -31 15 -15 -7
-39 -36 -39 -24 0 -27 -10 -9 -28 10 -10 10 -17 0 -33 -8 -12 -10 -24 -6 -27
4 -4 9 -1 11 6 3 6 20 12 38 12 40 0 54 25 24 41 -16 8 -18 14 -10 22 8 8 15
5 27 -11 17 -24 44 -30 44 -9 0 7 -12 23 -26 36 -15 13 -24 30 -22 43 4 25 28
37 28 14 0 -9 5 -16 10 -16 6 0 10 9 10 19 0 27 39 16 50 -14 9 -24 69 -67 83
-58 5 3 -1 12 -12 20 -27 18 -26 34 2 61 29 27 47 28 47 2 0 -11 5 -20 10 -20
6 0 10 -12 10 -26 0 -26 -20 -54 -39 -54 -17 0 -13 -40 4 -46 21 -8 19 -24 -3
-24 -11 0 -24 12 -31 26 -6 15 -15 24 -18 20 -4 -3 -1 -12 5 -18 16 -16 15
-48 -1 -48 -7 0 -29 14 -47 30 -39 35 -43 36 -35 11 3 -11 1 -22 -5 -26 -6 -4
-8 -15 -5 -26 5 -15 1 -19 -19 -19 -14 0 -28 5 -31 11 -4 5 -12 8 -18 6 -6 -2
-19 6 -29 17 -24 30 -51 11 -58 -41 -5 -37 -4 -39 17 -35 21 4 21 2 11 -26 -7
-17 -21 -35 -32 -41 -12 -5 -15 -10 -8 -10 18 -1 15 -19 -5 -23 -16 -3 -16 -4
0 -20 25 -25 22 -28 -29 -28 -43 0 -74 16 -74 38 0 14 -28 23 -35 12 -3 -5 3
-17 15 -27 23 -20 27 -48 5 -40 -8 4 -17 2 -21 -4 -6 -10 -43 24 -63 58 -10
17 -12 17 -21 1 -13 -22 -63 -24 -80 -3 -7 8 -18 15 -25 15 -8 0 -15 6 -18 13
-2 6 -8 9 -13 4 -4 -4 2 -14 14 -23 19 -13 20 -17 8 -30 -17 -16 -36 -19 -36
-4 0 14 -29 12 -44 -3 -7 -7 -16 -34 -20 -60 -4 -26 -10 -47 -14 -47 -48 1
-43 100 5 100 30 0 5 25 -28 28 l-34 3 -1 -66 c0 -36 3 -65 8 -65 19 0 38 -30
38 -59 0 -24 -4 -31 -19 -31 -11 0 -22 6 -24 13 -3 7 -6 5 -6 -5 -1 -10 6 -18
14 -18 8 0 15 -6 15 -14 0 -19 -23 -33 -28 -18 -8 25 -22 11 -22 -22 0 -26 5
-36 20 -41 13 -4 20 -15 20 -33 0 -15 3 -38 7 -52 6 -22 5 -24 -10 -11 -15 12
-17 11 -17 -3 0 -9 7 -16 16 -16 8 0 12 -4 9 -10 -3 -5 -19 -10 -35 -10 -16 0
-31 -4 -35 -9 -10 -17 24 -184 42 -203 9 -10 13 -21 10 -25 -4 -3 -7 -1 -7 5
0 6 -10 12 -22 14 -13 2 -27 13 -33 26 -5 12 -15 22 -22 22 -18 0 -16 -27 2
-34 12 -4 14 -14 9 -41 -5 -27 -3 -36 10 -41 12 -5 15 -15 12 -43 -3 -20 -3
-29 0 -19 5 16 64 51 73 43 2 -3 -4 -16 -13 -29 -20 -31 -20 -46 -1 -46 8 0
15 -7 15 -15 0 -8 -4 -15 -10 -15 -5 0 -10 -7 -10 -15 0 -20 12 -19 39 4 14
13 21 27 17 38 -7 23 3 38 31 47 20 6 21 4 21 -66 -1 -45 3 -73 11 -76 6 -2
11 -11 11 -19 0 -10 -5 -13 -17 -8 -47 19 -51 18 -55 -19 -3 -29 -1 -36 13
-36 12 0 19 -11 22 -37 3 -21 9 -53 13 -71 l7 -34 -45 7 c-36 6 -46 4 -51 -9
-4 -10 -1 -16 8 -16 12 0 15 -17 15 -86 0 -86 0 -86 24 -82 33 7 42 -1 50 -42
4 -19 4 -30 -1 -25 -14 17 -61 45 -78 45 -8 0 -15 5 -15 10 0 6 -7 10 -15 10
-11 0 -15 -12 -15 -45 0 -25 5 -45 10 -45 6 0 10 -7 10 -15 0 -8 5 -15 10 -15
6 0 10 -4 10 -10 0 -5 -9 -10 -21 -10 -18 0 -20 -4 -14 -30 6 -27 4 -32 -23
-41 -17 -6 -33 -17 -36 -25 -3 -8 -15 -18 -26 -22 -20 -8 -20 -8 -3 -28 17
-20 90 -37 151 -35 58 3 87 1 217 -11 172 -16 880 -16 1110 0 88 6 210 20 270
31 61 11 123 21 139 21 88 1 123 43 112 134 -6 42 -4 57 9 69 8 9 17 34 20 56
2 23 6 45 10 51 3 6 -3 23 -14 39 -12 16 -21 33 -21 38 0 5 -5 14 -12 21 -7 7
-12 45 -12 92 -1 71 -3 81 -23 95 -23 16 -32 65 -13 65 6 0 10 7 10 15 0 8 5
15 11 15 12 0 6 35 -15 85 -30 71 -34 95 -24 133 5 20 14 41 19 47 14 15 10
71 -6 85 -8 7 -15 23 -15 36 0 15 6 24 15 24 16 0 18 12 15 98 -1 35 -10 67
-25 94 -13 24 -20 47 -16 53 4 5 16 33 26 61 17 50 17 52 -4 114 -21 59 -21
65 -6 102 11 28 12 44 5 58 -5 10 -10 28 -10 39 0 21 -46 59 -57 47 -3 -3 -1
-17 5 -31 7 -14 12 -30 12 -35 0 -15 -28 -12 -33 3 -2 7 -8 8 -13 3 -5 -5 -4
-11 4 -13 14 -5 17 -33 3 -33 -5 0 -17 12 -27 28 -9 15 -26 34 -36 43 -19 17
-25 49 -8 49 6 0 10 -6 10 -12 1 -8 6 -6 14 5 14 19 36 23 36 7 0 -5 5 -10 11
-10 6 0 9 7 5 15 -3 8 1 18 9 22 17 10 31 63 17 63 -6 0 -19 17 -29 38 -9 20
-28 45 -40 55 -33 26 -29 36 17 43 40 6 40 7 40 50 0 31 -4 44 -14 44 -8 0
-16 -5 -18 -11 -2 -6 -15 -12 -28 -13 -29 -2 -60 32 -60 63 0 16 -12 27 -44
41 -25 10 -47 27 -51 39 -3 12 -13 21 -21 21 -8 0 -14 4 -14 9 0 6 12 6 32 0
18 -5 34 -9 35 -9 1 0 4 -10 6 -22 4 -20 4 -20 6 4 1 35 21 47 21 13 0 -16 4
-24 11 -20 6 4 8 14 5 22 -4 10 0 13 12 11 12 -2 18 -14 20 -41 2 -20 7 -37
13 -37 5 0 9 -11 9 -25 0 -18 5 -25 19 -25 11 0 26 -3 35 -6 22 -8 20 23 -5
61 -10 17 -22 36 -25 43 -8 17 14 42 31 35 9 -3 16 4 19 19 15 67 8 96 -37
145 -42 46 -57 43 -57 -13 l0 -46 -50 48 c-27 26 -50 54 -50 61 0 7 -8 13 -17
14 -15 0 -15 2 2 8 11 5 25 6 30 2 14 -8 125 -13 152 -6 28 7 49 74 33 105 -6
11 -8 25 -5 30 4 6 -1 7 -11 3 -13 -5 -16 -3 -11 10 4 11 -4 25 -24 42 -31 25
-65 37 -41 13 14 -14 16 -108 2 -108 -10 0 -14 13 -11 36 0 5 -15 16 -34 24
-19 8 -35 18 -35 22 0 5 -14 22 -30 37 l-30 27 90 -1 c66 0 90 3 90 12 0 18
17 16 24 -2 10 -28 25 -15 40 35 17 57 8 102 -27 133 -25 21 -67 23 -67 2 0
-9 9 -15 25 -15 28 0 29 -3 15 -31 -12 -22 -40 -26 -40 -5 0 9 -7 12 -20 9
-19 -5 -25 4 -21 35 1 6 -6 12 -16 12 -19 0 -59 38 -49 47 2 3 33 7 68 9 47 3
67 9 80 24 19 24 28 25 28 5 0 -18 26 -9 34 12 7 18 -20 46 -47 48 -12 1 -23
7 -25 13 -2 7 -10 12 -18 12 -8 0 -14 7 -14 15 0 9 -6 15 -14 13 -8 -2 -33 17
-55 42 -30 34 -37 46 -25 48 9 2 21 -3 27 -11 7 -8 20 -17 30 -20 13 -5 17 -1
17 14 0 17 5 20 22 16 12 -4 28 -1 35 4 7 6 18 9 25 7 7 -3 23 7 35 21 18 20
20 28 10 40 -10 12 -9 14 6 8 23 -9 23 18 -1 35 -10 7 -24 28 -31 46 -15 35
-31 41 -51 17 -16 -19 -6 -45 20 -52 24 -6 27 -38 4 -47 -23 -9 -24 -8 -24 17
0 14 -9 26 -22 32 -17 8 -22 17 -20 38 2 19 -1 27 -11 27 -9 0 -18 -6 -20 -12
-4 -10 -8 -9 -16 2 -7 10 -6 18 1 27 12 15 38 18 38 4 0 -4 20 -7 45 -5 46 4
91 21 81 31 -3 4 0 13 6 20 7 8 13 32 14 54 2 34 0 37 -16 29 -10 -5 -21 -25
-24 -45 -5 -24 -12 -35 -24 -34 -10 0 -12 3 -4 6 6 2 12 20 12 39 0 19 5 34
11 34 11 0 44 29 38 33 -48 30 -136 50 -111 25 14 -14 16 -68 2 -68 -5 0 -10
-9 -10 -20 0 -27 -22 -25 -48 5 l-22 25 24 0 c13 0 29 7 36 15 10 12 8 18 -10
33 -15 12 -21 25 -16 38 5 16 13 18 55 16 42 -3 51 -1 61 17 6 12 17 21 25 21
8 0 15 5 15 11 0 7 -10 9 -25 7 -22 -5 -25 -2 -25 23 0 39 38 38 53 -1 3 -8 3
10 0 40 -6 57 -12 74 -20 53 -5 -15 -33 -18 -33 -3 0 12 -48 60 -60 60 -6 0
-10 7 -10 15 0 16 25 21 34 7 3 -5 15 -8 28 -6 13 1 26 3 31 3 4 1 7 8 7 16 0
8 3 15 8 15 10 0 32 50 32 72 0 10 -4 18 -10 18 -5 0 -10 10 -10 23 0 12 -7
31 -15 41 -19 26 -19 47 0 40 22 -9 18 10 -5 31 -12 11 -28 34 -37 52 -16 34
-37 43 -47 21 -5 -10 -7 -10 -12 0 -3 6 -14 12 -25 12 -21 0 -27 19 -6 22 6 0
17 2 22 2 26 4 35 17 21 32 -8 8 -19 14 -25 14 -6 0 -11 5 -11 11 0 5 -5 7
-10 4 -6 -4 -8 -11 -4 -16 8 -14 -15 -39 -38 -39 -10 0 -21 -7 -24 -15 -8 -19
-58 -19 -74 0 -10 12 -8 16 15 25 14 5 37 10 51 10 13 0 24 5 24 10 0 6 -6 10
-13 10 -7 0 -20 8 -28 18 -9 9 -29 28 -45 41 l-29 23 49 -7 c27 -4 57 -11 67
-16 11 -5 28 -14 39 -19 13 -7 20 -7 20 0 0 15 47 12 64 -5 20 -20 33 -19 39
5 3 13 -2 25 -16 35 -17 12 -19 17 -9 27 15 15 16 48 2 48 -5 0 -10 6 -10 13
0 8 -9 22 -20 32 -11 10 -20 24 -20 31 0 7 -9 14 -20 16 -14 2 -17 7 -11 17 8
12 13 12 35 -2 14 -9 27 -17 30 -17 9 0 76 73 76 82 0 12 -26 38 -37 38 -5 0
-15 9 -22 19 -8 11 -20 17 -27 14 -7 -2 -19 5 -26 16 -19 31 -48 27 -48 -6 0
-19 -3 -24 -9 -15 -4 7 -12 12 -18 10 -5 -2 -24 12 -41 30 -30 32 -30 34 -12
39 12 3 20 14 20 27 0 12 3 16 8 10 11 -16 72 -44 98 -44 13 0 28 -8 33 -17 7
-13 10 -14 11 -4 0 7 10 22 21 32 l22 19 -24 9 c-13 5 -18 10 -11 10 20 1 15
68 -6 83 -11 7 -24 23 -31 36 -10 19 -9 22 9 22 11 0 20 -3 20 -7 0 -5 7 -16
14 -26 12 -16 17 -16 35 -5 23 14 29 41 8 32 -7 -2 -35 15 -61 40 -35 32 -46
49 -42 62 3 11 1 26 -4 34 -7 12 -11 10 -19 -10 -5 -14 -10 -19 -10 -12 -1 6
-10 12 -21 12 -11 0 -20 5 -20 10 0 6 -15 10 -32 10 -36 0 -109 49 -75 50 14
0 16 5 11 28 -9 33 -33 72 -45 72 -6 0 -12 -7 -15 -15 -8 -20 -34 -19 -34 0 0
9 10 19 22 24 20 7 20 8 2 15 -11 4 -20 3 -22 -3 -5 -15 -21 -14 -38 3 -18 19
-18 32 1 16 18 -15 35 -5 35 21 0 11 7 22 15 25 8 4 15 17 15 29 0 13 5 27 10
30 16 10 12 65 -5 65 -18 0 -20 36 -2 44 14 7 -29 0 -59 -9 -12 -4 -27 -1 -35
7 -15 14 -52 18 -70 8z m-420 -79 c-15 -5 -22 6 -14 19 6 9 10 9 16 -1 5 -8 4
-15 -2 -18z m561 -1 c12 -8 10 -14 -15 -40 -24 -25 -36 -30 -74 -29 -44 1 -45
1 -20 12 14 7 24 17 22 24 -2 6 8 19 24 27 33 18 43 19 63 6z m-371 -52 c-5
-44 2 -68 21 -68 11 0 20 -4 20 -10 0 -14 -34 -12 -48 2 -15 15 -128 16 -143
1 -14 -14 -69 6 -69 25 0 7 6 12 13 11 63 -8 128 11 80 24 -11 3 -7 5 10 6 15
0 27 6 27 11 0 6 20 10 45 10 31 0 45 -4 44 -12z m189 0 c-3 -7 -13 -13 -23
-13 -10 0 -20 6 -22 13 -3 7 5 12 22 12 17 0 25 -5 23 -12z m-71 -14 c-3 -3
-12 -4 -19 -1 -8 3 -5 6 6 6 11 1 17 -2 13 -5z m-47 -14 c0 -5 -5 -10 -11 -10
-5 0 -7 5 -4 10 3 6 8 10 11 10 2 0 4 -4 4 -10z m65 -19 c-6 -11 -63 -41 -77
-41 -4 0 -8 5 -8 11 0 5 5 7 10 4 6 -3 10 -1 10 4 0 6 11 11 25 11 14 0 25 5
25 10 0 6 5 10 11 10 5 0 8 -4 4 -9z m51 -87 c13 -18 14 -28 6 -36 -8 -8 -13
-6 -18 8 -4 10 -14 27 -22 37 -14 15 -13 17 1 17 9 0 24 -11 33 -26z m-251 6
c3 -5 -1 -10 -9 -10 -9 0 -16 5 -16 10 0 6 4 10 9 10 6 0 13 -4 16 -10z m-53
-50 c34 0 38 -24 6 -35 -42 -14 -69 -13 -64 2 4 8 6 24 6 36 0 16 3 18 12 9 7
-7 25 -12 40 -12z m446 -42 c-3 -7 -14 -14 -26 -16 -16 -3 -20 1 -16 12 7 19
48 22 42 4z m-304 -33 c3 -8 0 -26 -6 -40 -10 -22 -8 -29 12 -50 13 -14 34
-25 47 -25 18 0 23 -5 23 -25 0 -15 6 -25 15 -25 9 0 12 -6 8 -16 -3 -8 -12
-13 -19 -10 -7 3 -20 -2 -29 -10 -16 -17 -45 -12 -45 6 0 6 10 15 23 20 12 5
16 9 9 9 -19 1 -42 27 -42 46 0 9 -9 19 -20 22 -11 3 -20 9 -20 14 0 5 -7 9
-15 9 -8 0 -15 -9 -15 -19 0 -10 7 -21 15 -25 9 -3 15 -17 14 -33 0 -16 -3
-22 -6 -13 -4 8 -15 23 -27 33 -18 16 -22 17 -32 2 -6 -9 -18 -13 -27 -9 -11
4 -20 -2 -28 -20 -8 -17 -23 -28 -46 -32 -18 -3 -33 -10 -33 -15 0 -5 -4 -9
-10 -9 -17 0 -11 36 10 55 14 13 17 22 10 29 -5 5 -10 17 -10 25 0 12 3 11 18
-2 10 -10 22 -17 25 -17 11 0 8 38 -3 45 -19 12 -11 37 9 30 13 -4 23 0 31 12
8 13 13 14 16 6 3 -7 19 -13 36 -13 22 0 31 6 35 21 3 11 11 18 18 15 8 -3 16
2 19 10 7 19 32 18 40 -1z m116 -21 c0 -10 9 -14 27 -12 22 2 30 -3 43 -30 17
-35 66 -81 88 -82 18 0 15 -17 -5 -24 -11 -5 -24 2 -39 19 -25 30 -32 31 -50
8 -9 -12 -13 -14 -14 -5 0 9 -7 11 -20 7 -11 -4 -20 -2 -20 4 0 5 -15 17 -32
26 -48 23 -64 37 -73 65 -7 23 -7 23 9 7 21 -21 27 -22 20 -2 -5 11 1 15 20
15 17 0 26 5 26 16 0 8 5 12 10 9 6 -3 10 -13 10 -21z m-410 -10 c0 -8 9 -14
20 -14 23 0 26 -22 6 -43 -8 -8 -16 -26 -18 -41 l-3 -28 -28 22 -28 23 7 -38
7 -38 -34 23 c-19 13 -37 28 -40 33 -4 6 -12 0 -18 -11 -15 -27 -14 -35 2 -29
8 3 20 1 27 -3 19 -12 -6 -35 -49 -43 -42 -9 -61 6 -61 47 1 37 17 60 48 70
15 5 22 15 22 32 0 13 -4 24 -10 24 -5 0 -10 5 -10 10 0 6 11 10 25 10 14 0
25 -4 25 -10 0 -5 9 -10 20 -10 11 0 20 -5 20 -11 0 -8 5 -8 15 1 8 7 15 18
15 25 0 14 20 25 33 18 4 -2 7 -11 7 -19z m45 16 c3 -5 1 -10 -4 -10 -6 0 -11
5 -11 10 0 6 2 10 4 10 3 0 8 -4 11 -10z m554 -7 c-1 -5 -1 -19 0 -32 1 -23 2
-23 21 -6 17 16 20 16 35 1 9 -8 24 -20 33 -25 14 -8 15 -12 5 -22 -7 -7 -13
-23 -13 -35 0 -12 6 -25 13 -27 7 -3 5 -6 -5 -6 -10 -1 -18 4 -18 10 0 11 -24
39 -34 39 -3 0 -6 -10 -6 -22 0 -13 -4 -18 -8 -12 -4 6 -15 13 -24 17 -10 3
-18 16 -18 27 0 11 -6 20 -13 20 -7 0 -23 11 -35 25 l-22 25 24 0 c13 0 29 7
36 15 13 16 31 20 29 8z m183 -79 c28 -5 43 -15 58 -39 25 -41 25 -55 0 -55
-11 0 -20 5 -20 12 0 18 -41 57 -54 52 -7 -3 -21 4 -31 16 -20 22 -15 24 47
14z m-182 -102 c0 -15 -11 -21 -27 -15 -12 5 -12 7 -1 14 17 11 28 11 28 1z
m140 -2 c0 -5 7 -10 15 -10 8 0 15 -7 15 -15 0 -18 -11 -19 -44 -3 -20 9 -23
14 -15 25 13 15 29 17 29 3z m-623 -16 c-3 -3 -12 -4 -19 -1 -8 3 -5 6 6 6 11
1 17 -2 13 -5z m270 -20 c-3 -3 -12 -4 -19 -1 -8 3 -5 6 6 6 11 1 17 -2 13 -5z
m517 0 c24 -9 19 -24 -8 -24 -13 0 -26 7 -30 15 -6 16 10 20 38 9z m-444 -39
c0 -7 7 -15 15 -19 8 -3 15 -11 15 -19 0 -18 39 -53 68 -62 13 -4 22 -14 22
-27 0 -15 -4 -18 -17 -14 -9 4 -20 1 -25 -6 -6 -10 -8 -8 -8 5 0 9 -4 17 -10
17 -5 0 -10 9 -10 19 0 21 -26 36 -36 20 -3 -6 -15 -8 -26 -6 -11 3 -30 2 -43
-3 -17 -6 -27 -3 -43 13 -30 30 -72 84 -72 91 0 11 37 6 73 -9 47 -19 46 -20
57 11 9 22 13 24 25 14 8 -7 15 -18 15 -25z m145 -21 c19 -12 29 -14 38 -5 11
8 19 4 37 -16 21 -24 21 -27 6 -39 -17 -12 -52 -8 -73 9 -9 6 -13 6 -13 -2 0
-6 -4 -11 -8 -11 -14 0 -62 45 -62 57 0 6 -6 14 -12 16 -7 3 4 6 25 6 21 1 49
-6 62 -15z m145 -28 c0 -2 -7 -9 -15 -16 -12 -10 -15 -10 -15 4 0 9 7 16 15
16 8 0 15 -2 15 -4z m-416 -42 c24 -23 19 -36 -10 -32 -33 4 -55 48 -24 48 10
0 26 -7 34 -16z m427 -71 c37 -22 36 -28 -2 -43 -26 -11 -32 -11 -40 1 -5 8
-7 20 -4 27 3 8 5 18 5 23 0 13 8 11 41 -8z m159 -24 c0 -5 -11 -9 -25 -9 -24
0 -32 10 -19 22 8 8 44 -3 44 -13z m-444 -59 c17 -39 36 -48 61 -32 9 6 7 12
-7 22 -33 23 -23 30 40 28 33 -1 60 -5 60 -10 0 -4 6 -8 13 -8 8 0 20 -11 27
-25 7 -14 17 -25 22 -25 4 0 8 -7 8 -15 0 -8 -3 -15 -6 -15 -12 0 -64 34 -64
42 0 14 -22 8 -39 -10 -19 -21 -62 -52 -73 -52 -5 0 -8 10 -8 21 0 20 -25 48
-42 49 -5 0 -8 -9 -8 -20 0 -16 -7 -20 -34 -20 -25 0 -36 5 -39 18 -5 20 -11
8 -22 -42 -5 -25 -9 -28 -36 -22 -17 3 -39 1 -50 -5 -18 -9 -19 -7 -13 31 4
27 3 40 -5 40 -6 0 -11 5 -11 10 0 6 9 10 20 10 11 0 20 -4 20 -10 0 -5 7 -10
15 -10 18 0 19 14 5 41 -9 16 -7 21 17 30 20 7 33 7 49 -2 19 -10 26 -9 39 5
26 25 42 19 61 -24z m414 30 c0 -5 -5 -10 -11 -10 -5 0 -7 5 -4 10 3 6 8 10
11 10 2 0 4 -4 4 -10z m75 -17 c-9 -8 -19 -13 -22 -9 -9 8 18 37 28 30 5 -3 2
-12 -6 -21z m-141 -59 c17 -10 17 -12 -8 -37 -19 -19 -26 -22 -26 -11 0 17
-14 33 -45 50 -11 6 -21 18 -23 27 -3 14 1 14 40 -1 24 -10 51 -22 62 -28z
m-74 -53 c0 -9 10 -22 22 -30 l22 -14 -23 -18 c-29 -24 -51 -10 -51 32 0 16
-5 29 -11 29 -8 0 -8 4 1 14 14 18 40 10 40 -13z m-152 -29 c2 -7 -1 -12 -7
-12 -6 0 -11 -7 -11 -15 0 -11 -11 -15 -37 -14 -35 0 -36 1 -15 11 13 7 22 20
22 34 0 20 3 22 22 15 12 -4 24 -13 26 -19z m307 -36 c0 -20 -3 -42 -7 -49 -5
-8 -8 -6 -8 7 0 11 -5 16 -14 13 -23 -9 -35 12 -23 42 7 19 17 27 31 26 17 -1
21 -8 21 -39z m-278 -48 c-3 -8 -6 -5 -6 6 -1 11 2 17 5 13 3 -3 4 -12 1 -19z
m-5 -22 c6 -8 8 -7 8 2 0 6 7 12 15 12 8 0 15 -4 15 -9 0 -5 13 -23 30 -41 32
-34 32 -57 0 -40 -10 5 -25 16 -32 24 -23 22 -58 30 -58 13 0 -9 6 -17 13 -20
6 -2 9 -8 4 -12 -4 -5 -13 -3 -19 3 -17 17 -48 15 -48 -2 0 -26 -21 -29 -43
-7 l-21 21 32 0 c37 0 44 23 12 42 -11 7 -20 16 -20 20 0 20 99 15 112 -6z
m-62 -132 c0 -8 -5 -12 -10 -9 -6 4 -8 11 -5 16 9 14 15 11 15 -7z m-493 -43
c7 -28 44 -34 66 -11 22 25 36 25 66 0 15 -13 22 -27 18 -40 -4 -17 0 -20 24
-20 19 0 29 -5 29 -15 0 -9 9 -15 25 -15 14 0 25 6 25 13 0 8 -11 20 -25 27
-37 20 -32 40 9 40 19 0 38 -4 41 -10 3 -5 15 -10 26 -10 10 0 19 5 19 10 0 6
8 10 18 10 20 -1 52 -23 52 -37 0 -6 7 -16 15 -23 8 -7 15 -19 15 -27 0 -13
-2 -13 -17 -2 -15 13 -16 12 -11 -8 8 -28 -3 -29 -27 -3 -14 16 -21 18 -33 8
-8 -7 -29 -11 -48 -9 -25 2 -34 -1 -34 -13 0 -10 -6 -13 -15 -10 -8 4 -15 2
-15 -4 0 -5 -12 -12 -26 -15 -23 -4 -25 -2 -22 23 2 26 -23 65 -36 53 -3 -4
-6 -18 -6 -31 0 -24 -1 -24 -18 -9 -24 22 -35 21 -30 -1 8 -28 -52 -16 -79 17
-21 25 -22 25 -23 5 0 -12 7 -24 15 -28 25 -9 16 -30 -21 -53 -45 -29 -84 -30
-84 -4 0 11 5 23 10 26 6 3 10 17 10 30 0 13 -4 27 -10 30 -18 11 -11 35 10
35 11 0 20 -6 20 -14 0 -9 7 -12 20 -9 23 6 27 23 6 23 -13 0 -26 20 -26 41 0
5 6 9 14 9 7 0 16 9 19 20 7 25 27 26 34 1z m853 -7 c0 -8 -4 -12 -10 -9 -5 3
-10 10 -10 16 0 5 5 9 10 9 6 0 10 -7 10 -16z m-264 -39 c10 -41 -3 -61 -41
-62 -19 -1 -35 4 -35 10 0 7 -5 6 -12 -2 -10 -11 -10 -14 0 -18 18 -7 15 -43
-5 -43 -9 0 -24 -6 -32 -14 -14 -12 -18 -12 -29 0 -7 8 -8 14 -2 14 5 0 10 9
10 20 0 13 7 20 20 20 11 0 20 7 20 15 0 8 -4 15 -10 15 -5 0 -19 9 -30 20
-18 18 -19 23 -6 35 17 17 52 20 61 5 10 -16 55 -12 55 5 0 23 29 6 36 -20z
m180 -15 c6 0 11 -12 12 -26 1 -15 15 -38 31 -53 36 -31 52 -81 27 -81 -9 0
-16 8 -16 20 0 22 -16 27 -23 8 -2 -7 -3 0 -1 16 5 34 -18 55 -59 56 -17 0
-37 10 -51 25 -13 14 -30 25 -37 25 -10 1 -8 5 5 15 14 10 24 12 38 4 16 -9
20 -7 25 10 l5 21 18 -20 c9 -11 21 -20 26 -20z m98 -16 c14 -15 26 -33 26
-41 0 -7 7 -25 16 -38 8 -13 14 -34 12 -45 -3 -22 -3 -22 -25 -2 -13 11 -23
29 -23 40 0 19 -44 82 -64 91 -8 3 12 21 25 21 4 0 18 -12 33 -26z m-271 -59
c4 -8 2 -17 -3 -20 -6 -4 -10 3 -10 14 0 25 6 27 13 6z m74 -1 c10 -10 12 -19
6 -25 -14 -14 -43 0 -43 22 0 23 16 24 37 3z m-397 -48 c0 -18 -27 -28 -36
-14 -4 7 -9 6 -14 -2 -4 -7 -13 -9 -19 -5 -19 11 3 30 38 32 20 1 31 -2 31
-11z m100 -112 c0 -23 5 -34 15 -34 8 0 19 -10 26 -21 9 -17 17 -20 44 -16 38
6 50 -9 29 -33 -14 -17 -99 -16 -88 1 11 18 -7 47 -31 52 -19 3 -25 0 -25 -14
0 -11 -4 -19 -10 -19 -5 0 -10 4 -10 10 0 5 -6 7 -14 4 -8 -3 -20 3 -27 13 -8
10 -24 19 -36 20 -19 2 -23 -2 -23 -26 0 -16 6 -31 15 -35 21 -8 19 -26 -4
-26 -11 0 -21 -5 -23 -12 -3 -7 -11 -9 -24 -3 -17 7 -17 8 -1 12 28 7 22 43
-8 43 -20 0 -25 5 -25 25 0 20 5 25 26 25 27 0 28 6 9 53 -6 15 -1 17 39 17
25 0 46 -4 46 -9 0 -12 27 -21 45 -15 8 3 17 15 20 25 10 31 35 4 35 -37z
m135 10 c27 -27 45 -25 45 7 0 21 18 26 25 7 2 -7 6 -31 9 -53 2 -22 2 -32 0
-22 -8 27 -24 20 -25 -10 l-1 -28 -11 26 c-10 22 -15 25 -34 16 -18 -8 -30 -5
-58 14 -45 31 -52 49 -20 49 14 0 25 5 25 10 0 17 18 11 45 -16z m248 -57 c-8
-5 -20 -4 -29 4 -8 6 -18 9 -21 5 -4 -4 -1 -11 6 -15 10 -7 11 -13 2 -27 -6
-11 -11 -14 -11 -7 0 6 -9 15 -20 18 -11 3 -23 17 -26 31 -3 13 -10 24 -15 24
-5 0 -9 7 -9 15 0 9 9 15 25 15 16 0 25 -6 25 -15 0 -24 27 -18 34 8 5 21 7
20 30 -13 20 -29 21 -36 9 -43z m67 -3 c0 -8 -4 -14 -9 -14 -12 0 -32 26 -25
33 10 9 34 -4 34 -19z m34 -30 c13 -5 14 -9 5 -20 -13 -16 -29 -9 -29 12 0 16
2 16 24 8z m-194 -19 c0 -9 -9 -15 -25 -15 -18 0 -23 4 -19 15 4 8 15 15 25
15 10 0 19 -7 19 -15z m146 -19 c20 -20 18 -24 -10 -19 -14 3 -27 11 -30 19
-7 18 21 18 40 0z m-486 -81 c0 -7 7 -18 15 -25 19 -16 20 -50 1 -50 -7 0 -16
-9 -19 -20 -3 -11 -13 -23 -24 -27 -10 -3 -21 -11 -25 -17 -4 -6 -5 7 -2 29 4
34 3 36 -6 16 -7 -15 -15 -21 -26 -17 -9 3 -20 6 -25 6 -5 0 -9 6 -9 13 0 7
-10 17 -22 22 -18 8 -23 19 -24 47 -2 36 -1 37 30 35 17 -1 33 -4 36 -7 3 -3
15 -10 26 -17 23 -12 44 -1 44 24 0 7 7 10 15 7 8 -4 15 -12 15 -19z m138 -26
c26 -12 55 -28 65 -37 16 -14 17 -13 17 7 0 12 -7 24 -15 27 -24 9 -17 24 10
24 16 0 25 -6 25 -15 0 -8 4 -15 10 -15 5 0 9 -16 7 -35 -2 -35 -17 -50 -17
-18 0 15 -1 15 -13 -1 -13 -18 -15 -17 -40 8 -25 25 -57 35 -57 18 0 -5 9 -17
20 -27 24 -21 26 -35 5 -35 -21 0 -65 52 -65 77 0 13 -4 23 -10 23 -5 0 -10 5
-10 10 0 15 16 12 68 -11z m259 7 c4 -7 15 -15 23 -18 10 -3 14 -17 11 -49 -1
-24 -5 -46 -7 -48 -2 -2 -16 8 -30 22 -15 15 -31 27 -35 27 -5 0 -9 7 -9 15 0
8 7 15 15 15 11 0 14 7 9 25 -7 27 9 35 23 11z m-90 -12 c-3 -3 -12 -4 -19 -1
-8 3 -5 6 6 6 11 1 17 -2 13 -5z m33 -14 c0 -5 -5 -10 -11 -10 -5 0 -7 5 -4
10 3 6 8 10 11 10 2 0 4 -4 4 -10z m-287 -58 c-18 -5 -27 3 -18 17 4 7 10 7
20 -2 11 -10 11 -13 -2 -15z m-199 12 c23 -9 20 -34 -4 -34 -11 0 -20 -7 -20
-15 0 -12 8 -14 40 -9 48 8 56 -13 13 -33 -42 -20 -83 -17 -83 6 0 11 -3 26
-6 34 -3 9 4 25 15 36 23 23 23 23 45 15z m483 -10 c-3 -3 -12 -4 -19 -1 -8 3
-5 6 6 6 11 1 17 -2 13 -5z m-317 -14 c0 -5 -4 -10 -10 -10 -5 0 -10 5 -10 10
0 6 5 10 10 10 6 0 10 -4 10 -10z m89 -9 c13 -9 10 -13 -21 -24 -13 -5 -18 -1
-18 13 0 21 16 25 39 11z m205 -18 c30 3 30 -21 -1 -36 -40 -21 -53 -13 -40
23 6 16 14 25 17 20 3 -5 14 -8 24 -7z m-174 -42 c0 -10 -24 -21 -46 -21 -8 0
-11 6 -8 15 6 16 54 21 54 6z m-544 -25 c8 -8 14 -21 14 -28 0 -10 3 -9 10 2
8 12 13 13 30 2 18 -11 24 -9 46 15 20 21 27 24 34 14 9 -16 3 -41 -11 -41 -5
0 -9 -7 -9 -16 0 -14 3 -14 15 -4 18 15 29 7 40 -27 5 -17 2 -23 -9 -23 -10 0
-16 -9 -16 -24 0 -13 -7 -29 -15 -36 -13 -10 -15 -9 -15 9 0 11 -4 21 -8 21
-5 0 -14 11 -20 25 -14 30 -32 34 -25 5 3 -11 8 -20 12 -20 3 0 6 -13 6 -30 0
-16 -1 -30 -2 -30 -13 0 -33 15 -33 26 0 21 -28 17 -40 -5 -5 -11 -10 -29 -10
-40 0 -12 -4 -21 -10 -21 -5 0 -10 7 -10 15 0 8 -9 15 -19 15 -30 0 -51 11
-51 26 0 8 5 14 10 14 6 0 10 16 10 35 0 30 3 35 25 35 23 0 24 2 18 50 -6 53
4 64 33 36z m381 -36 c3 -11 9 -20 14 -20 5 0 9 -10 9 -21 0 -24 26 -48 51
-49 9 0 22 -7 29 -15 11 -13 8 -15 -15 -15 -17 0 -37 11 -56 32 -24 25 -32 29
-42 18 -9 -10 -9 -14 1 -17 16 -6 16 -33 -1 -33 -7 0 -18 9 -25 20 -7 11 -19
20 -27 20 -8 0 -15 -9 -15 -20 0 -11 5 -20 10 -20 6 0 10 -7 10 -15 0 -8 -4
-15 -8 -15 -12 0 -115 140 -108 147 13 13 55 4 75 -16 29 -29 46 -26 61 9 14
35 30 39 37 10z m213 -10 c0 -5 -4 -12 -10 -15 -5 -3 -10 -10 -10 -16 0 -5 5
-9 10 -9 6 0 10 7 10 15 0 24 17 17 24 -10 4 -14 11 -25 16 -25 6 0 10 -5 10
-11 0 -8 -4 -8 -14 0 -10 9 -16 9 -21 1 -4 -6 -16 -10 -28 -8 -17 2 -21 -2
-19 -19 5 -37 -15 -34 -33 5 -30 68 -38 82 -47 82 -4 0 -8 5 -8 10 0 15 19 12
36 -5 22 -22 54 -19 54 5 0 13 5 18 15 14 8 -4 15 -10 15 -14z m115 -1 c4 -6
14 -8 22 -5 9 4 17 -1 20 -14 4 -15 9 -17 22 -10 21 10 46 -3 36 -19 -4 -7 -4
-23 -1 -37 7 -28 42 -33 50 -6 2 9 4 4 3 -13 -3 -40 -30 -44 -64 -11 -14 14
-34 26 -44 26 -10 0 -24 7 -31 15 -7 9 -28 31 -46 50 l-34 35 30 0 c17 0 34
-5 37 -11z m-465 -94 c0 -8 -3 -15 -7 -15 -5 0 -16 -7 -27 -15 -24 -19 -12
-39 15 -24 25 13 51 5 43 -15 -6 -15 -57 -27 -72 -17 -11 8 -24 86 -15 94 13
14 63 7 63 -8z m458 -7 c20 -20 15 -40 -9 -33 -13 5 -25 2 -30 -6 -4 -7 -11
-10 -15 -6 -4 4 -3 12 3 18 6 6 9 18 6 25 -6 18 28 19 45 2z m-338 -113 c7 -8
18 -15 25 -15 10 0 11 -5 2 -25 -7 -14 -18 -25 -24 -25 -7 0 -13 -11 -13 -25
0 -28 -12 -32 -30 -10 -7 8 -20 15 -28 15 -12 0 -13 -3 -4 -12 7 -7 12 -16 12
-20 0 -19 -23 -5 -70 44 -40 41 -48 54 -36 60 18 10 66 0 66 -13 0 -5 7 -9 16
-9 18 0 44 23 44 39 0 16 26 13 40 -4z m404 -37 c-3 -10 2 -25 11 -34 9 -9 14
-21 12 -28 -7 -20 -33 -17 -71 9 -20 14 -41 25 -46 25 -6 0 -10 7 -10 15 0 8
-4 15 -10 15 -5 0 -10 7 -10 15 0 16 12 18 48 9 13 -4 22 -14 22 -26 0 -10 5
-16 10 -13 6 3 10 20 10 37 0 31 0 31 20 13 13 -11 18 -25 14 -37z m-289 24
c17 -10 42 -22 58 -25 15 -4 27 -12 27 -17 0 -6 8 -10 18 -10 12 0 13 3 5 8
-17 11 -21 54 -5 59 7 3 12 -4 12 -19 0 -13 5 -29 12 -36 9 -9 8 -17 -2 -37
-15 -28 -35 -33 -44 -10 -3 8 -12 15 -21 15 -18 0 -19 -12 -4 -27 9 -9 8 -16
-5 -28 -15 -15 -16 -15 -16 4 0 11 -9 25 -20 31 -14 7 -20 7 -20 0 0 -5 -7
-10 -15 -10 -8 0 -15 -4 -15 -10 0 -5 -9 -10 -20 -10 -15 0 -20 7 -20 25 0 26
18 33 36 15 8 -8 15 -6 23 4 11 13 8 19 -15 39 -18 16 -25 30 -21 40 8 21 15
21 52 -1z m198 -92 c32 -37 22 -55 -28 -50 -28 3 -29 5 -14 39 16 37 19 37 42
11z m167 -55 c0 -27 -9 -32 -28 -13 -18 18 -14 38 8 38 15 0 20 -7 20 -25z
m-603 -17 c-3 -8 -6 -5 -6 6 -1 11 2 17 5 13 3 -3 4 -12 1 -19z m-27 -13 c0
-9 -9 -15 -25 -15 -31 0 -33 17 -2 23 12 2 23 5 25 6 1 0 2 -6 2 -14z m257 9
c-3 -3 -12 -4 -19 -1 -8 3 -5 6 6 6 11 1 17 -2 13 -5z m-105 -74 c5 0 8 -11 8
-25 0 -14 6 -25 13 -25 7 0 19 -8 26 -18 8 -12 21 -17 37 -14 23 4 23 5 -11
37 -33 31 -45 55 -27 55 5 0 25 -15 44 -34 29 -28 34 -39 30 -65 -3 -21 -10
-31 -21 -31 -9 0 -22 -5 -29 -12 -9 -9 -12 -9 -12 0 0 7 -6 12 -14 12 -8 0
-16 7 -20 15 -3 8 -1 15 4 15 21 0 9 16 -20 27 -29 11 -29 10 -23 -18 3 -16 3
-29 -1 -29 -6 0 -36 23 -63 49 -7 7 -17 10 -21 6 -4 -4 -1 -10 6 -12 6 -3 12
-16 12 -30 0 -30 -20 -26 -37 8 -12 23 -13 23 -13 -13 0 -21 -4 -38 -10 -38
-5 0 -10 -11 -10 -25 0 -16 -6 -25 -15 -25 -8 0 -15 7 -15 15 0 8 -9 15 -20
15 -11 0 -20 -7 -20 -15 0 -8 -7 -15 -15 -15 -16 0 -20 36 -9 76 6 23 42 44
74 44 23 0 27 18 5 26 -16 7 -21 64 -5 64 5 0 26 -9 46 -21 21 -11 40 -16 43
-11 3 5 15 21 26 36 l19 26 16 -25 c8 -14 18 -25 22 -25z m375 16 c8 -4 21
-24 29 -43 14 -32 14 -35 -8 -53 -21 -17 -24 -18 -35 -3 -10 13 -15 14 -28 3
-13 -11 -15 -9 -15 15 0 19 -4 26 -14 22 -8 -3 -23 5 -35 17 -24 25 -27 40 -8
33 6 -2 19 -1 28 4 11 6 22 1 37 -16 25 -28 42 -32 42 -10 0 8 -4 15 -10 15
-5 0 -10 12 -9 28 0 15 3 21 6 12 3 -8 12 -19 20 -24z m-251 -11 c33 -31 54
-32 54 -3 0 22 0 22 25 -4 21 -23 23 -30 14 -57 -10 -29 -29 -43 -29 -21 0 6
-9 10 -20 10 -25 0 -90 67 -83 86 7 18 7 18 39 -11z m154 -90 c0 -8 -7 -15
-15 -15 -8 0 -15 7 -15 15 0 8 7 15 15 15 8 0 15 -7 15 -15z m-100 -15 c0 -5
-4 -10 -10 -10 -5 0 -10 5 -10 10 0 6 5 10 10 10 6 0 10 -4 10 -10z m290 -44
c0 -30 -5 -46 -15 -50 -9 -3 -15 0 -15 8 0 8 5 16 11 18 8 3 6 10 -6 21 -19
20 -14 47 10 47 11 0 15 -11 15 -44z m-360 -6 c0 -5 -4 -10 -10 -10 -5 0 -10
5 -10 10 0 6 5 10 10 10 6 0 10 -4 10 -10z m-170 -50 c0 -6 11 -16 25 -22 33
-15 37 -77 4 -85 -16 -5 -19 -11 -13 -35 5 -23 3 -29 -7 -25 -8 2 -13 10 -11
16 3 14 -37 50 -56 51 -10 0 -8 -8 6 -27 19 -27 19 -53 2 -53 -23 0 -100 100
-100 130 0 5 18 10 40 10 22 0 40 -4 40 -10 0 -5 11 -10 24 -10 13 0 27 -7 30
-16 4 -9 9 -14 13 -11 3 4 1 12 -5 20 -13 15 -13 77 0 77 4 0 8 -5 8 -10z
m249 -29 c28 -28 35 -70 16 -92 -10 -10 -14 -23 -10 -28 3 -7 -2 -11 -14 -11
-12 0 -21 5 -21 10 0 6 -5 10 -11 10 -7 0 -18 8 -25 18 -8 10 -13 12 -14 5 0
-7 -5 -13 -11 -13 -11 0 -39 25 -39 35 0 4 -7 13 -15 21 -23 24 -18 40 14 42
20 2 38 -6 55 -22 21 -22 26 -23 36 -11 7 8 10 24 7 35 -6 25 7 26 32 1z m83
7 c12 -7 31 -22 41 -33 18 -20 19 -20 14 2 -7 32 11 39 34 12 19 -22 27 -89
10 -89 -5 0 -16 -3 -25 -6 -11 -4 -16 -1 -16 10 0 9 -5 16 -11 16 -15 0 -69
62 -63 72 3 4 -2 8 -10 8 -9 0 -16 5 -16 10 0 14 16 13 42 -2z m164 -117 c-4
-5 -13 -8 -21 -5 -11 5 -12 9 -2 19 13 15 33 3 23 -14z m-613 -5 c3 -8 -1 -17
-9 -20 -8 -3 -14 -13 -14 -22 0 -12 7 -15 25 -12 29 6 32 0 8 -18 -25 -18 -60
-17 -67 2 -5 14 1 58 11 77 7 12 41 8 46 -7z m247 5 c0 -20 -25 -29 -43 -17
-25 19 -21 26 13 26 17 0 30 -4 30 -9z m214 3 c17 -7 22 -44 6 -44 -5 0 -10
-8 -10 -17 0 -15 -2 -14 -15 3 -8 11 -15 14 -15 7 0 -7 -4 -13 -10 -13 -5 0
-10 16 -10 35 0 36 15 44 54 29z m306 -35 c0 -16 -4 -29 -10 -29 -5 0 -10 -8
-11 -17 -1 -10 -5 2 -10 26 -9 49 -5 63 16 54 9 -3 15 -18 15 -34z m-481 -12
c-2 -1 -14 -11 -26 -21 -23 -19 -23 -19 -23 2 0 17 6 22 27 22 14 0 24 -1 22
-3z m361 -6 c0 -12 -26 -21 -58 -20 -17 1 -21 3 -9 6 9 2 17 9 17 14 0 5 11 9
25 9 14 0 25 -4 25 -9z m-514 -78 c7 -10 14 -31 14 -46 0 -20 4 -27 16 -25 10
2 18 -5 19 -14 4 -22 -2 -23 -22 -3 -22 23 -39 13 -35 -21 l3 -28 -23 19 c-13
11 -26 25 -30 30 -4 6 -5 -7 -1 -27 4 -31 3 -38 -11 -38 -9 0 -16 8 -16 19 0
16 -37 41 -43 29 -27 -52 -38 -63 -64 -63 -22 0 -27 4 -25 20 6 38 11 45 36
45 35 0 36 18 4 51 -34 33 -37 54 -6 46 12 -3 29 -2 38 3 12 6 20 3 30 -11 19
-26 38 -24 62 6 23 30 36 31 54 8z m420 -37 c3 -12 4 -26 3 -32 -5 -26 3 -34
36 -34 34 0 49 -20 25 -35 -5 -3 -7 -12 -3 -20 3 -8 0 -15 -6 -15 -6 0 -11 7
-11 16 0 9 -10 25 -22 35 -20 18 -23 18 -39 3 -24 -22 -48 -14 -25 8 20 21 20
28 1 28 -8 0 -15 -4 -15 -10 0 -5 -9 -10 -20 -10 -11 0 -20 5 -20 10 0 6 -6
10 -12 10 -12 0 -38 43 -38 62 0 12 29 9 44 -4 7 -7 11 -20 8 -30 -2 -10 1
-18 7 -18 6 0 11 9 11 20 0 11 5 20 10 20 6 0 10 11 10 25 0 25 1 25 25 9 14
-9 28 -26 31 -38z m-285 4 c10 0 19 -4 19 -10 0 -22 19 -8 22 17 4 37 22 39
52 6 29 -31 36 -79 11 -69 -8 3 -15 1 -15 -3 0 -5 -10 -20 -22 -34 l-21 -24
-41 39 c-23 22 -51 44 -63 49 -13 5 -23 17 -23 28 0 11 -6 22 -12 24 -8 3 -6
6 4 6 9 1 22 -7 27 -16 9 -16 10 -16 11 -1 0 23 24 29 28 6 2 -10 12 -18 23
-18z m-18 -101 c6 -22 -24 -52 -30 -31 -3 6 -13 12 -24 12 -12 0 -19 7 -19 19
0 34 64 34 73 0z m507 0 c0 -12 -7 -19 -20 -19 -22 0 -26 20 -8 38 15 15 28 6
28 -19z m-287 4 c-7 -2 -13 -16 -13 -29 0 -30 -19 -31 -51 -3 -19 17 -21 22
-9 29 8 6 31 9 50 9 19 0 29 -3 23 -6z m-113 -13 c0 -5 -4 -10 -10 -10 -5 0
-10 5 -10 10 0 6 5 10 10 10 6 0 10 -4 10 -10z m410 -40 c0 -13 -7 -20 -19
-20 -25 0 -35 27 -13 33 30 8 32 7 32 -13z m-517 -6 c3 -4 0 -13 -8 -21 -13
-13 -17 -13 -30 0 -11 12 -12 17 -2 20 18 8 33 8 40 1z m57 -45 c0 -5 4 -8 9
-5 19 12 41 -7 41 -35 0 -16 -2 -29 -4 -29 -19 0 -36 16 -36 33 0 20 -1 20
-16 5 -16 -15 -15 -18 10 -41 31 -29 33 -43 7 -57 -28 -14 -31 -13 -31 15 0
14 -4 25 -10 25 -5 0 -10 -4 -10 -10 0 -5 -7 -10 -15 -10 -8 0 -15 6 -15 13 0
8 -11 20 -25 27 -31 17 -32 27 -1 41 17 8 29 8 44 0 29 -15 32 -14 32 14 0 14
5 25 10 25 6 0 10 -5 10 -11z m218 -24 c2 -16 11 -34 19 -40 14 -11 14 -16 2
-43 -18 -41 -33 -36 -37 11 -2 25 -8 37 -18 37 -11 0 -12 -4 -4 -19 10 -21 -3
-40 -15 -21 -11 18 -31 11 -43 -14 -10 -21 -8 -26 8 -31 21 -7 27 -30 11 -39
-16 -10 -41 5 -41 25 0 14 -7 19 -26 19 -23 0 -24 1 -10 16 9 8 16 19 16 22 0
4 10 12 22 17 13 6 24 19 26 30 2 16 1 17 -7 6 -8 -12 -12 -12 -26 3 -10 9
-15 19 -12 22 12 12 79 7 87 -6 6 -11 10 -7 16 13 8 35 28 30 32 -8z m-290
-108 c2 -10 1 -25 -2 -33 -5 -12 -9 -12 -28 -2 -30 17 -37 28 -31 45 8 20 57
12 61 -10z m386 0 c29 -27 19 -47 -21 -47 -26 0 -27 3 -13 31 8 15 7 19 -5 19
-8 0 -15 5 -15 10 0 18 28 11 54 -13z m-317 -117 c-13 -22 -3 -37 15 -23 7 6
30 16 50 22 34 11 41 10 70 -10 18 -13 37 -28 41 -34 5 -5 6 9 3 32 -6 41 -5
42 16 34 13 -4 24 -18 26 -30 2 -11 8 -21 13 -21 5 0 9 -11 9 -25 0 -14 -4
-25 -10 -25 -5 0 -10 5 -10 10 0 6 -4 10 -9 10 -5 0 -6 -20 -4 -44 6 -52 -12
-72 -27 -29 -8 23 -17 28 -45 30 l-35 3 -1 -53 c-1 -28 -4 -41 -6 -28 -3 13
-13 26 -24 28 -28 8 -26 51 3 55 32 4 34 33 4 65 l-26 28 0 -33 c0 -33 -21
-67 -34 -55 -3 4 -7 18 -7 32 -1 21 -2 22 -6 6 -3 -11 -10 -24 -17 -28 -8 -6
-8 -10 2 -14 14 -6 16 -52 2 -73 -8 -13 -10 -12 -10 3 0 11 -8 17 -22 17 -36
0 -134 118 -113 137 4 5 10 2 12 -4 3 -7 9 -13 14 -13 4 0 6 7 2 16 -10 26 37
8 69 -27 15 -16 30 -29 33 -29 3 0 5 22 5 50 0 39 3 48 15 44 11 -5 12 -10 2
-24z m-240 7 c5 15 19 3 41 -35 11 -19 10 -25 -3 -38 -9 -10 -13 -24 -10 -36
8 -24 -14 -55 -26 -36 -5 7 -9 23 -9 36 0 12 -5 22 -12 22 -6 0 -20 7 -30 17
-16 14 -18 14 -18 0 0 -8 7 -22 15 -31 8 -8 15 -25 14 -38 0 -13 -3 -17 -6
-10 -2 6 -11 12 -18 12 -7 0 -15 7 -19 15 -6 17 -36 21 -36 5 0 -5 5 -10 11
-10 8 0 8 -4 0 -14 -9 -10 -8 -16 4 -26 12 -10 13 -15 4 -21 -7 -4 -19 -1 -26
7 -8 8 -23 14 -34 14 -33 0 -33 28 -1 55 27 22 29 28 22 65 -7 38 -6 40 19 40
14 0 39 -7 55 -15 40 -21 47 -19 40 13 -4 22 -3 24 6 12 9 -11 13 -12 17 -3z
m631 -49 c2 -36 -1 -58 -8 -58 -5 0 -10 -7 -10 -16 0 -14 -3 -14 -16 -3 -8 7
-13 21 -11 31 6 22 -11 34 -26 19 -6 -6 -18 -11 -26 -11 -13 1 -13 3 2 14 16
12 16 15 1 27 -13 10 -17 10 -25 -2 -8 -10 -8 -7 -4 11 12 41 24 47 45 23 10
-13 25 -23 34 -23 18 0 21 15 6 25 -18 11 -10 26 13 23 19 -3 22 -10 25 -60z
m53 -70 c6 -52 -1 -88 -17 -88 -17 0 -19 26 -1 34 10 5 10 7 0 12 -7 3 -13 21
-13 40 0 45 26 47 31 2z m-581 -3 c0 -9 -9 -15 -25 -15 -22 0 -24 2 -13 15 17
19 38 19 38 0z m440 0 c0 -20 -37 -39 -43 -22 -7 20 4 37 24 37 10 0 19 -7 19
-15z m20 -44 c0 -5 -12 -19 -27 -31 -32 -25 -45 -9 -17 20 20 20 44 26 44 11z
m-430 -26 c0 -9 -9 -15 -25 -15 -22 0 -24 2 -13 15 17 19 38 19 38 0z m-410
-55 c0 -17 5 -19 25 -14 22 5 25 3 25 -19 0 -25 -23 -57 -40 -57 -5 0 -10 10
-12 23 -3 19 -4 20 -10 4 -6 -12 0 -25 16 -42 33 -33 19 -52 -23 -31 -27 15
-31 15 -31 1 0 -9 9 -15 25 -15 18 0 23 -4 19 -15 -7 -19 -31 -19 -65 -1 -14
7 -37 16 -51 19 -19 5 -31 20 -47 58 -27 65 -27 89 -1 89 11 0 20 -6 20 -12 0
-10 2 -10 8 0 12 18 37 6 50 -23 13 -29 42 -24 42 6 0 23 20 48 38 49 6 0 12
-9 12 -20z m290 10 c0 -5 21 -10 48 -10 26 0 60 -7 76 -15 27 -15 31 -14 53 7
19 18 26 20 32 9 5 -7 14 -10 20 -7 15 10 14 -30 -1 -57 -7 -12 -13 -31 -13
-41 0 -11 -6 -21 -14 -24 -10 -3 -12 1 -9 16 10 35 -7 47 -31 21 -16 -17 -18
-25 -9 -31 10 -6 10 -8 1 -8 -14 0 -63 61 -63 79 0 7 -6 19 -14 26 -11 12 -15
10 -25 -11 -6 -14 -11 -35 -11 -48 0 -32 -25 -53 -45 -36 -17 14 -30 89 -20
119 6 21 25 29 25 11z m326 -14 c-4 -17 -1 -25 12 -28 28 -8 42 2 42 28 0 13
5 24 10 24 6 0 10 -4 10 -10 0 -5 6 -10 13 -10 6 0 18 -4 26 -9 11 -7 11 -13
-3 -32 -11 -16 -14 -34 -10 -55 4 -23 2 -33 -10 -37 -11 -5 -16 -1 -16 13 0
21 -24 27 -36 9 -8 -13 -79 61 -87 91 -4 17 -2 20 14 15 13 -4 19 -2 19 9 0 9
5 16 11 16 7 0 9 -9 5 -24z m-401 -60 c14 -12 25 -29 25 -39 0 -9 5 -17 10
-17 18 0 10 -45 -10 -58 -19 -11 -25 -8 -61 30 -47 52 -89 114 -89 133 0 9 14
15 38 17 31 2 39 -1 50 -21 7 -13 24 -34 37 -45z m645 33 c0 -9 7 -24 15 -33
16 -16 11 -66 -7 -66 -5 0 -7 4 -4 9 11 18 -6 41 -30 41 -30 0 -74 27 -74 46
0 18 5 18 35 -2 15 -10 25 -12 25 -5 0 6 -7 11 -15 11 -24 0 -17 28 8 32 27 5
47 -9 47 -33z m-1480 -168 c0 -5 9 -11 20 -14 18 -4 26 -29 21 -60 -1 -4 10
-20 24 -35 14 -15 25 -35 25 -44 0 -20 -25 -24 -35 -7 -4 6 -13 8 -21 5 -9 -3
-14 2 -14 14 0 24 -18 27 -27 4 -3 -8 4 -29 16 -45 23 -30 21 -49 -5 -49 -8 0
-14 -10 -14 -25 0 -14 -4 -25 -10 -25 -5 0 -10 -7 -10 -15 0 -22 17 -18 23 5
8 30 27 24 27 -9 0 -16 6 -31 15 -35 8 -3 15 -15 15 -26 0 -11 4 -20 9 -20 5
0 12 -7 15 -16 5 -13 0 -15 -34 -9 -36 6 -40 5 -46 -19 -4 -19 -13 -26 -30
-26 -13 0 -24 5 -24 10 0 6 -9 19 -20 30 -19 19 -19 20 4 45 19 20 24 36 23
69 -1 24 5 55 12 70 14 24 13 28 -7 42 -12 8 -22 22 -22 30 0 8 -4 14 -10 14
-14 0 15 61 34 72 10 6 16 22 16 43 0 24 5 35 15 35 8 0 15 -4 15 -9z m115
-20 c-7 -22 -25 -29 -25 -11 0 12 23 40 28 35 2 -2 1 -13 -3 -24z m110 -48
c10 -27 22 -52 26 -57 5 -6 9 -16 9 -23 0 -10 -4 -11 -19 -2 -21 14 -48 63
-54 102 -7 45 19 32 38 -20z m61 2 c3 -14 10 -25 15 -25 5 0 9 -7 9 -16 0 -14
-3 -14 -15 -4 -8 7 -15 19 -15 26 0 8 -4 14 -10 14 -5 0 -10 7 -10 15 0 24 19
17 26 -10z m179 -15 c3 -5 1 -10 -4 -10 -6 0 -11 5 -11 10 0 6 2 10 4 10 3 0
8 -4 11 -10z m-277 -76 c-3 -29 -1 -33 14 -28 10 3 18 1 18 -5 0 -18 -12 -41
-22 -41 -16 0 -38 28 -38 48 0 11 -6 23 -12 26 -10 5 -10 7 0 12 6 3 12 12 12
20 0 8 6 11 16 7 11 -4 15 -15 12 -39z m245 -49 c4 -8 3 -16 -1 -19 -13 -8
-35 11 -28 23 10 15 23 14 29 -4z m-503 -39 c-1 -12 -35 -56 -44 -56 -12 0 -6
68 7 73 17 6 37 -3 37 -17z m141 -53 c-9 -16 -10 -15 -11 8 0 14 3 29 8 33 12
12 14 -22 3 -41z m184 -34 c19 -39 35 -73 35 -76 0 -9 -44 10 -64 28 -25 24
-31 24 -51 -3 -14 -21 -14 -24 0 -34 19 -14 19 -34 0 -34 -8 0 -15 9 -15 20 0
11 -4 20 -10 20 -5 0 -10 14 -10 31 0 24 3 29 18 25 12 -4 17 0 19 17 2 32 21
77 33 77 5 0 26 -32 45 -71z m-138 14 c-3 -10 -5 -4 -5 12 0 17 2 24 5 18 2
-7 2 -21 0 -30z m316 -33 c-3 -11 -7 -20 -8 -20 -1 0 -5 9 -8 20 -3 12 0 20 8
20 8 0 11 -8 8 -20z m-13 -80 c-12 -28 -14 -29 -26 -13 -20 26 -17 41 9 45 30
5 31 3 17 -32z m-423 -59 c-4 -17 0 -36 8 -47 8 -11 15 -25 15 -33 0 -8 7 -22
16 -32 15 -17 14 -18 -10 -25 -14 -3 -35 -21 -47 -40 -11 -19 -24 -34 -27 -34
-18 1 -30 17 -30 40 0 14 -3 35 -7 47 -5 15 -1 27 14 39 12 11 21 30 21 46 0
16 5 28 10 28 6 0 10 6 10 14 0 12 11 21 29 25 2 1 1 -12 -2 -28z m-103 9 c14
-5 26 -15 26 -22 0 -16 -48 -73 -56 -66 -9 10 -13 98 -4 98 5 0 20 -4 34 -10z
m194 -12 c-4 -27 -28 -36 -28 -10 0 20 8 32 22 32 5 0 8 -10 6 -22z m115 -77
c3 -28 13 -62 23 -76 19 -29 6 -34 -36 -12 -22 11 -28 11 -38 0 -9 -9 -9 -13
-2 -13 14 0 33 -19 49 -48 10 -18 9 -22 -2 -22 -8 0 -17 9 -20 21 -3 12 -10
18 -16 15 -6 -4 -20 -2 -31 4 -17 9 -20 19 -17 53 3 29 9 43 20 45 14 3 16 11
11 43 -4 24 -3 39 4 39 6 0 12 -6 15 -12 3 -9 7 -7 12 4 11 28 22 13 28 -41z
m247 -22 c0 -11 -4 -18 -10 -14 -5 3 -7 12 -3 20 7 21 13 19 13 -6z m-570 1
c0 -5 -5 -10 -11 -10 -5 0 -7 5 -4 10 3 6 8 10 11 10 2 0 4 -4 4 -10z m181
-200 c15 0 10 -37 -6 -44 -8 -3 -16 -1 -16 4 -2 14 -5 23 -13 42 -5 10 -2 23
6 31 11 13 13 12 16 -9 2 -13 8 -24 13 -24z m109 -82 c0 -5 -7 -8 -15 -8 -17
0 -31 61 -20 87 5 14 10 7 21 -27 7 -25 14 -48 14 -52z m40 52 c0 -5 -4 -10
-10 -10 -5 0 -10 5 -10 10 0 6 5 10 10 10 6 0 10 -4 10 -10z m210 -12 c0 -13
-5 -30 -10 -38 -8 -12 -10 -11 -10 7 0 12 -4 25 -10 28 -17 10 -11 25 10 25
14 0 20 -7 20 -22z m-380 -64 c0 -25 -31 -24 -40 2 -13 34 -13 34 15 21 14 -7
25 -17 25 -23z m76 -14 c-6 -36 -4 -40 16 -40 21 0 21 0 2 -15 -29 -22 -41
-18 -52 15 -9 24 -7 33 9 55 28 34 33 32 25 -15z m242 -39 c3 -8 -1 -12 -9 -9
-7 2 -15 10 -17 17 -3 8 1 12 9 9 7 -2 15 -10 17 -17z m-229 -97 c5 4 17 -18
27 -49 22 -69 11 -88 -33 -59 -15 10 -32 17 -37 16 -5 -2 -6 4 -2 13 3 9 6 38
6 63 1 43 2 45 15 28 7 -10 18 -15 24 -12z m-29 -134 c0 -5 -9 -10 -20 -10
-11 0 -20 5 -20 10 0 6 9 10 20 10 11 0 20 -4 20 -10z m6 -95 c9 -28 8 -35 -2
-35 -7 0 -14 -14 -16 -32 -5 -58 -23 -30 -19 30 5 83 18 97 37 37z m-169 -1
c-9 -9 -28 6 -21 18 4 6 10 6 17 -1 6 -6 8 -13 4 -17z m110 -6 c-3 -8 -6 -5
-6 6 -1 11 2 17 5 13 3 -3 4 -12 1 -19z m-1 -177 c5 -5 18 -11 29 -14 11 -3 4
-5 -17 -6 -28 -1 -38 3 -38 14 0 17 11 20 26 6z m-56 -30 c0 -5 -9 -13 -20
-16 -28 -9 -25 -25 5 -25 34 0 32 -18 -2 -22 -42 -5 -93 3 -93 14 0 6 7 7 15
4 9 -3 18 1 20 9 3 8 7 22 10 30 5 16 65 22 65 6z"/>
<path d="M5260 8510 c0 -5 7 -10 16 -10 8 0 12 5 9 10 -3 6 -10 10 -16 10 -5
0 -9 -4 -9 -10z"/>
<path d="M5781 7614 c0 -11 3 -14 6 -6 3 7 2 16 -1 19 -3 4 -6 -2 -5 -13z"/>
<path d="M5595 7290 c-3 -5 1 -10 9 -10 9 0 16 5 16 10 0 6 -4 10 -9 10 -6 0
-13 -4 -16 -10z"/>
<path d="M5430 7050 c0 -5 9 -10 21 -10 11 0 17 5 14 10 -3 6 -13 10 -21 10
-8 0 -14 -4 -14 -10z"/>
<path d="M5570 7046 c0 -2 7 -7 16 -10 8 -3 12 -2 9 4 -6 10 -25 14 -25 6z"/>
<path d="M5345 6810 c-3 -5 -1 -10 4 -10 6 0 11 5 11 10 0 6 -2 10 -4 10 -3 0
-8 -4 -11 -10z"/>
<path d="M5060 6601 c0 -6 4 -13 10 -16 6 -3 7 1 4 9 -7 18 -14 21 -14 7z"/>
<path d="M5000 6520 c0 -5 5 -10 10 -10 6 0 10 5 10 10 0 6 -4 10 -10 10 -5 0
-10 -4 -10 -10z"/>
<path d="M5670 6120 c0 -5 5 -10 10 -10 6 0 10 5 10 10 0 6 -4 10 -10 10 -5 0
-10 -4 -10 -10z"/>
<path d="M5760 6070 c0 -5 5 -10 11 -10 5 0 7 5 4 10 -3 6 -8 10 -11 10 -2 0
-4 -4 -4 -10z"/>
<path d="M5725 5620 c3 -5 8 -10 11 -10 2 0 4 5 4 10 0 6 -5 10 -11 10 -5 0
-7 -4 -4 -10z"/>
<path d="M5661 5114 c0 -11 3 -14 6 -6 3 7 2 16 -1 19 -3 4 -6 -2 -5 -13z"/>
<path d="M5450 5081 c0 -12 6 -21 15 -21 8 0 15 3 15 6 0 3 -7 12 -15 20 -13
14 -15 13 -15 -5z"/>
<path d="M5280 5115 c0 -8 5 -15 10 -15 6 0 10 7 10 15 0 8 -4 15 -10 15 -5 0
-10 -7 -10 -15z"/>
<path d="M5282 4895 c0 -16 2 -22 5 -12 2 9 2 23 0 30 -3 6 -5 -1 -5 -18z"/>
<path d="M4337 4363 c-13 -12 -7 -23 13 -23 11 0 20 7 20 15 0 15 -21 21 -33
8z"/>
<path d="M4334 4156 c-3 -9 1 -23 10 -31 14 -15 17 -15 22 -1 3 9 -1 23 -10
31 -14 15 -17 15 -22 1z"/>
<path d="M5055 8630 c-3 -5 -1 -10 4 -10 6 0 11 5 11 10 0 6 -2 10 -4 10 -3 0
-8 -4 -11 -10z"/>
<path d="M4508 8543 c6 -2 18 -2 25 0 6 3 1 5 -13 5 -14 0 -19 -2 -12 -5z"/>
<path d="M4860 8510 c0 -5 7 -10 16 -10 8 0 12 5 9 10 -3 6 -10 10 -16 10 -5
0 -9 -4 -9 -10z"/>
<path d="M4350 8485 c0 -8 4 -15 9 -15 5 0 12 -8 14 -17 3 -10 5 -3 6 15 1 22
-4 32 -14 32 -8 0 -15 -7 -15 -15z"/>
<path d="M4403 8468 c5 -45 42 -53 50 -11 7 36 2 43 -29 43 -22 0 -25 -4 -21
-32z"/>
<path d="M4509 8487 c-9 -7 -14 -18 -12 -24 7 -21 21 -15 25 9 2 18 11 9 47
-47 l43 -70 19 38 c11 20 26 37 34 37 19 0 19 24 1 39 -11 9 -20 10 -35 1 -15
-8 -26 -7 -41 2 -11 7 -20 16 -20 20 0 12 -43 9 -61 -5z"/>
<path d="M4728 8486 c-10 -7 -18 -18 -18 -24 0 -17 24 -20 36 -4 10 13 17 10
48 -20 20 -19 36 -40 36 -47 0 -6 6 -11 14 -11 9 0 12 7 9 19 -6 24 11 35 36
21 29 -15 36 5 11 30 -11 11 -30 20 -43 20 -13 0 -32 7 -43 15 -24 18 -63 19
-86 1z"/>
<path d="M4751 8414 c0 -11 3 -14 6 -6 3 7 2 16 -1 19 -3 4 -6 -2 -5 -13z"/>
<path d="M4326 8365 c-6 -16 -1 -19 47 -29 23 -6 27 -10 21 -28 -6 -21 -6 -21
11 -5 14 15 15 20 3 35 -33 42 -71 55 -82 27z"/>
<path d="M4495 8335 c-16 -14 -24 -25 -17 -25 6 0 12 -9 12 -21 0 -11 4 -18 9
-15 4 3 6 17 3 31 -4 21 -1 25 20 25 35 0 90 -29 95 -51 7 -24 7 -24 39 6 l27
25 -24 0 c-13 0 -33 7 -43 15 -11 8 -30 15 -42 15 -13 0 -26 5 -29 10 -9 14
-16 12 -50 -15z"/>
<path d="M5810 8324 c0 -8 9 -14 20 -14 11 0 20 4 20 9 0 5 -9 11 -20 14 -13
3 -20 0 -20 -9z"/>
<path d="M4210 8321 c0 -5 -3 -17 -6 -26 -6 -13 -3 -14 19 -4 15 7 23 17 20
25 -6 16 -33 19 -33 5z"/>
<path d="M4160 8249 c0 -5 5 -7 10 -4 6 3 10 8 10 11 0 2 -4 4 -10 4 -5 0 -10
-5 -10 -11z"/>
<path d="M4570 8196 c0 -13 7 -26 15 -30 16 -6 18 -2 9 32 -8 29 -24 28 -24
-2z"/>
<path d="M4479 8139 c-12 -8 -11 -11 4 -20 21 -13 22 -37 1 -60 -9 -10 -13
-23 -9 -28 10 -18 25 -12 25 9 0 11 5 20 10 20 6 0 10 12 10 26 0 21 4 25 23
22 18 -2 21 -8 19 -35 -3 -30 -2 -31 25 -24 35 9 45 41 13 41 -14 0 -24 8 -27
20 -3 11 -17 23 -32 26 -14 3 -31 7 -37 9 -6 2 -17 -1 -25 -6z"/>
<path d="M4686 8110 c-5 -32 -11 -40 -27 -40 -11 0 -17 -4 -14 -10 3 -5 15
-10 25 -10 10 0 25 -7 34 -15 20 -20 26 -19 26 6 0 16 -4 19 -20 14 -16 -5
-20 -2 -20 14 0 22 14 28 25 11 9 -15 22 -12 29 6 6 15 -29 63 -45 64 -4 0 -9
-18 -13 -40z"/>
<path d="M4317 8106 c-7 -19 0 -25 24 -19 15 4 17 8 8 19 -15 18 -25 18 -32 0z"/>
<path d="M4380 8065 c0 -19 11 -19 36 0 18 14 18 14 -8 15 -18 0 -28 -5 -28
-15z"/>
<path d="M6017 8043 c-3 -5 -2 -24 3 -43 7 -31 8 -32 9 -8 1 14 6 28 12 30 7
2 6 8 -4 16 -8 7 -18 9 -20 5z"/>
<path d="M4548 7953 c7 -3 16 -2 19 1 4 3 -2 6 -13 5 -11 0 -14 -3 -6 -6z"/>
<path d="M5840 7935 c0 -8 5 -15 10 -15 6 0 10 7 10 15 0 8 -4 15 -10 15 -5 0
-10 -7 -10 -15z"/>
<path d="M4420 7930 c0 -5 5 -10 11 -10 5 0 7 5 4 10 -3 6 -8 10 -11 10 -2 0
-4 -4 -4 -10z"/>
<path d="M4470 7887 c0 -8 7 -17 15 -21 8 -3 15 -2 15 3 0 5 -7 14 -15 21 -12
10 -15 10 -15 -3z"/>
<path d="M4274 7869 c-10 -17 9 -27 36 -18 16 4 19 7 8 8 -10 1 -18 6 -18 11
0 13 -17 13 -26 -1z"/>
<path d="M4360 7865 c-10 -13 -9 -15 8 -15 15 0 20 5 16 15 -4 8 -7 15 -9 15
-1 0 -8 -7 -15 -15z"/>
<path d="M4552 7868 c-20 -20 -13 -38 13 -38 34 0 31 -12 -12 -49 -21 -18 -33
-35 -28 -39 6 -4 17 -20 24 -37 9 -19 15 -25 19 -16 2 7 -1 17 -8 21 -17 11
-5 41 19 47 17 4 30 30 31 58 0 6 -11 22 -23 37 -18 21 -26 25 -35 16z"/>
<path d="M4450 7821 c0 -5 7 -11 15 -15 9 -3 15 0 15 9 0 8 -7 15 -15 15 -8 0
-15 -4 -15 -9z"/>
<path d="M5022 7740 c0 -14 2 -19 5 -12 2 6 2 18 0 25 -3 6 -5 1 -5 -13z"/>
<path d="M6002 7670 c1 -13 9 -25 16 -28 17 -5 15 23 -4 39 -14 11 -15 10 -12
-11z"/>
<path d="M4528 7663 c7 -3 16 -2 19 1 4 3 -2 6 -13 5 -11 0 -14 -3 -6 -6z"/>
<path d="M4443 7619 c-21 -55 3 -67 38 -18 18 26 19 33 8 40 -24 15 -34 10
-46 -22z"/>
<path d="M4520 7607 c0 -23 8 -41 25 -57 21 -20 25 -21 25 -6 0 10 7 24 16 33
14 14 13 17 -4 27 -11 6 -29 17 -41 24 -20 12 -21 11 -21 -21z"/>
<path d="M4251 7574 c0 -11 3 -14 6 -6 3 7 2 16 -1 19 -3 4 -6 -2 -5 -13z"/>
<path d="M4740 7501 c0 -26 16 -35 24 -15 10 25 7 34 -9 34 -8 0 -15 -9 -15
-19z"/>
<path d="M4900 7505 c0 -8 7 -15 16 -15 14 0 14 3 4 15 -7 8 -14 15 -16 15 -2
0 -4 -7 -4 -15z"/>
<path d="M5000 7490 c0 -11 4 -20 9 -20 11 0 22 26 14 34 -12 12 -23 5 -23
-14z"/>
<path d="M4520 7485 c0 -8 5 -15 10 -15 6 0 10 7 10 15 0 8 -4 15 -10 15 -5 0
-10 -7 -10 -15z"/>
<path d="M4832 7478 c2 -15 11 -24 26 -26 27 -4 28 9 4 31 -25 23 -34 21 -30
-5z"/>
<path d="M4614 7454 c3 -8 6 -24 6 -35 0 -12 7 -19 20 -19 15 0 20 -7 20 -25
0 -27 -18 -33 -38 -13 -9 9 -12 5 -12 -20 0 -24 4 -30 15 -26 8 4 15 1 15 -5
0 -20 29 -12 41 12 20 37 50 59 65 46 13 -11 8 -39 -7 -39 -5 0 -9 -7 -9 -15
0 -8 7 -15 15 -15 11 0 14 -7 9 -25 -5 -19 -2 -25 10 -25 13 0 16 8 14 36 -2
37 19 64 49 64 7 0 13 6 13 13 0 9 -10 12 -30 9 -19 -3 -30 0 -30 7 0 15 -45
61 -60 61 -5 0 -10 -9 -10 -20 0 -30 -32 -25 -55 10 -22 33 -51 50 -41 24z"/>
<path d="M4431 7417 c-19 -19 -12 -37 14 -37 18 0 25 5 25 19 0 23 -23 34 -39
18z"/>
<path d="M4293 7386 c-9 -11 -8 -15 9 -19 26 -7 48 2 48 19 0 18 -41 18 -57 0z"/>
<path d="M4495 7380 c-8 -27 14 -57 27 -38 8 11 10 11 15 0 8 -20 33 6 33 34
0 21 -5 24 -34 24 -26 0 -36 -5 -41 -20z"/>
<path d="M6050 7388 c0 -9 -6 -18 -12 -20 -9 -3 -8 -9 4 -21 16 -16 17 -16 23
3 3 11 2 28 -4 37 -9 16 -10 16 -11 1z"/>
<path d="M4400 7333 c0 -23 4 -33 9 -27 17 17 17 64 1 64 -5 0 -10 -17 -10
-37z"/>
<path d="M4530 7294 c-8 -16 -22 -34 -30 -40 -13 -11 -13 -15 0 -40 l15 -28 3
30 c2 16 10 37 19 46 8 9 13 26 11 39 -3 21 -4 21 -18 -7z"/>
<path d="M4291 7263 c-7 -8 -10 -17 -7 -20 9 -9 29 13 25 25 -2 6 -10 3 -18
-5z"/>
<path d="M4690 7266 c0 -8 5 -18 10 -21 6 -3 10 3 10 14 0 12 -4 21 -10 21 -5
0 -10 -6 -10 -14z"/>
<path d="M4723 7233 c-15 -5 -18 -33 -4 -33 5 0 11 -11 13 -25 3 -14 2 -25 -3
-25 -16 0 -39 13 -39 22 0 5 -7 16 -15 24 -17 18 -20 2 -5 -26 7 -13 7 -21 0
-25 -5 -3 -10 -2 -10 3 0 6 -16 12 -35 14 -19 2 -35 0 -35 -5 0 -5 -8 -16 -17
-25 -16 -16 -15 -17 2 -21 11 -2 25 -11 32 -20 9 -11 12 -12 13 -3 0 30 70 62
70 32 0 -5 11 -10 25 -10 20 0 25 -5 25 -25 0 -18 5 -25 20 -25 17 0 20 7 20
40 0 22 -4 40 -10 40 -5 0 -10 11 -10 24 0 13 -7 27 -16 30 -10 4 -14 14 -11
26 3 11 4 20 4 19 -1 0 -8 -3 -14 -6z"/>
<path d="M4387 7174 c-3 -3 3 -16 14 -27 17 -19 21 -20 29 -7 6 10 5 16 -3 19
-7 2 -17 8 -23 12 -6 5 -14 6 -17 3z"/>
<path d="M4470 7144 c0 -18 5 -24 23 -24 52 1 55 33 5 42 -24 5 -28 2 -28 -18z"/>
<path d="M4507 7080 c-3 -11 -1 -20 4 -20 5 0 9 9 9 20 0 11 -2 20 -4 20 -2 0
-6 -9 -9 -20z"/>
<path d="M4935 7067 c-4 -10 -5 -21 -1 -24 10 -10 18 4 13 24 -4 17 -4 17 -12
0z"/>
<path d="M4442 7045 c0 -16 2 -22 5 -12 2 9 2 23 0 30 -3 6 -5 -1 -5 -18z"/>
<path d="M4660 7055 c0 -8 5 -15 10 -15 6 0 10 7 10 15 0 8 -4 15 -10 15 -5 0
-10 -7 -10 -15z"/>
<path d="M4710 7010 c12 -16 23 -30 26 -30 2 0 4 14 4 30 0 26 -4 30 -26 30
l-25 0 21 -30z"/>
<path d="M4660 7009 c0 -5 5 -7 10 -4 6 3 10 8 10 11 0 2 -4 4 -10 4 -5 0 -10
-5 -10 -11z"/>
<path d="M4680 6964 c0 -8 8 -14 18 -15 10 0 12 -3 5 -6 -7 -2 -29 1 -48 7
-45 15 -65 1 -65 -46 0 -28 4 -34 21 -34 12 0 23 8 26 19 7 26 29 34 53 18 15
-9 20 -23 20 -58 0 -38 -4 -48 -24 -59 -21 -11 -23 -16 -14 -36 9 -19 13 -21
24 -9 8 7 14 23 14 34 0 12 6 21 14 21 8 0 17 8 21 18 14 31 15 116 2 133 -16
21 -67 31 -67 13z"/>
<path d="M6071 6964 c0 -11 3 -14 6 -6 3 7 2 16 -1 19 -3 4 -6 -2 -5 -13z"/>
<path d="M4371 6954 c0 -11 3 -14 6 -6 3 7 2 16 -1 19 -3 4 -6 -2 -5 -13z"/>
<path d="M4265 6930 c-3 -5 3 -10 14 -10 11 0 22 -8 24 -17 4 -17 5 -17 6 0 0
9 7 17 14 18 14 1 -22 17 -40 18 -6 1 -15 -3 -18 -9z"/>
<path d="M4470 6916 c0 -7 6 -26 14 -40 13 -26 14 -26 19 -5 6 24 -8 59 -23
59 -6 0 -10 -6 -10 -14z"/>
<path d="M4787 6903 c-11 -10 -8 -20 8 -27 10 -4 15 1 15 14 0 20 -11 26 -23
13z"/>
<path d="M4372 6888 c6 -18 28 -21 28 -4 0 9 -7 16 -16 16 -9 0 -14 -5 -12
-12z"/>
<path d="M4470 6801 c0 -25 6 -27 13 -6 4 8 2 17 -3 20 -6 4 -10 -3 -10 -14z"/>
<path d="M5161 6754 c0 -11 3 -14 6 -6 3 7 2 16 -1 19 -3 4 -6 -2 -5 -13z"/>
<path d="M4210 6740 c0 -5 7 -10 16 -10 8 0 12 5 9 10 -3 6 -10 10 -16 10 -5
0 -9 -4 -9 -10z"/>
<path d="M4380 6721 c0 -5 7 -12 16 -15 22 -9 24 -8 24 9 0 8 -9 15 -20 15
-11 0 -20 -4 -20 -9z"/>
<path d="M4450 6709 c0 -16 4 -19 20 -14 11 4 20 2 20 -4 0 -6 -4 -11 -10 -11
-5 0 -10 -11 -10 -25 0 -26 7 -29 34 -19 23 9 20 26 -12 62 -34 37 -42 40 -42
11z"/>
<path d="M4608 6713 c-18 -3 -25 -9 -21 -19 3 -8 11 -14 19 -14 8 0 14 -4 14
-10 0 -5 -9 -10 -20 -10 -25 0 -26 -12 -2 -33 14 -13 21 -14 30 -5 7 7 12 18
12 25 0 7 11 13 25 13 20 0 25 -5 25 -25 0 -14 5 -25 10 -25 16 0 12 -40 -5
-46 -9 -4 -15 -19 -15 -38 0 -39 -8 -50 -27 -35 -10 9 -13 7 -13 -8 0 -16 -5
-19 -25 -15 -14 2 -25 8 -25 13 0 5 -4 9 -10 9 -16 0 -12 -22 6 -35 15 -10 15
-13 -1 -29 -15 -15 -16 -20 -4 -43 l13 -25 20 41 c13 27 27 41 39 41 12 0 17
-5 14 -14 -4 -9 3 -16 19 -19 13 -2 24 0 24 4 0 5 16 8 35 7 19 -1 38 1 41 5
7 7 -86 48 -96 42 -5 -3 -6 4 -3 15 3 11 9 20 14 20 5 0 9 9 9 19 0 10 7 21
15 25 9 3 15 18 15 36 0 20 -5 30 -15 30 -22 0 -19 9 10 32 33 26 32 38 -5 38
-17 0 -33 6 -36 14 -3 8 -12 12 -20 9 -8 -3 -14 0 -14 6 0 11 -3 11 -52 4z"/>
<path d="M4360 6668 c0 -7 5 -20 10 -28 7 -11 12 -12 21 -3 9 9 8 15 -4 27
-19 19 -27 20 -27 4z"/>
<path d="M4447 6574 c-8 -8 3 -34 14 -34 11 0 12 27 0 34 -4 3 -11 3 -14 0z"/>
<path d="M4251 6554 c0 -11 3 -14 6 -6 3 7 2 16 -1 19 -3 4 -6 -2 -5 -13z"/>
<path d="M4815 6560 c3 -5 8 -10 11 -10 2 0 4 5 4 10 0 6 -5 10 -11 10 -5 0
-7 -4 -4 -10z"/>
<path d="M6050 6511 c0 -12 6 -21 16 -21 9 0 14 7 12 17 -5 25 -28 28 -28 4z"/>
<path d="M4370 6488 c0 -7 4 -19 9 -27 14 -22 2 -39 -22 -34 -19 4 -20 3 -5
-6 21 -14 40 -6 54 22 10 23 6 32 -23 51 -8 4 -13 2 -13 -6z"/>
<path d="M4455 6455 c8 -50 15 -61 26 -44 13 21 11 35 -12 60 l-20 24 6 -40z"/>
<path d="M4265 6451 c-3 -5 -1 -12 5 -16 5 -3 10 1 10 9 0 18 -6 21 -15 7z"/>
<path d="M4695 6369 c-5 -14 -1 -25 12 -34 28 -22 32 -18 22 17 -5 18 -9 34
-9 35 0 2 -4 3 -9 3 -5 0 -13 -9 -16 -21z"/>
<path d="M4470 6350 c0 -19 3 -21 12 -12 9 9 9 15 0 24 -9 9 -12 7 -12 -12z"/>
<path d="M4866 6335 c4 -8 8 -15 10 -15 2 0 4 7 4 15 0 8 -4 15 -10 15 -5 0
-7 -7 -4 -15z"/>
<path d="M4667 6333 c-8 -14 12 -53 28 -53 19 0 20 27 1 46 -16 16 -23 17 -29
7z"/>
<path d="M5950 6300 c0 -28 2 -30 20 -20 11 6 25 8 30 5 20 -12 19 15 -2 29
-34 24 -48 20 -48 -14z"/>
<path d="M4431 6313 c0 -5 4 -17 9 -28 8 -18 9 -17 9 8 1 15 -3 27 -9 27 -5 0
-10 -3 -9 -7z"/>
<path d="M5092 6275 c0 -16 2 -22 5 -12 2 9 2 23 0 30 -3 6 -5 -1 -5 -18z"/>
<path d="M4532 6266 c7 -8 15 -12 17 -11 5 6 -10 25 -20 25 -5 0 -4 -6 3 -14z"/>
<path d="M4658 6265 c-4 -4 -4 -13 -2 -20 3 -7 1 -16 -5 -20 -19 -11 -13 -46
7 -43 14 3 17 -4 14 -40 -2 -32 1 -43 10 -39 8 2 12 17 10 40 -3 34 -2 37 24
37 26 0 27 1 9 20 -10 11 -26 22 -36 25 -10 3 -19 15 -21 26 -2 12 -6 18 -10
14z"/>
<path d="M4564 6218 c3 -18 2 -39 -3 -47 -5 -8 -7 -20 -4 -28 8 -21 30 -15 37
11 3 14 12 31 20 39 13 12 13 17 0 36 -8 11 -24 21 -36 21 -17 0 -19 -4 -14
-32z"/>
<path d="M4420 6209 c0 -5 6 -9 14 -9 8 0 17 -6 19 -12 4 -10 8 -10 16 2 5 8
8 17 6 21 -7 10 -55 8 -55 -2z"/>
<path d="M4508 6183 c6 -2 18 -2 25 0 6 3 1 5 -13 5 -14 0 -19 -2 -12 -5z"/>
<path d="M6038 6098 c-7 -19 13 -58 29 -58 18 0 16 10 -6 43 -12 20 -20 24
-23 15z"/>
<path d="M4437 6080 c-3 -11 -1 -23 4 -26 5 -3 9 6 9 20 0 31 -6 34 -13 6z"/>
<path d="M4640 6081 c0 -12 5 -21 10 -21 6 0 10 6 10 14 0 8 -4 18 -10 21 -5
3 -10 -3 -10 -14z"/>
<path d="M4590 6052 c0 -12 41 -44 48 -38 3 4 -4 15 -16 26 -23 21 -32 25 -32
12z"/>
<path d="M4367 6023 c-3 -3 -3 -11 0 -19 3 -8 -1 -14 -8 -14 -7 0 -10 -3 -6
-6 9 -10 47 6 47 21 0 14 -24 27 -33 18z"/>
<path d="M4760 6010 c0 -11 6 -20 14 -20 10 0 14 -11 13 -35 -1 -22 -6 -35
-14 -35 -16 0 -16 -20 0 -41 14 -18 37 -14 37 7 0 8 5 14 10 14 6 0 10 9 10
19 0 25 27 34 39 13 6 -10 11 -12 11 -4 0 6 4 12 10 12 5 0 9 -26 7 -60 -2
-51 1 -60 15 -60 25 0 32 18 16 43 -18 28 -12 57 11 57 9 0 28 10 41 23 l25
22 -37 5 c-21 3 -47 13 -59 24 -18 15 -23 15 -30 5 -6 -10 -9 -11 -9 -1 0 7
-14 12 -34 12 -19 0 -38 5 -41 10 -11 18 -35 11 -35 -10z"/>
<path d="M4180 6000 c0 -5 9 -10 20 -10 11 0 20 5 20 10 0 6 -9 10 -20 10 -11
0 -20 -4 -20 -10z"/>
<path d="M4440 5990 c0 -11 -4 -20 -9 -20 -5 0 -11 -9 -14 -21 -6 -22 24 -42
31 -21 2 7 10 12 17 12 24 0 24 28 -1 49 -24 21 -24 21 -24 1z"/>
<path d="M4540 6000 c0 -5 7 -10 15 -10 9 0 15 -9 15 -24 0 -19 -6 -25 -25
-28 -23 -3 -24 -4 -7 -26 22 -29 44 -21 60 20 9 25 14 30 24 20 7 -7 22 -12
35 -12 13 0 23 -6 23 -12 0 -10 3 -9 9 1 5 7 14 10 20 7 25 -16 9 14 -18 33
-19 14 -45 21 -75 21 -25 0 -46 5 -46 10 0 6 -7 10 -15 10 -8 0 -15 -4 -15
-10z"/>
<path d="M4330 5920 c0 -11 5 -20 10 -20 6 0 10 9 10 20 0 11 -4 20 -10 20 -5
0 -10 -9 -10 -20z"/>
<path d="M4436 5894 c-6 -16 8 -33 27 -34 12 0 8 27 -7 39 -11 9 -15 8 -20 -5z"/>
<path d="M4661 5863 c-1 -31 -5 -43 -16 -43 -8 0 -15 5 -15 10 0 15 -20 12
-26 -4 -3 -8 4 -24 15 -35 12 -12 21 -32 21 -45 0 -19 -4 -22 -25 -18 -14 2
-25 8 -25 13 0 5 -13 9 -29 9 -23 0 -28 -4 -24 -19 5 -20 -29 -41 -35 -22 -5
15 -22 3 -22 -15 0 -8 9 -14 20 -14 11 0 20 -6 21 -12 0 -7 5 -3 11 10 6 12
17 22 25 22 7 0 13 5 13 10 0 6 11 10 25 10 20 0 25 -5 25 -25 0 -14 5 -25 10
-25 6 0 10 -13 10 -30 0 -16 5 -30 10 -30 6 0 10 20 10 44 0 26 5 46 13 49 10
4 10 7 0 18 -14 14 -17 80 -5 95 4 5 5 27 1 49 l-6 40 -2 -42z"/>
<path d="M4251 5854 c0 -11 3 -14 6 -6 3 7 2 16 -1 19 -3 4 -6 -2 -5 -13z"/>
<path d="M4421 5823 c-1 -12 -7 -24 -13 -26 -10 -4 -10 -6 0 -6 15 -1 26 23
19 41 -3 7 -6 3 -6 -9z"/>
<path d="M4810 5810 c6 -11 13 -20 15 -20 3 0 5 9 5 20 0 11 -7 20 -15 20 -13
0 -14 -4 -5 -20z"/>
<path d="M6040 5823 c0 -4 5 -15 10 -23 8 -13 10 -13 10 2 0 9 -4 20 -10 23
-5 3 -10 3 -10 -2z"/>
<path d="M4837 5779 c-10 -15 -15 -33 -11 -44 6 -15 3 -16 -25 -10 -19 4 -44
2 -61 -5 l-29 -12 21 -29 c26 -35 40 -37 53 -6 7 15 20 23 41 25 30 3 32 1 36
-32 2 -20 0 -36 -4 -36 -4 0 -8 -9 -8 -19 0 -11 -4 -23 -10 -26 -15 -9 -12
-45 4 -45 25 0 39 26 24 49 -7 11 -10 23 -7 26 10 9 39 -6 39 -21 0 -8 5 -14
10 -14 6 0 10 4 10 9 0 6 -4 13 -10 16 -5 3 -10 19 -10 36 0 24 4 29 23 29 35
0 59 21 46 40 -8 11 -12 12 -16 3 -5 -14 -53 -18 -53 -5 0 5 -9 17 -19 29 -11
11 -21 31 -23 44 l-3 24 -18 -26z"/>
<path d="M4353 5735 c4 -8 0 -20 -7 -28 -23 -22 -30 -57 -12 -57 9 0 16 6 16
14 0 7 7 19 15 26 20 16 19 46 -1 54 -12 4 -15 2 -11 -9z"/>
<path d="M4290 5715 c-10 -12 -10 -15 4 -15 9 0 16 7 16 15 0 8 -2 15 -4 15
-2 0 -9 -7 -16 -15z"/>
<path d="M4171 5701 c-7 -5 -12 -14 -10 -20 2 -6 10 -2 17 9 14 22 13 23 -7
11z"/>
<path d="M4421 5684 c0 -11 3 -14 6 -6 3 7 2 16 -1 19 -3 4 -6 -2 -5 -13z"/>
<path d="M4421 5614 c0 -11 3 -14 6 -6 3 7 2 16 -1 19 -3 4 -6 -2 -5 -13z"/>
<path d="M4810 5595 c0 -8 5 -15 10 -15 6 0 10 7 10 15 0 8 -4 15 -10 15 -5 0
-10 -7 -10 -15z"/>
<path d="M5070 5595 c0 -8 2 -15 4 -15 2 0 6 7 10 15 3 8 1 15 -4 15 -6 0 -10
-7 -10 -15z"/>
<path d="M4581 5578 c-9 -24 6 -61 22 -51 5 3 4 10 -2 16 -6 6 -7 16 -1 28 7
12 7 20 0 24 -6 3 -14 -4 -19 -17z"/>
<path d="M6030 5586 c0 -23 11 -46 20 -41 10 6 0 55 -11 55 -5 0 -9 -6 -9 -14z"/>
<path d="M5055 5541 c-3 -5 -1 -12 5 -16 5 -3 10 1 10 9 0 18 -6 21 -15 7z"/>
<path d="M4503 5503 c21 -6 23 -43 1 -43 -10 0 -14 -7 -12 -22 4 -27 28 -36
28 -11 0 11 7 28 15 39 23 31 18 44 -17 43 -18 -1 -25 -3 -15 -6z"/>
<path d="M4577 5496 c-3 -8 2 -16 13 -19 13 -3 16 -11 13 -31 -3 -15 -1 -26 6
-26 6 0 11 5 11 10 0 6 9 10 21 10 26 0 20 22 -9 35 -12 5 -22 15 -22 22 0 18
-27 16 -33 -1z"/>
<path d="M4410 5476 c-6 -8 -10 -25 -7 -38 l4 -23 8 23 c4 12 11 22 16 22 5 0
9 7 9 15 0 19 -14 19 -30 1z"/>
<path d="M4372 5360 c0 -14 2 -19 5 -12 2 6 2 18 0 25 -3 6 -5 1 -5 -13z"/>
<path d="M6041 5365 c0 -11 4 -29 9 -40 8 -18 9 -18 9 5 0 14 -4 32 -9 40 -8
12 -10 12 -9 -5z"/>
<path d="M4560 5366 c0 -1 8 -13 19 -25 14 -16 20 -18 24 -7 3 8 -4 18 -19 25
-13 6 -24 9 -24 7z"/>
<path d="M4803 5349 c4 -13 7 -30 7 -36 0 -7 9 -13 21 -13 16 0 20 5 17 28 -2
15 -7 27 -13 27 -5 0 -16 4 -24 9 -11 7 -13 4 -8 -15z"/>
<path d="M5000 5356 c0 -8 5 -18 10 -21 6 -3 10 3 10 14 0 12 -4 21 -10 21 -5
0 -10 -6 -10 -14z"/>
<path d="M4930 5330 c0 -5 5 -10 10 -10 6 0 10 5 10 10 0 6 -4 10 -10 10 -5 0
-10 -4 -10 -10z"/>
<path d="M5207 5305 c-4 -8 -2 -17 3 -20 6 -4 10 3 10 14 0 25 -6 27 -13 6z"/>
<path d="M4483 5255 c-17 -19 -16 -62 1 -68 10 -4 18 4 25 24 5 16 15 29 20
29 6 0 11 7 11 15 0 19 -41 19 -57 0z"/>
<path d="M4570 5245 c0 -22 4 -25 37 -25 l36 0 -23 25 c-13 14 -29 25 -37 25
-7 0 -13 -11 -13 -25z"/>
<path d="M4280 5194 c0 -8 5 -12 10 -9 6 4 8 11 5 16 -9 14 -15 11 -15 -7z"/>
<path d="M4590 5170 c0 -11 5 -20 10 -20 6 0 10 9 10 20 0 11 -4 20 -10 20 -5
0 -10 -9 -10 -20z"/>
<path d="M4540 5123 c1 -34 22 -64 38 -54 9 6 9 15 -3 39 -22 43 -35 49 -35
15z"/>
<path d="M6014 5128 c-4 -13 -2 -24 4 -26 6 -2 16 -19 22 -38 6 -19 16 -32 21
-29 12 8 12 52 -1 60 -5 3 -10 17 -10 31 0 30 -26 32 -36 2z"/>
<path d="M4467 5022 c3 -12 -2 -22 -11 -25 -9 -4 -13 -13 -10 -22 8 -19 34
-20 34 -1 0 8 7 22 16 31 18 18 18 20 -13 29 -17 6 -20 3 -16 -12z"/>
<path d="M4534 5019 c-3 -6 3 -24 15 -40 18 -24 19 -32 9 -49 -7 -11 -18 -20
-25 -20 -17 0 -16 -31 3 -55 12 -16 16 -17 23 -6 6 9 11 10 15 2 16 -26 22 -6
20 69 -2 79 -13 110 -40 110 -7 0 -16 -5 -20 -11z"/>
<path d="M4687 5003 c-4 -3 -7 -15 -7 -25 0 -20 -16 -25 -23 -5 -2 6 -7 9 -11
5 -10 -8 34 -58 51 -58 7 0 13 7 13 16 0 8 7 23 16 32 15 14 15 17 -2 29 -20
15 -28 16 -37 6z"/>
<path d="M6030 4995 c0 -8 5 -15 10 -15 6 0 10 7 10 15 0 8 -4 15 -10 15 -5 0
-10 -7 -10 -15z"/>
<path d="M4262 4988 c-7 -7 -12 -16 -12 -21 0 -5 7 -1 16 8 9 9 14 18 12 20
-2 3 -10 -1 -16 -7z"/>
<path d="M4342 4922 c-14 -30 -16 -62 -3 -62 8 0 25 79 19 86 -2 1 -9 -9 -16
-24z"/>
<path d="M4157 4927 c-3 -7 -2 -19 3 -26 5 -10 8 -9 13 2 3 7 2 19 -3 26 -5
10 -8 9 -13 -2z"/>
<path d="M4025 4920 c-3 -5 -1 -10 4 -10 6 0 11 5 11 10 0 6 -2 10 -4 10 -3 0
-8 -4 -11 -10z"/>
<path d="M4706 4875 c4 -8 10 -15 15 -15 5 0 9 7 9 15 0 8 -7 15 -15 15 -9 0
-12 -6 -9 -15z"/>
<path d="M4324 4825 c8 -8 17 -15 20 -15 3 0 6 7 6 15 0 9 -9 15 -21 15 -18 0
-19 -2 -5 -15z"/>
<path d="M4110 4800 c0 -5 5 -10 11 -10 5 0 7 5 4 10 -3 6 -8 10 -11 10 -2 0
-4 -4 -4 -10z"/>
<path d="M4150 4800 c-10 -6 -11 -10 -3 -10 7 0 15 -11 19 -25 7 -29 19 -32
28 -8 9 23 -24 56 -44 43z"/>
<path d="M4026 4750 c-5 -14 -14 -28 -20 -32 -8 -5 -7 -11 2 -20 9 -9 12 -9
12 4 0 9 5 18 11 20 6 2 9 15 7 28 l-4 25 -8 -25z"/>
<path d="M4143 4722 c-21 -3 -34 -22 -15 -22 4 0 8 -18 10 -41 2 -25 -1 -38
-7 -34 -6 3 -20 1 -31 -5 -17 -9 -20 -17 -14 -46 5 -26 2 -38 -9 -47 -20 -15
-32 -63 -18 -71 6 -4 11 -1 11 7 0 8 20 36 45 61 37 39 45 54 45 85 0 20 5 42
11 48 6 6 7 21 2 39 -6 23 -13 28 -30 26z"/>
<path d="M4081 4684 c0 -11 3 -14 6 -6 3 7 2 16 -1 19 -3 4 -6 -2 -5 -13z"/>
<path d="M4172 4557 c-12 -14 -42 -85 -42 -98 0 -5 7 -9 15 -9 9 0 15 10 15
26 0 14 9 39 20 54 20 28 12 52 -8 27z"/>
<path d="M4090 4406 c0 -2 6 -18 14 -36 10 -25 14 -29 19 -15 8 18 -8 55 -23
55 -6 0 -10 -2 -10 -4z"/>
<path d="M4056 4294 c-9 -22 3 -32 14 -14 12 19 12 30 1 30 -5 0 -12 -7 -15
-16z"/>
<path d="M4123 4274 c-7 -7 -13 -16 -13 -19 0 -10 -27 -35 -38 -35 -5 0 -7
-11 -4 -25 2 -14 7 -25 11 -25 12 1 41 27 41 38 0 6 5 12 11 14 6 2 9 18 7 35
-2 25 -5 28 -15 17z"/>
<path d="M4046 4094 c9 -21 12 -39 6 -43 -5 -3 -12 -24 -15 -46 l-7 -40 20 30
c11 17 20 38 20 48 0 10 8 17 19 17 11 0 21 -8 23 -17 2 -11 6 -14 10 -7 8 12
-62 94 -80 94 -7 0 -6 -11 4 -36z"/>
<path d="M3920 3995 c0 -8 5 -15 10 -15 6 0 10 7 10 15 0 8 -4 15 -10 15 -5 0
-10 -7 -10 -15z"/>
<path d="M4040 3945 c0 -8 4 -15 10 -15 5 0 7 7 4 15 -4 8 -8 15 -10 15 -2 0
-4 -7 -4 -15z"/>
<path d="M4073 3937 c-6 -13 -9 -35 -6 -50 4 -20 1 -27 -11 -27 -9 0 -16 5
-16 11 0 12 -25 39 -36 39 -4 0 0 -8 8 -17 12 -14 14 -30 7 -78 -12 -97 -11
-115 6 -109 11 4 15 -1 16 -17 0 -23 1 -23 9 -4 4 12 15 27 24 34 9 7 16 18
16 24 0 5 -8 3 -18 -6 -27 -25 -32 -21 -32 24 0 49 25 82 35 48 13 -40 22 0
17 74 -2 40 -5 73 -6 75 -2 1 -8 -8 -13 -21z"/>
<path d="M4180 3937 c0 -9 5 -19 10 -22 6 -4 10 -12 8 -18 -3 -18 12 -57 23
-57 5 0 9 11 9 25 0 14 -4 25 -10 25 -5 0 -10 8 -10 19 0 10 -7 24 -15 31 -12
10 -15 10 -15 -3z"/>
<path d="M3920 3813 c0 -22 2 -25 10 -13 13 20 13 40 0 40 -5 0 -10 -12 -10
-27z"/>
<path d="M4153 3828 c-4 -7 -6 -21 -5 -31 2 -10 -2 -25 -9 -33 -6 -8 -9 -17
-5 -21 3 -3 6 -1 6 5 0 7 9 12 19 12 10 0 21 7 25 15 3 8 15 15 26 15 18 0 21
-5 18 -32 -2 -27 -7 -33 -26 -32 -21 1 -23 -3 -18 -29 3 -17 8 -32 10 -34 9
-9 47 34 57 64 6 18 15 33 20 33 20 0 8 30 -20 49 -31 22 -61 19 -61 -6 0 -19
-24 -11 -28 9 -2 9 5 18 15 21 16 4 16 5 1 6 -9 0 -20 -5 -25 -11z"/>
<path d="M4126 3705 c4 -8 8 -15 10 -15 2 0 4 7 4 15 0 8 -4 15 -10 15 -5 0
-7 -7 -4 -15z"/>
<path d="M3990 3635 c0 -9 9 -15 25 -15 28 0 34 15 9 24 -25 10 -34 7 -34 -9z"/>
<path d="M4106 3625 c-3 -9 -6 -20 -6 -24 0 -13 52 -32 71 -26 13 4 19 1 19
-9 0 -9 9 -16 20 -16 14 0 20 7 20 21 0 30 -24 49 -62 49 -19 0 -39 5 -45 11
-7 7 -12 6 -17 -6z"/>
<path d="M3870 3609 c0 -5 5 -7 10 -4 6 3 10 8 10 11 0 2 -4 4 -10 4 -5 0 -10
-5 -10 -11z"/>
<path d="M3984 3592 c-18 -11 -36 -51 -28 -63 7 -12 28 15 37 49 3 12 4 22 4
22 -1 0 -7 -4 -13 -8z"/>
<path d="M4102 3521 c-6 -16 -8 -32 -5 -35 7 -7 43 38 43 53 0 23 -29 10 -38
-18z"/>
<path d="M3990 3494 c0 -19 4 -33 8 -30 8 5 4 66 -4 66 -2 0 -4 -16 -4 -36z"/>
<path d="M4150 3489 c0 -5 5 -7 10 -4 6 3 10 8 10 11 0 2 -4 4 -10 4 -5 0 -10
-5 -10 -11z"/>
<path d="M3871 3444 c0 -11 3 -14 6 -6 3 7 2 16 -1 19 -3 4 -6 -2 -5 -13z"/>
<path d="M4060 3430 c1 -19 24 -50 38 -50 5 0 13 -7 16 -16 9 -25 7 -54 -5
-54 -5 0 -7 -4 -4 -10 3 -5 17 -10 30 -10 13 0 27 5 30 10 3 6 15 10 26 10 10
0 19 5 19 10 0 6 -4 10 -10 10 -5 0 -10 11 -10 24 0 23 -24 41 -46 34 -10 -3
-65 31 -76 47 -5 6 -8 4 -8 -5z"/>
<path d="M3955 3417 c14 -11 17 -22 12 -54 -7 -39 -7 -39 23 -35 17 2 30 8 30
13 0 5 6 9 14 9 23 0 25 24 3 43 -11 9 -31 17 -44 17 -12 0 -23 5 -23 10 0 6
-8 10 -17 10 -15 0 -15 -1 2 -13z"/>
<path d="M3866 3394 c-4 -11 -1 -14 11 -12 9 2 18 9 21 16 6 18 -25 15 -32 -4z"/>
<path d="M4075 3298 c-4 -10 0 -27 9 -40 15 -21 16 -21 15 -3 0 11 -4 29 -9
40 -7 18 -9 18 -15 3z"/>
<path d="M4090 3190 c0 -5 5 -10 10 -10 6 0 10 5 10 10 0 6 -4 10 -10 10 -5 0
-10 -4 -10 -10z"/>
</g>
</svg>
